<svg width="50" height="50" viewBox="0 0 50 50" fill="none" xmlns="http://www.w3.org/2000/svg">
<path opacity="0.983" fill-rule="evenodd" clip-rule="evenodd" d="M11.6464 2.49021C20.7723 2.44366 29.8961 2.49236 39.0177 2.63632C43.8655 3.71768 46.6091 6.72105 47.2486 11.6464C47.3136 20.478 47.3136 29.3095 47.2486 38.1411C46.7611 42.2198 44.6344 45.0608 40.8685 46.6642C39.9857 46.9823 39.0766 47.1771 38.1411 47.2486C29.3095 47.3136 20.478 47.3136 11.6464 47.2486C7.56772 46.7611 4.72669 44.6344 3.12331 40.8685C2.8052 39.9857 2.61039 39.0766 2.53887 38.1411C2.44362 29.0153 2.47609 19.8915 2.63628 10.7698C3.73911 5.92685 6.74248 3.16699 11.6464 2.49021ZM11.7438 5.70463C20.5105 5.68839 29.2771 5.70463 38.0437 5.75333C41.4688 6.32116 43.4656 8.318 44.0342 11.7439C44.0991 20.478 44.0991 29.2121 44.0342 37.9463C43.5108 41.4243 41.514 43.4536 38.0437 44.0342C29.277 44.0992 20.5104 44.0992 11.7438 44.0342C8.31834 43.466 6.3215 41.4692 5.7533 38.0437C5.68836 29.2771 5.68836 20.5105 5.7533 11.7439C6.33934 8.31683 8.33618 6.30375 11.7438 5.70463Z" fill="#D82596"/>
<path opacity="0.998" fill-rule="evenodd" clip-rule="evenodd" d="M24.5606 11.8653C25.4644 11.7555 26.0991 12.1135 26.4649 12.9395C26.5137 16.4224 26.53 19.9055 26.5137 23.3887C29.9969 23.3724 33.48 23.3887 36.9629 23.4375C37.9971 23.9684 38.2739 24.7659 37.793 25.8301C37.5719 26.1165 37.2951 26.3282 36.9629 26.4649C33.48 26.5137 29.9969 26.53 26.5137 26.5137C26.53 29.9969 26.5137 33.48 26.4649 36.9629C25.9298 37.98 25.1323 38.2567 24.0723 37.793C23.7859 37.5719 23.5742 37.2951 23.4375 36.9629C23.3887 33.48 23.3724 29.9969 23.3887 26.5137C19.9055 26.53 16.4224 26.5137 12.9395 26.4649C11.9053 25.934 11.6285 25.1365 12.1094 24.0723C12.3327 23.783 12.6094 23.5714 12.9395 23.4375C16.4224 23.3887 19.9055 23.3724 23.3887 23.3887C23.3724 19.9055 23.3887 16.4224 23.4375 12.9395C23.6755 12.4244 24.0499 12.0664 24.5606 11.8653Z" fill="#D82496"/>
</svg>
