<svg width="203" height="61" viewBox="0 0 203 61" fill="none" xmlns="http://www.w3.org/2000/svg">
<rect width="202.709" height="60.4358" rx="4" fill="#333333"/>
<path fill-rule="evenodd" clip-rule="evenodd" d="M13.7248 9.45429C15.1804 9.45429 16.6361 9.45429 18.0917 9.45429C18.0917 8.46954 18.0917 7.48492 18.0917 6.50018C18.7766 6.01711 19.483 5.54613 20.211 5.08734C20.3602 4.9991 20.51 4.97778 20.6605 5.02312C21.3713 5.49809 22.0992 5.94763 22.844 6.37174C22.9722 7.39566 23.015 8.42318 22.9725 9.45429C24.4715 9.43284 25.97 9.45429 27.4678 9.51851C28.6453 10.3534 29.8225 11.1882 30.9999 12.0231C31.1069 13.9083 31.0855 15.7922 30.9357 17.6744C29.7636 18.3543 28.6076 19.0607 27.4678 19.7937C25.9272 19.8579 24.3859 19.8794 22.844 19.8579C22.8655 31.332 22.844 42.8059 22.7798 54.2798C22.2446 54.6437 21.7095 55.0077 21.1743 55.3715C20.7033 55.4572 20.2324 55.4572 19.7615 55.3715C19.2263 55.0077 18.6912 54.6437 18.156 54.2798C18.0917 42.8059 18.0703 31.332 18.0917 19.8579C16.5927 19.8794 15.0942 19.8579 13.5963 19.7937C12.3871 19.1357 11.2097 18.4293 10.0643 17.6744C9.97858 15.7906 9.97858 13.9069 10.0643 12.0231C11.269 11.1387 12.4892 10.2823 13.7248 9.45429Z" fill="white"/>
<path fill-rule="evenodd" clip-rule="evenodd" d="M98.3923 7.06687C98.2663 13.129 98.3927 19.1858 98.7709 25.2374C99.0006 25.1904 99.1267 25.0644 99.1494 24.8588C100.691 22.494 102.458 20.2855 104.449 18.2342C105.705 18.0456 106.967 17.9824 108.235 18.0449C108.33 19.1124 108.141 20.1216 107.667 21.0733C105.508 23.2966 103.552 25.6943 101.799 28.2658C103.452 30.9933 105.029 33.7692 106.531 36.594C107.036 37.6036 107.793 38.3607 108.803 38.8653C108.991 39.7397 109.053 40.6229 108.992 41.5152C107.426 41.6492 105.911 41.4599 104.449 40.9473C102.477 38.0771 100.647 35.1116 98.9601 32.0513C98.4835 34.7213 98.7989 37.2451 99.9065 39.6224C99.9065 40.2534 99.9065 40.8841 99.9065 41.5152C97.5091 41.5152 95.1114 41.5152 92.714 41.5152C92.4805 40.0028 92.9218 38.7411 94.039 37.7296C94.2914 28.6444 94.2914 19.5591 94.039 10.4738C92.8586 9.50096 92.4169 8.23887 92.714 6.68831C94.6427 6.5827 96.5355 6.70913 98.3923 7.06687Z" fill="white"/>
<path fill-rule="evenodd" clip-rule="evenodd" d="M119.213 11.6096C118.838 13.809 118.712 16.0803 118.834 18.4235C119.717 18.4235 120.601 18.4235 121.484 18.4235C121.878 20.6827 120.995 21.9444 118.834 22.209C118.771 27.2578 118.834 32.3054 119.024 37.3511C119.735 38.1185 120.177 39.0016 120.348 40.001C120.348 40.5056 120.348 41.0106 120.348 41.5152C117.951 41.5152 115.553 41.5152 113.156 41.5152C112.859 39.9647 113.301 38.7026 114.481 37.7297C114.67 32.5575 114.733 27.3842 114.67 22.209C113.661 22.209 112.651 22.209 111.642 22.209C111.402 19.8995 112.412 18.6378 114.67 18.4235C114.516 15.2372 114.706 12.0824 115.238 8.9597C115.712 7.86909 116.531 7.17521 117.699 6.87766C119.087 6.62517 120.475 6.62517 121.863 6.87766C122.283 7.91376 122.346 8.98658 122.052 10.0954C121.248 10.3706 120.428 10.6231 119.591 10.8525C119.289 11.0255 119.163 11.278 119.213 11.6096Z" fill="white"/>
<path fill-rule="evenodd" clip-rule="evenodd" d="M80.2218 18.045C82.7566 17.7985 85.154 18.2399 87.4143 19.3699C89.4782 21.2483 90.2353 23.5828 89.6856 26.3731C88.369 26.4928 87.1069 26.3035 85.9001 25.8053C85.8709 22.7576 84.3567 21.4959 81.3575 22.0198C80.7711 22.4793 80.3297 23.0472 80.0325 23.7233C79.78 27.7613 79.78 31.7989 80.0325 35.8369C80.5651 37.9421 81.8901 38.6363 84.0073 37.919C84.9401 36.7648 85.5079 35.4398 85.7108 33.9442C86.8075 32.9104 88.1324 32.5318 89.6856 32.8085C90.3769 39.4987 87.3484 42.4639 80.6004 41.7045C78.3287 41.1988 76.7512 39.8738 75.8684 37.7297C75.616 32.43 75.616 27.1302 75.8684 21.8305C76.9352 20.0661 78.3862 18.804 80.2218 18.045Z" fill="white"/>
<path fill-rule="evenodd" clip-rule="evenodd" d="M151.768 18.0449C155.114 17.4805 156.376 18.8683 155.554 22.209C153.569 22.0284 151.677 22.3438 149.876 23.1554C149.289 23.6149 148.848 24.1828 148.551 24.8589C148.298 29.0229 148.298 33.187 148.551 37.3511C149.699 38.4921 150.141 39.8802 149.876 41.5152C147.352 41.5152 144.828 41.5152 142.304 41.5152C141.972 39.8458 142.54 38.584 144.008 37.7297C144.26 32.556 144.26 27.3827 144.008 22.209C142.719 21.2706 142.151 20.0088 142.304 18.4235C144.323 18.4235 146.342 18.4235 148.361 18.4235C148.302 18.9432 148.365 19.4482 148.551 19.9377C149.566 19.1484 150.639 18.5174 151.768 18.0449Z" fill="white"/>
<path fill-rule="evenodd" clip-rule="evenodd" d="M62.0513 18.045C68.3924 17.384 71.5469 20.2232 71.5151 26.5624C71.4519 27.6349 71.3891 28.7077 71.3258 29.7801C71.1366 29.9694 70.9473 30.1587 70.758 30.348C67.6353 30.8802 64.4805 31.0695 61.2942 30.9158C61.2314 32.9388 61.2946 34.9576 61.4835 36.9726C62.8913 38.2605 64.4687 38.4497 66.2154 37.5405C66.6905 36.0921 67.3215 34.704 68.1081 33.3764C69.2033 32.9414 70.3389 32.7521 71.5151 32.8085C72.1515 39.6967 68.997 42.6619 62.0513 41.7045C59.409 41.114 57.7055 39.5366 56.9408 36.9726C56.6883 32.3039 56.6883 27.6349 56.9408 22.9662C57.8781 20.4499 59.5816 18.8097 62.0513 18.045Z" fill="white"/>
<path fill-rule="evenodd" clip-rule="evenodd" d="M66.9725 27.5087C65.0798 27.5087 63.187 27.5087 61.2943 27.5087C61.2943 26.4991 61.2943 25.4899 61.2943 24.4803C61.8257 21.9429 63.3399 21.1858 65.8369 22.209C66.1522 22.5876 66.4679 22.9661 66.7833 23.3447C66.9722 24.7271 67.035 26.1149 66.9725 27.5087Z" fill="#333333"/>
<path fill-rule="evenodd" clip-rule="evenodd" d="M129.812 18.0449C134.001 17.395 137.092 18.9092 139.087 22.5876C139.339 27.3827 139.339 32.1774 139.087 36.9726C138.308 39.7697 136.479 41.3471 133.598 41.7045C129.149 42.4604 126.183 40.757 124.702 36.594C124.449 32.0514 124.449 27.5087 124.702 22.9661C125.636 20.4533 127.34 18.8126 129.812 18.0449Z" fill="white"/>
<path fill-rule="evenodd" clip-rule="evenodd" d="M130.569 21.8306C132.475 21.5277 133.926 22.1588 134.923 23.7233C135.175 27.7614 135.175 31.799 134.923 35.837C134.027 38.0201 132.449 38.6512 130.191 37.7298C129.875 37.3512 129.56 36.9727 129.244 36.5941C128.992 32.0515 128.992 27.5089 129.244 22.9662C129.678 22.5362 130.12 22.1576 130.569 21.8306Z" fill="#333333"/>
<path fill-rule="evenodd" clip-rule="evenodd" d="M169.56 18.4234C171.201 18.4234 172.841 18.4234 174.481 18.4234C174.481 19.1805 174.481 19.9376 174.481 20.6947C174.119 21.2481 173.677 21.7528 173.156 22.2089C173.03 31.4202 172.904 40.6319 172.778 49.8433C170.2 53.5951 166.73 54.6675 162.368 53.061C158.798 51.5195 157.411 48.8068 158.204 44.9221C159.346 44.8596 160.482 44.9228 161.611 45.1113C162.359 46.5869 162.99 48.1012 163.503 49.654C164.765 49.9065 166.027 49.9065 167.289 49.654C168.018 49.4942 168.397 49.0525 168.425 48.329C168.924 45.8643 168.924 43.3405 168.425 40.758C168.195 40.8049 168.069 40.931 168.046 41.1365C164.434 42.739 161.469 41.9818 159.15 38.8652C158.839 37.9991 158.586 37.1156 158.393 36.2154C158.14 31.6727 158.14 27.1301 158.393 22.5875C160.481 18.007 163.824 16.8713 168.425 19.1805C168.81 18.9182 169.188 18.666 169.56 18.4234Z" fill="white"/>
<path fill-rule="evenodd" clip-rule="evenodd" d="M164.261 21.8304C165.903 21.5829 167.354 21.9614 168.614 22.9661C168.929 27.7661 168.866 32.5609 168.425 37.3511C166.987 38.0787 165.472 38.2679 163.882 37.9189C163.371 37.6267 163.056 37.1849 162.936 36.594C162.683 32.1774 162.683 27.7612 162.936 23.3446C163.353 22.7961 163.795 22.2915 164.261 21.8304Z" fill="#333333"/>
<path fill-rule="evenodd" clip-rule="evenodd" d="M183.188 18.045C189.601 17.4033 192.756 20.3053 192.652 26.7517C192.526 27.7613 192.399 28.7705 192.273 29.7801C192.002 30.0871 191.687 30.3396 191.327 30.5372C188.252 30.8987 185.16 31.0248 182.052 30.9157C181.99 32.8127 182.053 34.7054 182.242 36.594C183.653 38.2161 185.356 38.5315 187.352 37.5404C187.822 36.0951 188.452 34.707 189.245 33.3763C190.324 32.8884 191.46 32.6991 192.652 32.8085C193.19 39.9018 189.909 42.867 182.81 41.7045C180.527 40.9807 178.949 39.5293 178.078 37.3511C177.825 32.43 177.825 27.5088 178.078 22.5876C179.163 20.3 180.866 18.7858 183.188 18.045Z" fill="white"/>
<path fill-rule="evenodd" clip-rule="evenodd" d="M188.109 27.5086C186.217 27.5086 184.324 27.5086 182.431 27.5086C182.431 26.373 182.431 25.2373 182.431 24.1017C182.521 23.0992 183.026 22.405 183.945 22.0196C185.829 21.3969 187.153 21.9647 187.92 23.7231C188.109 24.9788 188.172 26.2405 188.109 27.5086Z" fill="#333333"/>
<path fill-rule="evenodd" clip-rule="evenodd" d="M46.1521 6.68836C47.6716 6.62552 49.1859 6.68873 50.6948 6.87763C51.5984 7.2471 52.0401 7.94099 52.0197 8.95967C52.1458 18.676 52.2722 28.3919 52.3982 38.1082C53.5509 38.9482 53.9923 40.0839 53.7232 41.5152C51.8263 41.578 49.9335 41.5148 48.0449 41.3259C47.8556 41.1366 47.6663 40.9474 47.4771 40.7581C42.3117 43.1593 38.9047 41.645 37.2561 36.2155C37.0036 31.7989 37.0036 27.3827 37.2561 22.9661C39.1451 17.9548 42.4889 16.6927 47.2878 19.1806C47.7288 16.413 47.7916 13.6371 47.4771 10.8524C46.3285 9.71148 45.8868 8.32332 46.1521 6.68836Z" fill="white"/>
<path fill-rule="evenodd" clip-rule="evenodd" d="M43.1236 21.8305C44.6886 21.6196 46.0767 21.9982 47.2877 22.9661C47.7291 27.5035 47.7923 32.0461 47.477 36.594C46.2308 37.7248 44.7798 38.1661 43.1236 37.919C42.5372 37.4594 42.0958 36.8916 41.7987 36.2155C41.5462 32.1774 41.5462 28.1398 41.7987 24.1018C42.0122 23.1982 42.4536 22.4411 43.1236 21.8305Z" fill="#333333"/>
</svg>
