<svg width="71" height="75" viewBox="0 0 71 75" fill="none" xmlns="http://www.w3.org/2000/svg">
<rect width="71" height="75" rx="4" fill="#333333"/>
<path fill-rule="evenodd" clip-rule="evenodd" d="M26.7738 10.7406C28.6394 10.7406 30.5051 10.7406 32.3707 10.7406C32.3707 9.47144 32.3707 8.20249 32.3707 6.93338C33.2484 6.31083 34.1538 5.70383 35.0868 5.11256C35.2781 4.99884 35.47 4.97136 35.663 5.02979C36.5739 5.64192 37.5068 6.22127 38.4614 6.76785C38.6257 8.08745 38.6805 9.41169 38.626 10.7406C40.5472 10.7129 42.4678 10.7406 44.3875 10.8233C45.8965 11.8993 47.4053 12.9752 48.9144 14.0511C49.0515 16.4808 49.024 18.9086 48.8321 21.3344C47.3298 22.2106 45.8483 23.121 44.3875 24.0657C42.4129 24.1484 40.4376 24.1761 38.4614 24.1484C38.4889 38.9358 38.4614 53.7231 38.3791 68.5103C37.6931 68.9792 37.0074 69.4483 36.3214 69.9173C35.7178 70.0277 35.1143 70.0277 34.5107 69.9173C33.8247 69.4483 33.1389 68.9792 32.453 68.5103C32.3707 53.7231 32.3432 38.9358 32.3707 24.1484C30.4495 24.1761 28.5289 24.1484 26.6092 24.0657C25.0594 23.2177 23.5504 22.3072 22.0823 21.3344C21.9726 18.9066 21.9726 16.479 22.0823 14.0511C23.6264 12.9113 25.1903 11.8077 26.7738 10.7406Z" fill="white"/>
</svg>
