<svg width="205" height="82" viewBox="0 0 205 82" fill="none" xmlns="http://www.w3.org/2000/svg">
<path fill-rule="evenodd" clip-rule="evenodd" d="M3.99332 0.0138967C69.5125 -0.0231519 135.032 0.0138967 200.551 0.124821C202.736 0.461142 204.178 1.68131 204.877 3.78531C205.096 28.4938 205.023 53.1931 204.655 77.8825C203.896 79.7234 202.527 80.7956 200.551 81.0993C134.797 81.3207 69.0564 81.2466 3.32777 80.8775C1.55011 80.17 0.477916 78.8759 0.110979 76.9951C-0.0369931 52.5918 -0.0369931 28.1886 0.110979 3.78531C0.800704 1.87498 2.09497 0.617767 3.99332 0.0138967Z" fill="#333333"/>
<path fill-rule="evenodd" clip-rule="evenodd" d="M22.1848 10.2189C22.4894 10.1841 22.7854 10.2211 23.0722 10.3298C23.8858 10.8106 24.699 11.2911 25.5126 11.7718C25.7333 13.0204 25.8074 14.2774 25.7344 15.5432C27.5846 15.5064 29.4333 15.5432 31.2806 15.6542C32.6683 16.6254 34.0364 17.6237 35.3848 18.6491C35.5328 20.9415 35.5328 23.2341 35.3848 25.5264C34.0697 26.4244 32.7015 27.238 31.2806 27.9667C29.4377 28.1881 27.5891 28.262 25.7344 28.1886C25.7715 42.0172 25.7344 55.8459 25.6235 69.6741C23.7167 71.4369 21.7939 71.4369 19.8554 69.6741C19.7445 55.8459 19.7075 42.0172 19.7445 28.1886C17.9682 28.2254 16.1934 28.1886 14.4202 28.0777C12.9859 27.2712 11.581 26.4209 10.2051 25.5264C9.94638 23.2376 9.90956 20.945 10.0941 18.6491C11.4425 17.6237 12.8107 16.6254 14.1983 15.6542C16.0456 15.5432 17.8943 15.5064 19.7445 15.5432C19.6715 14.2774 19.7456 13.0204 19.9664 11.7718C20.8307 11.4131 21.5703 10.8953 22.1848 10.2189Z" fill="#DCDCDC"/>
<path fill-rule="evenodd" clip-rule="evenodd" d="M104.49 37.0625C103.722 36.8447 102.909 36.7708 102.05 36.8407C102.05 36.249 102.05 35.6576 102.05 35.0659C102.909 35.1358 103.722 35.0619 104.49 34.844C104.454 33.4371 104.49 32.0321 104.601 30.6289C104.81 28.7934 105.808 27.6473 107.596 27.1903C108.64 27.0465 109.675 27.0836 110.702 27.3012C110.599 27.9628 110.526 28.6283 110.48 29.2978C109.663 29.2612 108.85 29.2981 108.04 29.4088C107.526 29.6548 107.194 30.0617 107.042 30.6289C106.931 32.0321 106.894 33.4371 106.931 34.844C107.892 34.844 108.853 34.844 109.815 34.844C109.815 35.5835 109.815 36.3231 109.815 37.0625C108.853 37.0625 107.892 37.0625 106.931 37.0625C106.931 40.5382 106.931 44.0137 106.931 47.4894C106.117 47.4894 105.304 47.4894 104.49 47.4894C104.49 44.0137 104.49 40.5382 104.49 37.0625Z" fill="#D9D9D9"/>
<path fill-rule="evenodd" clip-rule="evenodd" d="M56.3495 27.523C57.0889 27.523 57.8285 27.523 58.5679 27.523C58.5679 34.1784 58.5679 40.8339 58.5679 47.4893C57.8285 47.4893 57.0889 47.4893 56.3495 47.4893C56.3858 46.8932 56.3488 46.3015 56.2385 45.7145C54.5558 47.6144 52.4483 48.2429 49.9159 47.6002C46.1879 45.8008 44.8198 42.8798 45.8117 38.8373C47.7422 34.9332 50.7371 33.7869 54.7965 35.3986C55.3423 35.7221 55.823 36.1287 56.2385 36.6188C56.3495 33.5877 56.3865 30.5559 56.3495 27.523Z" fill="#DDDDDD"/>
<path fill-rule="evenodd" clip-rule="evenodd" d="M92.2888 27.523C92.2517 31.7388 92.2888 35.9539 92.3997 40.1683C94.1374 38.4306 95.8754 36.6926 97.6131 34.9549C98.7224 34.8069 99.8316 34.8069 100.941 34.9549C99.0181 36.8777 97.0956 38.8002 95.1728 40.723C97.2433 42.9414 99.314 45.1599 101.385 47.3784C100.275 47.5264 99.1661 47.5264 98.0568 47.3784C96.0888 45.337 94.2031 43.2294 92.3997 41.0557C92.2888 43.199 92.252 45.3436 92.2888 47.4893C91.5494 47.4893 90.8097 47.4893 90.0703 47.4893C90.0703 40.8339 90.0703 34.1784 90.0703 27.523C90.8097 27.523 91.5494 27.523 92.2888 27.523Z" fill="#DCDCDC"/>
<path fill-rule="evenodd" clip-rule="evenodd" d="M170.379 27.523C170.379 34.1784 170.379 40.8339 170.379 47.4893C169.566 47.4893 168.752 47.4893 167.939 47.4893C167.975 46.9664 167.938 46.4489 167.828 45.9364C166.196 47.5641 164.236 48.1187 161.949 47.6002C158.705 46.5893 157.152 44.3708 157.29 40.9448C157.575 36.5198 159.941 34.4493 164.389 34.7331C165.802 34.9582 166.985 35.5867 167.939 36.6188C168.16 33.626 168.234 30.5943 168.161 27.523C168.9 27.523 169.64 27.523 170.379 27.523Z" fill="#DDDDDD"/>
<path fill-rule="evenodd" clip-rule="evenodd" d="M74.0972 40.1683C74.0972 40.76 74.0972 41.3515 74.0972 41.9431C70.7305 41.8701 67.4027 41.944 64.1141 42.165C64.2907 43.7108 65.1042 44.7832 66.5544 45.3818C68.6624 46.1398 70.4372 45.6593 71.8788 43.9398C72.5035 44.3224 73.0213 44.8032 73.4317 45.3818C72.0762 47.1426 70.2644 47.919 67.9964 47.7112C64.7317 47.7766 62.661 46.2237 61.7847 43.0524C61.0027 38.8823 62.5926 36.1092 66.5544 34.7331C70.8638 34.1319 73.3782 35.9437 74.0972 40.1683Z" fill="#DCDCDC"/>
<path fill-rule="evenodd" clip-rule="evenodd" d="M81.4182 34.6221C83.9211 34.2135 86.0657 34.879 87.8518 36.6188C87.2659 37.1299 86.6742 37.6477 86.077 38.1717C82.8751 35.8672 80.5457 36.5327 79.0888 40.1683C78.7372 43.8834 80.401 45.6211 84.0804 45.3818C84.9028 45.1741 85.6054 44.7675 86.1879 44.1616C86.7426 44.7162 87.2972 45.2708 87.8518 45.8255C86.5105 47.2803 84.8467 47.9088 82.8602 47.7112C79.8837 47.6921 77.8871 46.2869 76.8703 43.4961C75.7564 39.1416 77.2723 36.1835 81.4182 34.6221Z" fill="#DBDBDB"/>
<path fill-rule="evenodd" clip-rule="evenodd" d="M117.136 34.6222C122.57 34.3994 125.269 36.9877 125.233 42.3869C123.914 46.5838 121.068 48.3217 116.692 47.6003C113.197 46.247 111.607 43.6958 111.922 39.9465C112.665 37.1701 114.403 35.3953 117.136 34.6222Z" fill="#DADADA"/>
<path fill-rule="evenodd" clip-rule="evenodd" d="M145.31 34.844C145.274 35.5136 145.311 36.1791 145.421 36.8407C145.58 36.72 145.691 36.572 145.754 36.397C147.321 34.6348 149.244 34.1543 151.522 34.955C152.851 35.5449 153.702 36.5432 154.073 37.9499C154.184 41.1288 154.221 44.3087 154.184 47.4894C153.371 47.4894 152.558 47.4894 151.744 47.4894C151.781 44.5306 151.744 41.5725 151.633 38.6155C150.425 36.7708 148.835 36.3641 146.863 37.3953C146.375 37.8909 145.969 38.4455 145.643 39.0591C145.532 41.8682 145.495 44.6783 145.532 47.4894C144.719 47.4894 143.905 47.4894 143.092 47.4894C143.092 43.2743 143.092 39.0591 143.092 34.844C143.831 34.844 144.571 34.844 145.31 34.844Z" fill="#DBDBDB"/>
<path fill-rule="evenodd" clip-rule="evenodd" d="M174.151 47.4894C174.151 43.3481 174.151 39.2071 174.151 35.0659C174.89 35.0659 175.63 35.0659 176.369 35.0659C176.333 35.662 176.37 36.2536 176.48 36.8407C177.548 35.0166 179.138 34.277 181.25 34.6222C181.25 35.5096 181.25 36.397 181.25 37.2844C178.889 36.6714 177.298 37.4849 176.48 39.7247C176.369 42.3119 176.332 44.9002 176.369 47.4894C175.63 47.4894 174.89 47.4894 174.151 47.4894Z" fill="#DDDDDD"/>
<path fill-rule="evenodd" clip-rule="evenodd" d="M128.228 34.844C129.042 34.844 129.855 34.844 130.668 34.844C130.573 37.963 130.684 41.0688 131.001 44.1616C131.554 45.0845 132.368 45.5282 133.442 45.4927C135.438 45.4206 136.621 44.3854 136.991 42.3868C137.102 39.8737 137.139 37.3593 137.102 34.844C137.841 34.844 138.581 34.844 139.321 34.844C139.321 39.0591 139.321 43.2742 139.321 47.4893C138.581 47.4893 137.841 47.4893 137.102 47.4893C137.139 46.8198 137.102 46.1542 136.991 45.4927C135.536 47.5066 133.577 48.209 131.112 47.6002C129.71 46.9378 128.786 45.8656 128.339 44.3835C128.228 41.2046 128.191 38.0246 128.228 34.844Z" fill="#DCDCDC"/>
<path fill-rule="evenodd" clip-rule="evenodd" d="M182.359 34.844C183.306 34.7781 184.229 34.852 185.132 35.0659C186.332 38.2771 187.588 41.4571 188.904 44.6053C190.05 41.4256 191.195 38.2456 192.342 35.0659C193.23 34.7702 194.117 34.7702 195.004 35.0659C192.91 40.2176 190.876 45.394 188.904 50.5952C187.708 53.4249 185.6 54.46 182.581 53.7011C182.607 52.9557 182.681 52.2163 182.803 51.4826C183.883 51.8327 184.919 51.7218 185.909 51.1499C186.634 50.0284 187.153 48.8082 187.462 47.4894C185.716 43.288 184.016 39.0729 182.359 34.844Z" fill="#DADADA"/>
<path fill-rule="evenodd" clip-rule="evenodd" d="M66.7763 36.6188C69.7187 36.0868 71.3455 37.2699 71.657 40.1684C69.1428 40.1684 66.6283 40.1684 64.1141 40.1684C64.3611 38.4859 65.2484 37.3028 66.7763 36.6188Z" fill="#343434"/>
<path fill-rule="evenodd" clip-rule="evenodd" d="M117.358 36.8406C121.687 36.7699 123.351 38.8404 122.349 43.0524C120.937 45.5637 118.904 46.1924 116.248 44.9381C114.285 43.0191 113.952 40.8374 115.25 38.3936C115.869 37.7358 116.572 37.2182 117.358 36.8406Z" fill="#343434"/>
<path fill-rule="evenodd" clip-rule="evenodd" d="M162.615 36.8407C167.04 36.8121 168.704 38.9564 167.606 43.2743C166.488 45.1777 164.824 45.8803 162.615 45.3818C161.157 44.8853 160.233 43.887 159.841 42.3869C159.361 39.7977 160.286 37.9488 162.615 36.8407Z" fill="#343434"/>
<path fill-rule="evenodd" clip-rule="evenodd" d="M51.0251 36.8406C55.2722 36.8291 56.936 38.8998 56.0167 43.0524C54.9159 45.1717 53.1781 45.9481 50.8033 45.3818C48.4108 44.1277 47.5605 42.1681 48.252 39.5028C48.8663 38.2593 49.7907 37.3719 51.0251 36.8406Z" fill="#343434"/>
</svg>