<svg width="35" height="35" viewBox="0 0 35 35" fill="none" xmlns="http://www.w3.org/2000/svg">
<g clip-path="url(#clip0_111_102)">
<path d="M17.5 35C27.165 35 35 27.165 35 17.5C35 7.83502 27.165 0 17.5 0C7.83502 0 0 7.83502 0 17.5C0 27.165 7.83502 35 17.5 35Z" fill="#CAC5C0"/>
<path d="M8.05005 18.3497C8.05005 14.9242 8.7714 11.7651 10.2169 8.87449C12.0078 5.29189 14.4599 3.50024 17.5711 3.50024C20.65 3.50024 23.0542 5.02589 24.7828 8.07264C26.2273 10.5877 26.9497 13.5106 26.9497 16.8405C26.9497 20.2988 26.2273 23.4254 24.7828 26.2215C23.022 29.7418 20.5706 31.4999 17.429 31.4999C14.4431 31.4999 12.0722 29.9924 10.3114 26.9758C8.8036 24.3994 8.05005 21.5242 8.05005 18.3497ZM12.0082 16.7943C12.0082 21.3184 12.6837 24.8387 14.0364 27.3531C14.9783 29.1118 16.1875 29.9924 17.6649 29.9924C21.216 29.9924 22.9922 26.3153 22.9922 18.9611C22.9922 15.7257 22.7091 12.9905 22.1445 10.7592C21.1698 7.08284 19.5202 5.24324 17.1938 5.24324C13.7361 5.24324 12.0082 8.79574 12.0082 15.8983V16.7943Z" fill="#0D0F0F"/>
</g>
<defs>
<clipPath id="clip0_111_102">
<rect width="35" height="35" fill="white"/>
</clipPath>
</defs>
</svg>
