<svg width="35" height="35" viewBox="0 0 35 35" fill="none" xmlns="http://www.w3.org/2000/svg">
<path d="M17.5 34.9993C27.165 34.9993 35 27.1642 35 17.4993C35 7.83428 27.165 -0.000732422 17.5 -0.000732422C7.83502 -0.000732422 0 7.83428 0 17.4993C0 27.1642 7.83502 34.9993 17.5 34.9993Z" fill="#CAC5C0"/>
<path d="M19.4898 3.50035V25.9382C19.4898 28.623 20.6189 29.9645 22.8802 29.9645H23.4696V31.5003H11.5308V29.9645H12.2801C14.4666 29.9645 15.5593 28.623 15.5593 25.9382V11.2192C15.5593 8.50395 14.6153 7.1442 12.7309 7.1442H11.5308V5.65775H11.9637C14.2947 5.65775 16.4056 4.9378 18.2917 3.5L19.4898 3.50035Z" fill="#0D0F0F"/>
</svg>
