<svg width="35" height="35" viewBox="0 0 35 35" fill="none" xmlns="http://www.w3.org/2000/svg">
<path d="M17.5 34.9993C27.165 34.9993 35 27.1642 35 17.4993C35 7.83428 27.165 -0.000732422 17.5 -0.000732422C7.83502 -0.000732422 0 7.83428 0 17.4993C0 27.1642 7.83502 34.9993 17.5 34.9993Z" fill="#CAC5C0"/>
<path d="M12.3571 6.5216V24.1752C12.3571 26.2745 13.2555 27.3245 15.0496 27.3245H15.5064V28.5215H6.10327V27.3245H6.70772C8.43357 27.3245 9.29772 26.2745 9.29772 24.1752V12.5972C9.29772 10.4692 8.54347 9.4042 7.03427 9.4042H6.10327V8.2058H6.45887C8.29217 8.2058 9.94802 7.6444 11.4257 6.52125L12.3571 6.5216ZM15.7731 18.1864C15.7731 15.4364 16.3492 12.9077 17.5021 10.6026C18.9518 7.73505 20.9338 6.30005 23.4458 6.30005C25.8716 6.30005 27.7935 7.52785 29.2124 9.98065C30.366 11.9924 30.9431 14.314 30.9431 16.9449C30.9431 19.6956 30.3663 22.2086 29.2124 24.4857C27.763 27.2958 25.7974 28.7 23.3138 28.7C20.9191 28.7 19.0113 27.4873 17.5906 25.0618C16.3782 23.022 15.7731 20.7302 15.7731 18.1864ZM18.9658 16.8998C18.9658 19.2378 19.2171 21.3364 19.7204 23.1984C20.4893 26.0666 21.7451 27.5016 23.4902 27.5016C26.3291 27.5016 27.748 24.5452 27.748 18.6305C27.748 11.3264 26.2101 7.6752 23.1343 7.6752C20.3549 7.6752 18.9651 10.5119 18.9651 16.19L18.9658 16.8998Z" fill="#0D0F0F"/>
</svg>
