<svg width="35" height="35" viewBox="0 0 35 35" fill="none" xmlns="http://www.w3.org/2000/svg">
<path d="M17.5 34.9993C27.165 34.9993 35 27.1642 35 17.4993C35 7.83428 27.165 -0.000732422 17.5 -0.000732422C7.83502 -0.000732422 0 7.83428 0 17.4993C0 27.1642 7.83502 34.9993 17.5 34.9993Z" fill="#CAC5C0"/>
<path d="M13.9408 6.41187V24.2059C13.9408 26.323 14.8214 27.3804 16.5784 27.3804H17.0261V28.5875H7.54773V27.3804H8.17353C9.96168 27.3804 10.857 26.323 10.857 24.2059V12.5369C10.857 10.3903 10.0964 9.31862 8.57568 9.31862H7.63663V8.11147H7.99503C9.84303 8.11147 11.5115 7.54551 13.0014 6.41222L13.9408 6.41187ZM25.298 6.41187V24.2059C25.298 26.323 26.1768 27.3804 27.9359 27.3804H28.3832V28.5875H18.9031V27.3804H19.5289C21.3192 27.3804 22.2124 26.323 22.2124 24.2059V12.5369C22.2124 10.3903 21.4518 9.31862 19.9328 9.31862H18.9941V8.11147H19.3508C21.1988 8.11147 22.8672 7.54551 24.3593 6.41222L25.298 6.41187Z" fill="#0D0F0F"/>
</svg>
