<svg width="35" height="35" viewBox="0 0 35 35" fill="none" xmlns="http://www.w3.org/2000/svg">
<path d="M17.5 34.9993C27.165 34.9993 35 27.1642 35 17.4993C35 7.83428 27.165 -0.000732422 17.5 -0.000732422C7.83502 -0.000732422 0 7.83428 0 17.4993C0 27.1642 7.83502 34.9993 17.5 34.9993Z" fill="#CAC5C0"/>
<path d="M12.4705 6.7251V23.9381C12.4705 25.9943 13.3203 27.0237 15.0175 27.0237H15.4648V28.2294H6.30005V27.0237H6.8366C8.5649 27.0237 9.4287 25.9943 9.4287 23.9381V12.6261C9.4287 10.5418 8.71365 9.49745 7.2839 9.49745H6.3452V8.33475H6.70185C8.49 8.33475 10.1 7.7989 11.5301 6.72545L12.4705 6.7251ZM30.3083 22.9535L28.7435 28.2746H15.6433V27.1126C16.2708 26.3975 17.6554 24.966 19.802 22.8195C21.0826 21.5385 22.3654 20.1672 23.6478 18.7077C24.2736 17.9905 24.7646 17.3959 25.123 16.9174C25.8671 15.7862 26.2399 14.6547 26.2399 13.5214C26.2399 12.3881 25.8965 11.3892 25.2116 10.525C24.5259 9.6602 23.6159 9.2283 22.4847 9.2283C20.1289 9.2283 18.2805 10.8376 16.9397 14.0579L15.7773 13.6103C17.3877 9.13905 19.8906 6.9029 23.2887 6.9029C24.9572 6.9029 26.3887 7.47025 27.5804 8.60215C28.7718 9.73545 29.3686 11.1505 29.3686 12.8501C29.3686 15.0253 28.1316 17.1418 25.6592 19.1994L23.1105 21.255C21.4697 22.627 20.1142 23.9237 19.0407 25.1438C18.9518 25.2355 18.8024 25.399 18.5952 25.6373H25.4356C26.4782 25.6373 27.2528 25.4424 27.7607 25.0549C28.2664 24.6692 28.7288 23.9675 29.1453 22.9535H30.3083Z" fill="#0D0F0F"/>
</svg>
