<svg width="35" height="35" viewBox="0 0 35 35" fill="none" xmlns="http://www.w3.org/2000/svg">
<path d="M17.5 34.9993C27.165 34.9993 35 27.1642 35 17.4993C35 7.83428 27.165 -0.000732422 17.5 -0.000732422C7.83502 -0.000732422 0 7.83428 0 17.4993C0 27.1642 7.83502 34.9993 17.5 34.9993Z" fill="#CAC5C0"/>
<path d="M13.2885 6.92603V23.9161C13.2885 25.9135 14.1383 26.9103 15.8372 26.9103H16.2393V28.073H7.20862V26.9103H7.79067C9.51897 26.9103 10.3828 25.9135 10.3828 23.9161V12.7822C10.3828 10.7267 9.65162 9.69733 8.19247 9.69733H7.29717V8.53673H7.65557C9.41292 8.53673 10.9939 7.99948 12.3946 6.92603H13.2885ZM20.8894 18.1929L20.3529 17.2083L20.7564 16.984C22.0973 16.1513 23.3419 15.3092 24.4895 14.4587C25.6354 13.6096 26.2105 12.6492 26.2105 11.5754C26.2105 10.8303 25.9266 10.2111 25.361 9.72008C24.7951 9.22728 24.1675 8.98193 23.4836 8.98193C21.7536 8.98193 19.936 10.0256 18.0278 12.1127L17.1343 11.4414C19.1009 8.46078 21.5152 6.96943 24.3765 6.96943C25.6281 6.96943 26.6872 7.28268 27.551 7.90883C28.5646 8.59658 29.0721 9.53458 29.0721 10.7267C29.0721 11.5621 28.7137 12.3804 27.9986 13.184C27.5804 13.6317 26.8653 14.2428 25.8521 15.018L25.4499 15.3761C25.6284 15.3474 25.8521 15.3309 26.1212 15.3309C27.433 15.3309 28.5047 15.8314 29.3395 16.8279C30.1746 17.8261 30.5911 18.9674 30.5911 20.2477C30.5911 22.514 29.6377 24.3917 27.7291 25.8813C26.0008 27.3114 23.9887 28.0286 21.6951 28.0286C19.5773 28.0286 17.9239 27.5809 16.7321 26.686L17.3579 25.7924C18.7586 26.4473 20.0393 26.777 21.2016 26.777C22.8715 26.777 24.3618 26.2261 25.6732 25.1215C26.985 24.0197 27.6399 22.6477 27.6399 21.0083C27.6399 19.9058 27.3123 18.9678 26.6574 18.1925C26.0005 17.4173 25.1363 17.0298 24.0632 17.0298C23.1105 17.0302 22.0518 17.418 20.8894 18.1929Z" fill="#0D0F0F"/>
</svg>
