<svg width="35" height="35" viewBox="0 0 35 35" fill="none" xmlns="http://www.w3.org/2000/svg">
<path d="M17.5 34.9993C27.165 34.9993 35 27.1642 35 17.4993C35 7.83428 27.165 -0.000732422 17.5 -0.000732422C7.83502 -0.000732422 0 7.83428 0 17.4993C0 27.1642 7.83502 34.9993 17.5 34.9993Z" fill="#CAC5C0"/>
<path d="M12.7078 6.8147V23.9832C12.7078 26.0094 13.5573 27.0226 15.2544 27.0226H15.6583V28.1853H6.53662V27.0226H7.11867C8.84697 27.0226 9.71112 26.0094 9.71112 23.9832V12.7164C9.71112 10.6587 8.97962 9.6308 7.52047 9.6308H6.62552V8.4688H6.98357C8.74092 8.4688 10.3362 7.9179 11.7663 6.81505L12.7078 6.8147ZM27.7743 22.1051V23.8933C27.7743 25.8907 28.4729 26.8896 29.8753 26.8896H30.4556V28.0502H21.9163V26.8896H22.5876C23.9887 26.8896 24.689 25.9051 24.689 23.9391V22.1051H16.1042V20.317L25.1804 7.0821H27.7746V20.5844H27.9983C28.8628 20.5844 29.5029 19.9008 29.9194 18.5288H30.9925L30.456 22.1055L27.7743 22.1051ZM25.4037 20.317V9.05085L17.8031 20.317H25.4037Z" fill="#0D0F0F"/>
</svg>
