<svg width="35" height="35" viewBox="0 0 35 35" fill="none" xmlns="http://www.w3.org/2000/svg">
<g clip-path="url(#clip0_111_58)">
<path d="M35 17.4993C35 27.1645 27.1645 35 17.4993 35C7.83475 35 0 27.1645 0 17.4993C0 7.83475 7.83475 0 17.4993 0C27.1645 0 35 7.83475 35 17.4993Z" fill="#CAC5C0"/>
<path d="M12.1345 6.34521V24.1392C12.1345 26.255 13.0151 27.3137 14.7724 27.3137H15.2194V28.5195H5.74207V27.3137H6.36752C8.15567 27.3137 9.05062 26.255 9.05062 24.1392V12.4688C9.05062 10.3237 8.29042 9.25057 6.76932 9.25057H5.83062V8.04342H6.18867C8.03702 8.04342 9.70512 7.47746 11.1954 6.34521H12.1345ZM18.3942 6.79077H26.4866C27.531 6.79077 28.1564 6.67316 28.3657 6.43376H29.5284L28.8571 9.47456H18.977L18.0383 13.8552C19.4376 13.2892 20.6906 13.0054 21.7934 13.0054C23.94 13.0054 25.7502 13.7225 27.2254 15.1526C28.7007 16.582 29.4374 18.3702 29.4374 20.5174C29.4374 23.0206 28.4844 25.0317 26.5779 26.5535C24.7877 27.9535 22.6261 28.6549 20.0942 28.6549C18.6039 28.6549 17.1437 28.4306 15.7136 27.9836L16.1591 26.8668C17.3505 27.1937 18.4096 27.3575 19.3336 27.3575C21.182 27.3575 22.7993 26.7478 24.185 25.5256C25.5713 24.3034 26.2626 22.7816 26.2626 20.9647C26.2626 19.3855 25.7498 18.0881 24.7219 17.0752C23.6925 16.0619 22.4045 15.5548 20.854 15.5548C19.3938 15.5548 18.0383 16.0619 16.7853 17.0752L16.0265 16.9411L18.3942 6.79077Z" fill="#0D0F0F"/>
</g>
<defs>
<clipPath id="clip0_111_58">
<rect width="35" height="35" fill="white"/>
</clipPath>
</defs>
</svg>
