<svg width="35" height="35" viewBox="0 0 35 35" fill="none" xmlns="http://www.w3.org/2000/svg">
<path d="M17.5 34.9993C27.165 34.9993 35 27.1642 35 17.4993C35 7.83428 27.165 -0.000732422 17.5 -0.000732422C7.83502 -0.000732422 0 7.83428 0 17.4993C0 27.1642 7.83502 34.9993 17.5 34.9993Z" fill="#CAC5C0"/>
<path d="M11.7988 6.70311V23.9606C11.7988 26.0182 12.6493 27.0455 14.3486 27.0455H14.7504V28.2082H5.58459V27.0455H6.21074C7.93905 27.0455 8.80425 26.0179 8.80425 23.9606V12.6493C8.80425 10.5643 8.05909 9.51991 6.56879 9.51991H5.67314V8.35791H6.03119C7.81934 8.35791 9.43004 7.80631 10.8601 6.70346L11.7988 6.70311ZM23.2463 28.3419H20.1155V27.9849C20.1155 25.9874 20.7417 23.4692 21.9926 20.4298C23.9011 15.8976 25.6606 12.4106 27.2685 9.96721L27.4491 9.65396H20.1155C19.0424 9.65396 18.2301 9.87761 17.6792 10.3232C17.1283 10.7708 16.7016 11.5167 16.4034 12.5593H15.1977L16.5389 6.65796H17.3442C17.7898 6.86726 18.5965 6.97121 19.7585 6.97121H29.415V8.67046C29.058 9.17761 28.6111 9.98156 28.0738 11.0841C27.0294 13.1123 26.0764 15.4664 25.2122 18.1478C23.9298 22.143 23.275 25.5419 23.2463 28.3419Z" fill="#0D0F0F"/>
</svg>
