<svg width="35" height="35" viewBox="0 0 35 35" fill="none" xmlns="http://www.w3.org/2000/svg">
<path d="M17.5 34.9993C27.165 34.9993 35 27.1642 35 17.4993C35 7.83428 27.165 -0.000732422 17.5 -0.000732422C7.83502 -0.000732422 0 7.83428 0 17.4993C0 27.1642 7.83502 34.9993 17.5 34.9993Z" fill="#CAC5C0"/>
<path d="M12.5913 6.72485V24.0275C12.5913 26.0851 13.4411 27.1127 15.1397 27.1127H15.5873V28.2751H6.37671V27.1127H6.95911C8.71646 27.1127 9.59706 26.0848 9.59706 24.0275V12.6721C9.59706 10.5854 8.85051 9.5434 7.36091 9.5434H6.46596V8.3807H6.82401C8.61216 8.3807 10.2222 7.8298 11.6523 6.72555H12.5913V6.72485ZM20.5045 17.3652L20.0575 17.0086C18.6568 16.0552 17.7325 15.295 17.2869 14.729C16.7504 13.9832 16.4809 13.119 16.4809 12.1348C16.4809 10.4958 17.1809 9.1549 18.5816 8.11085C19.8332 7.1284 21.3256 6.63525 23.0535 6.63525C24.6635 6.63525 26.0936 7.0535 27.3452 7.88685C28.7165 8.842 29.4029 10.1083 29.4029 11.6872C29.4029 13.5954 28.0911 15.1308 25.4675 16.2932C28.4789 17.7541 29.9832 19.7953 29.9832 22.4185C29.9832 24.2959 29.2531 25.7859 27.7922 26.8884C26.5413 27.8729 24.9456 28.3636 23.0077 28.3636C21.16 28.3636 19.5808 27.9016 18.269 26.9773C16.75 25.935 15.9891 24.549 15.9891 22.8207C15.9891 21.0616 16.8081 19.6315 18.4486 18.5269C18.8658 18.2315 19.5514 17.8437 20.5045 17.3652ZM21.7561 17.8584C19.5808 18.8716 18.4927 20.4505 18.4927 22.5974C18.4927 23.969 18.9403 25.0789 19.8332 25.9283C20.7288 26.7781 21.8457 27.202 23.1883 27.202C24.4399 27.202 25.4969 26.8674 26.3628 26.1961C27.2269 25.5265 27.6581 24.5952 27.6581 23.4017C27.6581 21.5845 26.4954 20.1236 24.1704 19.0211L21.7561 17.8584ZM24.2155 15.7118C26.1535 14.8477 27.1209 13.567 27.1209 11.8681C27.1209 10.7058 26.7121 9.7667 25.8931 9.0499C25.0727 8.33485 24.0664 7.9782 22.875 7.9782C21.8905 7.9782 21.0123 8.2603 20.2371 8.8259C19.4604 9.3936 19.0751 10.1689 19.0751 11.1513C19.0751 12.3445 19.626 13.2979 20.7288 14.0129C20.9668 14.162 21.951 14.6387 23.6793 15.4448L24.2155 15.7118Z" fill="#0D0F0F"/>
</svg>
