<svg width="35" height="35" viewBox="0 0 35 35" fill="none" xmlns="http://www.w3.org/2000/svg">
<path d="M17.5 34.9993C27.165 34.9993 35 27.1642 35 17.4993C35 7.83428 27.165 -0.000732422 17.5 -0.000732422C7.83502 -0.000732422 0 7.83428 0 17.4993C0 27.1642 7.83502 34.9993 17.5 34.9993Z" fill="#CAC5C0"/>
<path d="M13.0067 6.50098V24.0727C13.0067 26.1594 13.8852 27.2014 15.6447 27.2014H16.0916V28.4092H6.70325V27.2014H7.3287C9.08815 27.2014 9.96665 26.1591 9.96665 24.0727V12.5371C9.96665 10.4213 9.2208 9.36258 7.7305 9.36258H6.7918V8.15648H7.14985C8.9674 8.15648 10.6211 7.60523 12.1128 6.50133L13.0067 6.50098ZM27.2692 19.0208C25.6298 20.571 23.9915 21.3459 22.3521 21.3459C20.5639 21.3459 19.1174 20.6147 18.0145 19.1538C17.0303 17.8732 16.5389 16.3083 16.5389 14.4603C16.5389 12.4625 17.1192 10.6744 18.2816 9.09518C19.5927 7.39628 21.2181 6.54683 23.1553 6.54683C25.5101 6.54683 27.3725 7.56008 28.7438 9.58693C30.0248 11.4059 30.6667 13.5363 30.6667 15.9797C30.6667 19.4982 29.5117 22.4561 27.202 24.8553C24.8913 27.2546 21.9937 28.4698 18.5059 28.4988V27.3365C19.579 27.2766 20.4288 27.1562 21.0543 26.9784C24.6026 25.9046 26.6725 23.2523 27.2692 19.0208ZM27.4936 16.8284C27.5223 16.3538 27.5387 15.9062 27.5387 15.4879C27.5387 13.7596 27.2405 12.1804 26.6438 10.7489C25.8391 8.87153 24.7065 7.93248 23.2449 7.93248C21.9646 7.93248 21.0238 8.57298 20.4292 9.85538C19.9213 10.898 19.6683 12.1206 19.6683 13.5213C19.6683 15.0403 19.907 16.3538 20.3833 17.4542C21.0095 18.9151 21.994 19.6466 23.3345 19.6466C24.9445 19.6466 26.3305 18.7079 27.4936 16.8284Z" fill="#0D0F0F"/>
</svg>
