<svg width="35" height="35" viewBox="0 0 35 35" fill="none" xmlns="http://www.w3.org/2000/svg">
<path d="M17.5 34.9993C27.165 34.9993 35 27.1642 35 17.4993C35 7.83428 27.165 -0.000732422 17.5 -0.000732422C7.83502 -0.000732422 0 7.83428 0 17.4993C0 27.1642 7.83502 34.9993 17.5 34.9993Z" fill="#CAC5C0"/>
<path d="M27.1047 24.5359L25.0411 31.5002H7.89423V30.0113C8.72723 29.0831 10.5525 27.211 13.3703 24.3928C15.0675 22.6946 16.7475 20.9026 18.4128 19.0129C19.2451 18.0851 19.8863 17.2832 20.3332 16.6112C21.3258 15.1713 21.8225 13.6992 21.8225 12.1928C21.8225 10.7214 21.3671 9.42364 20.4547 8.30364C19.5422 7.18224 18.3652 6.62084 16.9232 6.62084C13.8183 6.62084 11.3851 8.72014 9.62428 12.9138L8.08603 12.3374C10.1675 6.44724 13.4484 3.50024 17.9319 3.50024C20.1414 3.50024 22.0223 4.25239 23.5753 5.75704C25.1289 7.26204 25.9049 9.11844 25.9049 11.329C25.9049 14.1472 24.2889 16.9003 21.0546 19.5894L17.6932 22.374C15.5473 24.1684 13.769 25.8491 12.3623 27.4182C12.2643 27.5137 12.0732 27.7388 11.7859 28.0905H20.7182C22.0944 28.0905 23.1357 27.8189 23.8395 27.2733C24.4468 26.7931 25.0414 25.8803 25.6175 24.5359H27.1047Z" fill="#0D0F0F"/>
</svg>
