<svg width="35" height="35" viewBox="0 0 35 35" fill="none" xmlns="http://www.w3.org/2000/svg">
<path d="M17.5 34.9993C27.165 34.9993 35 27.1642 35 17.4993C35 7.83428 27.165 -0.000732422 17.5 -0.000732422C7.83502 -0.000732422 0 7.83428 0 17.4993C0 27.1642 7.83502 34.9993 17.5 34.9993Z" fill="#CAC5C0"/>
<path d="M18.6354 22.1431L17.0706 27.3738H4.19373V26.3C4.81988 25.5857 6.20623 24.1699 8.35278 22.0542C9.60438 20.7732 10.856 19.4306 12.1079 18.0299C12.7628 17.3152 13.2412 16.7037 13.5394 16.1959C14.3126 15.1228 14.7 14.0056 14.7 12.8436C14.7 11.7705 14.3507 10.809 13.6507 9.96026C12.95 9.11046 12.0621 8.68661 10.9907 8.68661C8.66568 8.68661 6.84673 10.2658 5.53493 13.426L4.32848 12.9783C5.90768 8.53716 8.38218 6.31676 11.7495 6.31676C13.4194 6.31676 14.8421 6.88201 16.0192 8.01566C17.1976 9.14896 17.7856 10.5497 17.7856 12.2178C17.7856 14.3356 16.5484 16.4055 14.0742 18.4324L11.571 20.5338C9.96103 21.9058 8.63488 23.1717 7.59258 24.3337C7.50298 24.3939 7.35388 24.5724 7.14493 24.871H13.8523C14.895 24.871 15.6842 24.6463 16.2211 24.1997C16.6688 23.8423 17.1161 23.1567 17.5616 22.1434L18.6354 22.1431ZM18.4569 17.4482C18.4569 14.8554 18.9935 12.4558 20.0669 10.2511C21.4676 7.50921 23.3597 6.13721 25.745 6.13721C28.0392 6.13721 29.8725 7.31426 31.2445 9.66871C32.3159 11.5773 32.8524 13.7819 32.8524 16.2851C32.8524 18.9084 32.3159 21.294 31.2445 23.4405C29.8417 26.1212 27.964 27.4624 25.6102 27.4624C23.3454 27.4624 21.5257 26.3165 20.1558 24.0198C19.0225 22.0829 18.4569 19.8926 18.4569 17.4482ZM21.497 16.2414C21.497 18.4775 21.735 20.475 22.2121 22.232C22.9264 24.976 24.1199 26.3459 25.7887 26.3459C28.5005 26.3459 29.8582 23.5294 29.8582 17.8948C29.8582 10.92 28.3822 7.43291 25.4321 7.43291C22.8085 7.43291 21.4974 10.1447 21.4974 15.5697L21.497 16.2414Z" fill="#0D0F0F"/>
</svg>
