<svg width="35" height="35" viewBox="0 0 35 35" fill="none" xmlns="http://www.w3.org/2000/svg">
<path d="M17.5 34.9993C27.165 34.9993 35 27.1642 35 17.4993C35 7.83428 27.165 -0.000732422 17.5 -0.000732422C7.83502 -0.000732422 0 7.83428 0 17.4993C0 27.1642 7.83502 34.9993 17.5 34.9993Z" fill="#CAC5C0"/>
<path d="M13.8464 18.3966L13.1401 17.0767L13.608 16.7943C15.4189 15.6935 17.0741 14.5788 18.5742 13.4472C20.0736 12.316 20.8236 11.027 20.8236 9.58041C20.8236 8.60811 20.4635 7.79121 19.7439 7.13111C19.0225 6.46891 18.1787 6.13921 17.2085 6.13921C14.9548 6.13921 12.5766 7.53956 10.0713 10.3361L8.89736 9.44041C11.5059 5.47981 14.6955 3.49951 18.4667 3.49951C20.1317 3.49951 21.545 3.90831 22.7094 4.72556C24.0293 5.63801 24.6887 6.87911 24.6887 8.45026C24.6887 9.58041 24.2165 10.6812 23.275 11.7494C22.7402 12.3787 21.7959 13.1956 20.446 14.2008L19.8804 14.6253C20.1317 14.5942 20.4306 14.5784 20.7764 14.5784C22.5043 14.5784 23.9257 15.2389 25.0422 16.5584C26.158 17.8782 26.7162 19.4179 26.7162 21.177C26.7162 24.1632 25.458 26.6604 22.9453 28.6726C20.6189 30.558 17.9316 31.4995 14.8841 31.4995C12.0873 31.4995 9.88751 30.8877 8.28381 29.6624L9.13396 28.4825C11.0194 29.3953 12.7316 29.85 14.2723 29.85C16.5029 29.85 18.4902 29.1118 20.2335 27.6345C21.9793 26.1575 22.8498 24.3203 22.8498 22.1202C22.8498 20.674 22.4105 19.441 21.5303 18.4186C20.6497 17.3984 19.5027 16.8877 18.0891 16.8877C16.7997 16.8884 15.386 17.3907 13.8464 18.3966Z" fill="#0D0F0F"/>
</svg>
