<svg width="35" height="35" viewBox="0 0 35 35" fill="none" xmlns="http://www.w3.org/2000/svg">
<path d="M17.5 34.9993C27.165 34.9993 35 27.1642 35 17.4993C35 7.83428 27.165 -0.000732422 17.5 -0.000732422C7.83502 -0.000732422 0 7.83428 0 17.4993C0 27.1642 7.83502 34.9993 17.5 34.9993Z" fill="#CAC5C0"/>
<path d="M22.4945 23.5755V25.9286C22.4945 28.618 23.4378 29.9623 25.3274 29.9623H26.1429V31.5002H14.7126V29.9623H15.6251C17.4811 29.9623 18.4114 28.633 18.4114 25.9751V23.5755H6.93317V21.1742L19.0355 3.50024H22.4945V21.5574H22.7815C23.9656 21.5574 24.8297 20.6446 25.3743 18.8218H26.8146L26.1426 23.5759L22.4945 23.5755ZM18.4114 21.5574V7.04714L8.64887 21.5574H18.4114Z" fill="#0D0F0F"/>
</svg>
