<svg width="35" height="35" viewBox="0 0 35 35" fill="none" xmlns="http://www.w3.org/2000/svg">
<path d="M17.5 34.9993C27.165 34.9993 35 27.1642 35 17.4993C35 7.83428 27.165 -0.000732422 17.5 -0.000732422C7.83502 -0.000732422 0 7.83428 0 17.4993C0 27.1642 7.83502 34.9993 17.5 34.9993Z" fill="#CAC5C0"/>
<path d="M12.235 3.9732H22.3643C23.6782 3.9732 24.4601 3.8157 24.7104 3.5H26.165L25.3173 7.32375H12.9574L11.7646 12.8499C13.559 12.1254 15.1484 11.7635 16.5333 11.7635C19.2385 11.7635 21.5208 12.6689 23.379 14.4788C25.2357 16.2886 26.1653 18.5465 26.1653 21.2537C26.1653 24.4023 24.9526 26.9367 22.5274 28.8564C20.2927 30.6201 17.5707 31.5 14.3591 31.5C12.4709 31.5 10.6281 31.2172 8.83435 30.6509L9.4003 29.2348C10.9123 29.6439 12.2497 29.8476 13.4145 29.8476C15.7434 29.8476 17.7814 29.0846 19.53 27.5572C21.2765 26.0319 22.1508 24.1181 22.1508 21.82C22.1508 19.8373 21.5054 18.208 20.2143 16.9344C18.9231 15.6583 17.2865 15.0206 15.3027 15.0206C13.4782 15.0206 11.7782 15.6506 10.2039 16.9092L9.25855 16.7209L12.235 3.9732Z" fill="#0D0F0F"/>
</svg>
