<svg width="35" height="35" viewBox="0 0 35 35" fill="none" xmlns="http://www.w3.org/2000/svg">
<path d="M17.5 34.9993C27.165 34.9993 35 27.1642 35 17.4993C35 7.83428 27.165 -0.000732422 17.5 -0.000732422C7.83502 -0.000732422 0 7.83428 0 17.4993C0 27.1642 7.83502 34.9993 17.5 34.9993Z" fill="#CAC5C0"/>
<path d="M12.803 15.6361C14.8799 13.6842 16.9715 12.7087 19.0817 12.7087C21.3791 12.7087 23.2215 13.6208 24.6071 15.4461C25.8958 17.1156 26.5423 19.1284 26.5423 21.4906C26.5423 24.0722 25.787 26.3377 24.276 28.2893C22.6072 30.4292 20.53 31.5002 18.0436 31.5002C15.0521 31.5002 12.6602 30.2087 10.8672 27.6282C9.26068 25.3612 8.45813 22.6697 8.45813 19.5533C8.45813 16.2493 9.37058 13.204 11.1965 10.418C13.0211 7.63266 15.4609 5.65726 18.5136 4.49316C20.2451 3.83236 22.0724 3.49951 23.9911 3.49951V4.96391C19.8993 5.18476 16.8462 6.82171 14.8302 9.87476C13.7949 11.4501 13.117 13.3688 12.803 15.6361ZM12.5188 18.4683C12.4887 19.0346 12.4723 19.6016 12.4723 20.1683C12.4723 22.3393 12.8496 24.3543 13.6049 26.2124C14.5796 28.6351 16.0139 29.8472 17.9025 29.8472C19.5384 29.8472 20.7655 29.0138 21.5845 27.3443C22.2135 26.0549 22.5285 24.4971 22.5285 22.6701C22.5285 20.7202 22.2285 19.0504 21.6314 17.6654C20.8124 15.7768 19.5538 14.8332 17.8539 14.8332C15.7773 14.8329 13.9979 16.0456 12.5188 18.4683Z" fill="#0D0F0F"/>
</svg>
