<svg width="35" height="35" viewBox="0 0 35 35" fill="none" xmlns="http://www.w3.org/2000/svg">
<path d="M17.5 34.9993C27.165 34.9993 35 27.1642 35 17.4993C35 7.83428 27.165 -0.000732422 17.5 -0.000732422C7.83502 -0.000732422 0 7.83428 0 17.4993C0 27.1642 7.83502 34.9993 17.5 34.9993Z" fill="#CAC5C0"/>
<path d="M18.7228 31.4999H14.6478V31.0666C14.6478 28.478 15.4626 25.2359 17.0908 21.3338C19.553 15.4541 21.8228 10.9482 23.8993 7.81539L24.187 7.38419H14.6474C13.2719 7.38419 12.2254 7.67084 11.5062 8.24624C10.7855 8.82199 10.2525 9.7817 9.90109 11.1239H8.31909L10.0432 3.50024H11.0515C11.6584 3.82014 12.7112 3.98009 14.2159 3.98009H26.679V6.13784C26.2328 6.77799 25.6577 7.80034 24.9549 9.20664C23.6116 11.8264 22.3817 14.8794 21.2614 18.3637C19.6013 23.5094 18.7543 27.8868 18.7228 31.4999Z" fill="#0D0F0F"/>
</svg>
