<svg width="35" height="35" viewBox="0 0 35 35" fill="none" xmlns="http://www.w3.org/2000/svg">
<path d="M17.5 34.9993C27.165 34.9993 35 27.1642 35 17.4993C35 7.83428 27.165 -0.000732422 17.5 -0.000732422C7.83502 -0.000732422 0 7.83428 0 17.4993C0 27.1642 7.83502 34.9993 17.5 34.9993Z" fill="#CAC5C0"/>
<path d="M14.3378 17.3121L13.7267 16.8882C11.935 15.6625 10.7545 14.6727 10.1892 13.917C9.46615 12.9752 9.10565 11.8765 9.10565 10.6179C9.10565 8.4812 10.0006 6.7375 11.7929 5.3858C13.4582 4.1293 15.3913 3.5 17.5917 3.5C19.6644 3.5 21.5047 4.05055 23.1063 5.14955C24.9274 6.3756 25.8409 7.994 25.8409 10.0062C25.8409 12.4576 24.1266 14.4371 20.7022 15.9446C24.598 17.8304 26.5468 20.454 26.5468 23.8168C26.5468 26.2367 25.6207 28.153 23.7647 29.5687C22.1011 30.8574 20.0095 31.5 17.4965 31.5C15.1396 31.5 13.1128 30.9039 11.4146 29.7083C9.4658 28.3587 8.4928 26.5667 8.4928 24.3362C8.4928 22.1056 9.52985 20.2657 11.6039 18.8198C12.1695 18.4439 13.082 17.9414 14.3378 17.3121ZM15.938 17.9812C13.11 19.2682 11.6991 21.2943 11.6991 24.0576C11.6991 25.8471 12.2714 27.2839 13.4197 28.3675C14.5667 29.4515 16.036 29.9925 17.8276 29.9925C19.4285 29.9925 20.789 29.5613 21.9037 28.6993C23.0188 27.8369 23.5771 26.6375 23.5771 25.1013C23.5771 22.7822 22.0486 20.9009 18.9928 19.4586L15.938 17.9812ZM19.0988 15.1907C21.5796 14.0913 22.8232 12.4418 22.8232 10.2421C22.8232 8.7325 22.2961 7.52395 21.2447 6.6108C20.1905 5.69975 18.8944 5.2437 17.3551 5.2437C16.0657 5.2437 14.951 5.59055 14.0081 6.2811C12.9703 7.035 12.453 8.0416 12.453 9.2981C12.453 10.8381 13.1751 12.0799 14.6213 13.0231C14.903 13.2111 16.1599 13.8232 18.3925 14.8606L19.0988 15.1907Z" fill="#0D0F0F"/>
</svg>
