<svg width="35" height="35" viewBox="0 0 35 35" fill="none" xmlns="http://www.w3.org/2000/svg">
<path d="M17.5 34.9993C27.165 34.9993 35 27.1642 35 17.4993C35 7.83428 27.165 -0.000732422 17.5 -0.000732422C7.83502 -0.000732422 0 7.83428 0 17.4993C0 27.1642 7.83502 34.9993 17.5 34.9993Z" fill="#CAC5C0"/>
<path d="M22.1907 19.4334C20.118 21.3818 18.0264 22.3569 15.9222 22.3569C13.628 22.3569 11.7891 21.4455 10.4069 19.622C9.11753 17.9567 8.47388 15.9446 8.47388 13.5877C8.47388 11.0425 9.22708 8.76575 10.7352 6.7536C12.3704 4.58395 14.4295 3.5 16.912 3.5C19.9297 3.5 22.3332 4.8048 24.1238 7.41335C25.7275 9.70725 26.5272 12.425 26.5272 15.5691C26.5272 20.0302 25.0488 23.7933 22.098 26.859C19.1436 29.9222 15.4504 31.4699 11.0194 31.5003V30.0391C12.3701 29.9775 13.453 29.82 14.2734 29.5687C18.7961 28.1859 21.4375 24.8083 22.1907 19.4334ZM22.4753 16.6047C22.5054 16.0076 22.5204 15.442 22.5204 14.9086C22.5204 12.7089 22.1445 10.6967 21.3899 8.8746C20.3837 6.454 18.9399 5.2437 17.0548 5.2437C15.4182 5.2437 14.2111 6.07845 13.4236 7.74305C12.7946 9.0321 12.4817 10.5872 12.4817 12.41C12.4817 14.3581 12.7799 16.0233 13.3774 17.4062C14.1936 19.2916 15.4515 20.2352 17.1493 20.2352C19.2213 20.2352 20.9958 19.025 22.4753 16.6047Z" fill="#0D0F0F"/>
</svg>
