<svg width="35" height="35" viewBox="0 0 35 35" fill="none" xmlns="http://www.w3.org/2000/svg">
<g clip-path="url(#clip0_124_94)">
<path d="M17.5 34.9995C27.165 34.9995 35 27.1645 35 17.4995C35 7.83453 27.165 -0.000488281 17.5 -0.000488281C7.83502 -0.000488281 0 7.83453 0 17.4995C0 27.1645 7.83502 34.9995 17.5 34.9995Z" fill="#CAC5C0"/>
<path d="M10.4671 29.0389C9.35619 28.7396 8.10529 28.544 7.51099 28.5769L6.4806 28.6339L6.61114 27.9395C6.69269 27.5045 6.52435 26.347 6.15965 24.8371C4.93535 19.7677 5.69065 16.5264 9.08145 12.3036C10.9249 10.0076 12.2314 9.61388 14.386 10.7041C16.0111 11.5259 19.2752 14.3196 21.428 16.7304C25.5318 21.3259 26.0123 23.176 23.6698 25.3597C21.8116 27.0922 19.2584 28.5835 17.0079 29.2517C15.3314 29.7494 12.7974 29.6671 10.4671 29.0389ZM9.11014 18.898C10.1374 16.8064 11.9745 14.8184 13.623 14.0144C14.7808 13.4499 14.8774 13.1254 14.0756 12.4944C12.9192 11.5847 11.4061 12.1374 9.92529 14.0109C7.78924 16.7129 6.7319 20.389 7.2891 23.1753C7.41685 23.8151 7.45815 23.7469 7.82215 22.2926C8.03915 21.426 8.61874 19.8986 9.11014 18.898ZM25.8839 23.5054C26.3487 22.3931 26.2657 21.7179 25.4705 20.1391C23.4255 16.0791 17.7425 10.5897 14.2201 9.27263C13.0088 8.81938 12.8705 8.80923 11.9658 9.10743C11.0026 9.42453 11.0019 9.42418 11.0019 8.91038C11.0019 8.27198 11.6669 6.93988 12.2489 6.41383C13.2902 5.47233 15.5564 5.15663 17.1762 5.72783C17.6596 5.89828 18.8513 6.52058 19.8243 7.11033C21.5799 8.17433 21.6058 8.18238 23.2099 8.12288C24.0989 8.08963 24.9434 7.99023 25.0866 7.90168C25.2301 7.81278 25.7481 7.19363 26.2374 6.52548C27.5149 4.78143 27.7581 4.68623 28.0098 5.83178C28.085 6.17443 28.4466 6.90803 28.8137 7.46208L29.4808 8.46938L28.8543 8.92298C27.3049 10.0437 27.0977 10.3681 26.9738 11.8665L26.8565 13.2875L28.1253 15.3948C29.5935 17.8329 29.9453 19.095 29.6264 20.7775C29.5088 21.3977 29.3163 22.0847 29.1987 22.3042C28.848 22.9597 27.7322 23.7882 26.8828 24.0241C25.606 24.3786 25.5346 24.3415 25.8839 23.5054Z" fill="black"/>
</g>
<defs>
<clipPath id="clip0_124_94">
<rect width="35" height="35" fill="white"/>
</clipPath>
</defs>
</svg>
