<svg width="35" height="35" viewBox="0 0 35 35" fill="none" xmlns="http://www.w3.org/2000/svg">
<g clip-path="url(#clip0_111_24)">
<path d="M17.5 35C27.165 35 35 27.165 35 17.5C35 7.83502 27.165 0 17.5 0C7.83502 0 0 7.83502 0 17.5C0 27.165 7.83502 35 17.5 35Z" fill="#CBC2BF"/>
<path d="M31.745 17.0158C31.745 18.9466 31.045 20.2649 29.6392 20.9649C29.2308 21.1691 27.9417 21.4491 25.7775 21.7991C24.3717 22.0324 23.6717 22.5749 23.6717 23.4208V26.9733C23.6717 27.1191 23.7183 27.5741 23.8058 28.3324L23.94 29.7383C23.94 30.1758 23.835 30.8933 23.6308 31.8908C23.0767 32.0074 22.4292 32.1416 21.7 32.2874C21.4667 31.4066 21.35 30.8116 21.35 30.4849C21.35 30.3391 21.385 30.1174 21.4608 29.8258C21.5308 29.5341 21.5717 29.3124 21.5717 29.1666C21.5717 28.9624 21.3908 28.3908 21.0233 27.4574H20.3408C20.2533 27.6033 20.2183 27.7958 20.2475 28.0291C20.3642 28.5249 20.4108 28.9508 20.3817 29.3008C19.8858 29.6508 19.1975 30.1233 18.3167 30.7066C18.1125 30.6483 18.0367 30.6191 18.095 30.6191V27.5041C18.0367 27.3583 17.8908 27.2999 17.6575 27.3291H17.1325L16.6075 31.4533C16.1992 31.4824 15.6975 31.4824 15.1142 31.4533C14.91 30.4908 14.5425 29.0558 14.0175 27.1541H13.6675C13.3467 28.1808 13.1717 28.7349 13.1425 28.8224C13.1425 28.9391 13.1775 29.1666 13.2533 29.5049C13.3233 29.8433 13.3642 30.0708 13.3642 30.1874C13.3642 30.2749 13.335 30.4966 13.2767 30.8466L13.1425 31.9024C13.0842 31.9608 13.0083 31.9899 12.9208 31.9899C12.0458 31.9899 11.4567 31.7683 11.165 31.3308C10.8733 30.8933 10.7567 30.2749 10.815 29.4874L11.165 24.2199C11.165 24.1324 11.1942 24.0158 11.2525 23.8699C11.3108 23.7241 11.34 23.6191 11.34 23.5608C11.34 23.3274 11.0892 22.8608 10.5933 22.1549C10.5058 22.1258 10.0508 22.0208 9.23416 21.8458C8.73833 21.7291 7.75833 21.5249 6.29416 21.2333C4.27583 20.8541 3.26666 19.2324 3.26666 16.3624C3.26666 12.0924 5.0225 8.5341 8.53416 5.6991C8.67999 6.4866 8.93083 7.54243 9.28083 8.86076C9.54333 8.9191 10.115 9.05326 10.99 9.25743C11.165 9.31576 12.0575 9.6366 13.6675 10.2258C12.845 9.72993 11.7775 8.92493 10.465 7.81076C9.96916 7.22743 9.71833 6.24743 9.71833 4.87076C9.71833 4.54993 10.2725 4.17076 11.3867 3.72743C12.3783 3.3191 13.1308 3.08576 13.6267 3.02743C15.2075 2.82326 16.4208 2.71826 17.2725 2.71826C20.93 2.71826 23.8875 3.65743 26.1392 5.52993C25.41 6.3816 24.15 7.28576 22.365 8.24826C23.0708 8.27743 24.0917 8.00326 25.4392 7.4141C26.7867 6.83076 27.3583 6.5391 27.1483 6.5391C27.3817 6.5391 27.8542 7.00576 28.5542 7.94493C29.0792 8.64493 29.505 9.27493 29.8258 9.83493C30.7592 11.5033 31.3892 13.3058 31.7158 15.2366C31.7158 15.9133 31.7275 16.3916 31.7625 16.6833V17.0333L31.745 17.0158ZM14.9333 17.8033C14.9333 16.5433 14.385 15.3533 13.2883 14.2274C12.1917 13.1016 11.0133 12.5358 9.75333 12.5358C8.63916 12.5358 7.65916 13.0083 6.81333 13.9474C5.96166 14.8924 5.54166 15.9366 5.54166 17.0858C5.54166 18.0891 6.02583 18.7366 6.98833 19.0283C7.60083 19.2033 8.46416 19.3083 9.57833 19.3374H11.9933C13.9533 19.3666 14.9333 18.8533 14.9333 17.8033ZM19.7167 23.2458V21.8866C19.5125 21.5074 19.3083 21.1108 19.1042 20.7024C18.9292 20.1191 18.6083 19.2966 18.1358 18.2466L17.6517 23.3799C17.6517 23.7883 17.5642 23.9924 17.3892 23.9924C17.2725 23.9924 17.185 23.9633 17.1267 23.9049C16.9225 20.8016 16.8175 19.4599 16.8175 19.8683V18.3341C16.7592 18.2466 16.6892 18.1999 16.6017 18.1999C15.6042 19.2266 15.1083 20.8774 15.1083 23.1583C15.1083 24.4183 15.225 25.1941 15.4583 25.4858C15.6917 25.4274 15.9542 25.3224 16.2458 25.1766C16.3625 25.1183 16.7008 25.0891 17.255 25.0891C17.8092 25.0891 18.4858 25.2641 19.2733 25.6141C19.565 25.6141 19.7108 24.8266 19.7108 23.2458M29.6333 17.1324C29.6333 15.9541 29.1958 14.9041 28.315 13.9766C27.4342 13.0491 26.425 12.5883 25.2875 12.5883C24.0567 12.5883 22.9075 13.1483 21.84 14.2799C20.7725 15.4058 20.2358 16.5841 20.2358 17.8149C20.2358 18.8416 20.7317 19.3491 21.7292 19.3491H26.775C28.6767 19.3199 29.6275 18.5849 29.6275 17.1383" fill="#130C0E"/>
</g>
<defs>
<clipPath id="clip0_111_24">
<rect width="35" height="35" fill="white"/>
</clipPath>
</defs>
</svg>
