<svg width="35" height="35" viewBox="0 0 35 35" fill="none" xmlns="http://www.w3.org/2000/svg">
<g clip-path="url(#clip0_121_2)">
<path d="M35 17.5C35 27.1631 27.1663 35 17.5 35C7.8337 35 0 27.1631 0 17.5C0 7.83685 7.8337 0 17.5 0C27.1663 0 35 7.83685 35 17.5Z" fill="#CAC5C0"/>
<path d="M17.3903 4.20898C18.2565 5.94778 19.3167 7.63653 20.5739 9.27523C21.1087 9.96333 21.7215 10.6826 22.4128 11.4267C23.0946 12.1708 23.8513 12.9152 24.6706 13.6471C25.4963 14.3789 26.4 15.073 27.3852 15.7299C28.3705 16.3865 29.4302 16.9871 30.5688 17.5251C28.8958 18.4197 27.2382 19.5078 25.5901 20.7962C24.9055 21.3341 24.189 21.9533 23.4386 22.6599C22.6945 23.3606 21.9627 24.1299 21.2466 24.9615C20.5305 25.8057 19.8424 26.7129 19.1826 27.701C18.5257 28.6831 17.9286 29.7275 17.3906 30.8345C16.5524 29.1895 15.508 27.5634 14.2539 25.9499C13.178 24.5741 11.8179 23.1293 10.1729 21.6029C8.53105 20.0769 6.54235 18.7196 4.2124 17.5251C5.88855 16.6557 7.54615 15.5801 9.1908 14.2977C10.595 13.1907 12.043 11.8085 13.5347 10.1509C15.0292 8.49333 16.3112 6.51688 17.3903 4.20898ZM15.4639 22.7222C16.2426 23.7106 16.8835 24.7113 17.3903 25.7245C18.05 24.3172 18.8414 23.11 19.7636 22.0968C20.6894 21.0772 21.5899 20.2267 22.4562 19.5386C23.4411 18.7693 24.4701 18.0938 25.5491 17.5184C24.1138 16.8678 22.894 16.0736 21.8965 15.1479C20.8927 14.2221 20.0482 13.3279 19.3636 12.4585C18.5848 11.4767 17.9251 10.432 17.3903 9.32493C16.7337 10.7571 15.9455 11.9832 15.0386 12.9964C14.1255 14.016 13.2375 14.8602 12.3709 15.5546C11.3829 16.3302 10.3539 16.9805 9.27795 17.5247C10.7133 18.2692 11.9362 19.1071 12.9526 20.0328C13.969 20.9586 14.8073 21.8591 15.4639 22.7222Z" fill="black"/>
</g>
<defs>
<clipPath id="clip0_121_2">
<rect width="35" height="35" fill="white"/>
</clipPath>
</defs>
</svg>
