<svg width="35" height="35" viewBox="0 0 35 35" fill="none" xmlns="http://www.w3.org/2000/svg">
<g clip-path="url(#clip0_124_90)">
<path d="M7.13588 0.34668C17.989 2.36178 22.821 1.99064 27.2887 0.34668C27.2887 0.34668 28.7902 14.9223 34.6414 22.0255C34.6414 22.0255 24.2323 24.9725 17.4461 34.9541C17.4461 34.9541 10.8016 25.5928 0.343475 21.8589C3.61769 17.312 6.64245 8.31802 7.13622 0.34668H7.13588Z" fill="black" stroke="white"/>
<path d="M13.1325 3.6375C13.0601 3.04978 15.4395 5.19898 22.2065 3.43408C22.2065 3.43408 17.3205 7.56374 16.7732 14.2817C16.7732 14.2817 22.0603 15.48 26.9754 13.9043C26.9754 13.9043 19.6199 23.4776 17.7265 32.0492C17.7265 32.0492 15.6659 27.3363 17.7968 19.3892C17.7968 19.3892 15.2645 17.6333 6.23514 19.9402C6.23514 19.9402 14.0168 10.8184 13.1325 3.63784V3.6375Z" fill="white" stroke="white"/>
</g>
<defs>
<clipPath id="clip0_124_90">
<rect width="35" height="35" fill="white"/>
</clipPath>
</defs>
</svg>
