<svg width="35" height="35" viewBox="0 0 35 35" fill="none" xmlns="http://www.w3.org/2000/svg">
<g clip-path="url(#clip0_111_30)">
<path d="M17.5 35C27.165 35 35 27.165 35 17.5C35 7.83502 27.165 0 17.5 0C7.83502 0 0 7.83502 0 17.5C0 27.165 7.83502 35 17.5 35Z" fill="#9BD3AE"/>
<path d="M32.8183 19.6817C32.8183 20.265 32.5908 20.79 32.1417 21.2567C31.6925 21.7233 31.1733 21.9567 30.59 21.9567C29.6567 21.9567 28.9742 21.5192 28.5367 20.6442L26.4833 20.5567C26.0458 20.5567 25.1825 20.7492 23.905 21.1283C22.5342 21.5075 21.7467 21.8108 21.5425 22.0442C21.2217 22.3942 20.9592 23.2108 20.755 24.4942C20.58 25.5442 20.4925 26.3142 20.4925 26.81C20.4925 27.5975 20.615 28.175 20.8658 28.5367C21.1167 28.8983 21.6242 29.2075 22.3942 29.4525C23.1642 29.6975 23.6425 29.8375 23.8175 29.8667C23.9342 29.8667 24.1208 29.855 24.3892 29.8258H24.9142C25.2933 29.8258 25.6842 29.8842 26.0925 30.0008C26.6758 30.1758 26.9267 30.4092 26.8392 30.7008C26.4308 30.6425 25.7192 30.73 24.6983 30.9633L25.9233 31.5758C25.9233 31.9258 25.4275 32.1008 24.4358 32.1008C24.1733 32.1008 23.8175 32.0425 23.3625 31.9258C22.9133 31.8092 22.61 31.7508 22.4642 31.7508H21.8983C21.8692 32.0425 21.7817 32.48 21.6358 33.0633C21.14 33.0342 20.5567 32.7425 19.8858 32.1883C19.215 31.6342 18.795 31.36 18.62 31.36C18.445 31.36 18.1942 31.64 17.8792 32.1883C17.5583 32.7425 17.4008 33.1217 17.4008 33.3258C17.0217 33.1217 16.7008 32.7425 16.4383 32.1883C16.3217 31.8092 16.1933 31.43 16.0475 31.0508C15.7558 31.08 15.2192 31.6925 14.4317 32.8883H14.21C14.1517 32.8008 13.93 32.1883 13.5567 31.0508C12.6525 30.7592 11.8067 30.6133 11.0192 30.6133C10.64 30.6133 10.0567 30.7008 9.26917 30.8758L8.04417 30.7883C8.21917 30.6133 8.72667 30.2808 9.57251 29.785C10.5642 29.2017 11.3225 28.91 11.8475 28.91C11.935 28.91 12.0517 28.9275 12.1975 28.9567C12.3433 28.9858 12.46 29.0033 12.5475 29.0033C12.7517 29.0033 13.0783 28.8925 13.5333 28.6767C13.9825 28.4608 14.245 28.2625 14.3208 28.0875C14.3967 27.9125 14.4317 27.4575 14.4317 26.7342C14.4317 25.0717 13.9942 23.835 13.1192 23.0183C12.3608 22.2892 11.1067 21.7642 9.35667 21.4433C8.89001 23.1058 7.57751 23.9342 5.42501 23.9342C4.72501 23.9342 4.02501 23.5142 3.32501 22.6683C2.60751 21.805 2.25751 21.035 2.25751 20.335C2.25751 19.2558 2.70667 18.3692 3.61084 17.6692C2.88167 16.9108 2.52001 16.1408 2.52001 15.3533C2.52001 14.6242 2.74751 13.9825 3.19667 13.4283C3.64584 12.8742 4.24084 12.5533 4.97001 12.4658C4.91167 11.5325 5.21501 10.8908 5.88584 10.5408C5.56501 10.22 5.40751 9.65416 5.40751 8.83749C5.40751 7.87499 5.72834 7.07582 6.37001 6.43416C7.01167 5.79249 7.81084 5.47166 8.77334 5.47166C9.82334 5.47166 10.6808 5.83916 11.3517 6.56832C12.1975 3.68082 14.0175 2.23999 16.8175 2.23999C18.2758 2.23999 19.5592 2.82332 20.6675 3.98999C21.0758 4.42749 21.28 4.66082 21.28 4.68999C20.93 4.68999 21.105 4.62582 21.805 4.49166C22.505 4.36332 23.0125 4.29332 23.3333 4.29332C24.4708 4.29332 25.4742 4.71332 26.3492 5.55916C27.1075 6.31749 27.6325 7.27999 27.9242 8.44666C28.1283 8.47582 28.4492 8.56332 28.8867 8.70916C29.5283 9.02999 29.8492 9.58416 29.8492 10.3717C29.8492 10.5175 29.7325 10.7975 29.4992 11.2C31.3658 12.25 32.2992 13.7083 32.2992 15.575C32.2992 16.1 32.095 16.8292 31.6867 17.7625C32.445 18.2 32.8242 18.8417 32.8242 19.6875M14.8108 21.6125V21.0467C14.8108 20.3758 14.4842 19.7633 13.825 19.2092C13.1717 18.655 12.5067 18.3808 11.8358 18.3808C11.0192 18.3808 10.2608 18.5675 9.56084 18.9467C11.1067 18.8592 12.8567 19.7517 14.805 21.6125M14.0175 16.1933C13.58 15.6975 13.2008 15.19 12.88 14.665C11.655 14.9858 11.0425 15.3475 11.0425 15.7558C11.3925 15.7267 11.9 15.7908 12.5708 15.9542C13.2417 16.1175 13.72 16.1933 14.0175 16.1933ZM16.6833 14.84V12.915C15.9833 12.7983 15.5575 12.74 15.4175 12.74V13.3933L16.6833 14.8342M22.365 13.6092C22.015 13.4633 21.3617 13.1717 20.3992 12.7342V16.4967C21.77 15.7092 22.4233 14.7467 22.365 13.6092ZM24.7683 18.7717L23.8058 17.5933C23.2225 18.0017 22.6333 18.4158 22.0325 18.8417C21.4317 19.2617 20.9183 19.74 20.4808 20.265C21.7933 19.565 23.2225 19.0692 24.7625 18.7775" fill="#00160B"/>
</g>
<defs>
<clipPath id="clip0_111_30">
<rect width="35" height="35" fill="white"/>
</clipPath>
</defs>
</svg>
