<svg width="35" height="35" viewBox="0 0 35 35" fill="none" xmlns="http://www.w3.org/2000/svg">
<g clip-path="url(#clip0_124_86)">
<path d="M17.5 34.9995C27.165 34.9995 35 27.1645 35 17.4995C35 7.83453 27.165 -0.000488281 17.5 -0.000488281C7.83502 -0.000488281 0 7.83453 0 17.4995C0 27.1645 7.83502 34.9995 17.5 34.9995Z" fill="#0D0F0F"/>
<path d="M27.6307 8.49694L23.2039 11.0932C25.3599 14.4413 26.4373 17.5353 26.4373 20.3724C26.4373 22.6992 25.7481 24.5644 24.374 25.9682C22.9957 27.3745 21.1473 28.0763 18.8191 28.0763C14.9296 28.0763 10.5175 26.0473 5.58075 21.9894L9.11365 18.4975C12.4932 21.5635 15.6691 23.0947 18.6497 23.0947C19.727 23.0947 20.4722 22.8973 20.8824 22.5001C21.2954 22.1021 21.5005 21.3647 21.5005 20.2874C21.5005 18.1307 20.847 16.2288 19.5426 14.5841L16.394 19.0092V6.92334L27.6307 8.49694Z" fill="white"/>
</g>
<defs>
<clipPath id="clip0_124_86">
<rect width="35" height="35" fill="white"/>
</clipPath>
</defs>
</svg>
