<svg width="35" height="35" viewBox="0 0 35 35" fill="none" xmlns="http://www.w3.org/2000/svg">
<g clip-path="url(#clip0_111_27)">
<path d="M17.5 35C27.165 35 35 27.165 35 17.5C35 7.83502 27.165 0 17.5 0C7.83502 0 0 7.83502 0 17.5C0 27.165 7.83502 35 17.5 35Z" fill="#F9AA8F"/>
<path d="M32.1883 23.3159C30.8816 26.4368 28.28 27.9943 24.395 27.9943C23.6833 27.9943 22.9075 28.0818 22.0791 28.2626C20.8308 28.5309 20.2066 28.9043 20.2066 29.3768C20.2066 29.5226 20.3116 29.6976 20.5158 29.8901C20.7258 30.0826 20.9008 30.1818 21.0525 30.1818C20.3116 30.1818 20.8133 30.2051 22.5691 30.2459C24.325 30.2926 25.4216 30.3101 25.865 30.3101C23.2808 31.8268 18.9583 32.5209 12.8975 32.4043C10.9083 32.3751 9.19914 31.5001 7.77581 29.7734C6.37581 28.1401 5.68164 26.3143 5.68164 24.2959C5.68164 22.1609 6.39914 20.3409 7.84581 18.8359C9.28664 17.3368 11.0775 16.5843 13.2125 16.5843C13.685 16.5843 14.3208 16.6893 15.1083 16.8934C15.8958 17.1034 16.4208 17.2026 16.6891 17.2026C17.7858 17.2026 19.1566 16.7476 20.79 15.8434C22.4233 14.9393 23.1991 14.4843 23.1058 14.4843C22.8083 17.6051 21.77 19.6993 19.985 20.7668C18.7075 21.5076 18.0716 22.2368 18.0716 22.9484C18.0716 23.3918 18.34 23.7534 18.8708 24.0159C19.285 24.2259 19.7458 24.3309 20.2533 24.3309C21.0233 24.3309 21.7816 23.8584 22.5283 22.9076C23.2691 21.9568 23.5958 21.0934 23.5083 20.3234C23.4208 19.4309 23.4791 18.3634 23.6891 17.1151C23.7475 16.7593 23.9633 16.3218 24.3366 15.8026C24.71 15.2834 25.0425 14.9626 25.34 14.8459C25.34 15.1143 25.2466 15.5576 25.0483 16.1818C24.8558 16.8059 24.7566 17.2668 24.7566 17.5643C24.7566 18.2176 24.9316 18.7251 25.2933 19.0809C25.83 18.8709 26.3025 18.2059 26.7166 17.0743C27.0725 16.2109 27.2825 15.3826 27.3408 14.5776C26.0925 14.5193 24.8966 13.9534 23.7533 12.8859C22.61 11.8184 22.0383 10.6576 22.0383 9.40927C22.0383 9.19927 22.0675 8.9951 22.1258 8.7851C22.3008 9.05343 22.5691 9.4676 22.925 10.0334C23.4325 10.7743 23.8175 11.1476 24.0858 11.1476C24.4416 11.1476 24.6225 10.7743 24.6225 10.0334C24.6225 9.0826 24.3716 8.21927 23.8641 7.44927C23.2983 6.5276 22.5691 6.06677 21.6825 6.06677C21.2683 6.06677 20.6441 6.28843 19.81 6.7376C18.9758 7.18093 18.2175 7.40843 17.535 7.40843C17.325 7.40843 16.4033 7.1401 14.77 6.60343C17.6516 6.13093 19.0925 5.69927 19.0925 5.31427C19.0925 4.3051 17.115 3.6226 13.1658 3.26677C12.7808 3.2376 12.0691 3.17927 11.025 3.08593C11.1416 2.9401 11.9875 2.77677 13.5625 2.59593C14.8983 2.4501 15.8375 2.37427 16.3683 2.37427C23.4383 2.37427 27.9241 5.80427 29.8258 12.6701C30.1525 12.4018 30.3158 11.9468 30.3158 11.3168C30.3158 10.5059 30.0766 9.47927 29.6041 8.2426C29.4233 7.76427 29.1433 7.04093 28.7583 6.0726C31.1908 9.17593 32.41 12.1159 32.41 14.8926C32.41 16.3568 32.0658 17.6809 31.3833 18.8768C30.94 19.6818 30.1058 20.7143 28.8866 21.9684C27.6675 23.2226 26.8391 24.1909 26.39 24.8793C28.0233 24.4359 29.0966 24.0918 29.5983 23.8526C30.7241 23.3509 31.7508 22.5926 32.6725 21.5776C32.6725 21.9626 32.5091 22.5459 32.1825 23.3159M12.7633 5.80427C12.7633 6.34093 12.4658 6.67927 11.8708 6.83093L10.71 7.01177C10.2958 7.22177 9.68331 8.03843 8.88414 9.46177C8.79664 9.01843 8.66247 8.39427 8.48164 7.58927C8.21331 7.61843 7.76997 7.8576 7.14581 8.30093C6.87747 8.51093 6.44581 8.8201 5.85081 9.23427C6.03164 8.16677 6.62081 7.08177 7.63581 5.97927C8.70331 4.7601 9.74747 4.15343 10.7566 4.15343C12.0925 4.15343 12.7633 4.70177 12.7633 5.80427ZM20.5158 9.9051C20.5158 10.4126 20.2416 10.8326 19.6933 11.1768C19.145 11.5209 18.6025 11.6901 18.0658 11.6901C17.3541 11.6901 16.7125 11.2876 16.1525 10.4884C15.47 9.50843 14.77 8.8726 14.0583 8.56927C14.2041 8.42343 14.385 8.3476 14.595 8.3476C14.8633 8.3476 15.3125 8.5576 15.9541 8.97177C16.59 9.38593 16.9983 9.59593 17.1791 9.59593C17.325 9.59593 17.57 9.38593 17.9141 8.97177C18.2583 8.5576 18.6316 8.3476 19.0516 8.3476C20.0316 8.3476 20.5216 8.86677 20.5216 9.9051" fill="#200000"/>
</g>
<defs>
<clipPath id="clip0_111_27">
<rect width="35" height="35" fill="white"/>
</clipPath>
</defs>
</svg>
