<svg width="35" height="35" viewBox="0 0 35 35" fill="none" xmlns="http://www.w3.org/2000/svg">
<g clip-path="url(#clip0_124_82)">
<path d="M17.5 34.9995C27.165 34.9995 35 27.1645 35 17.4995C35 7.83453 27.165 -0.000488281 17.5 -0.000488281C7.83502 -0.000488281 0 7.83453 0 17.4995C0 27.1645 7.83502 34.9995 17.5 34.9995Z" fill="#CAC5C0"/>
<path d="M29.8662 20.6215H17.2648L21.8795 17.3375C20.1652 15.977 18.1814 15.2977 15.9351 15.2977C14.8113 15.2977 14.0402 15.5122 13.6286 15.9403C13.2142 16.3697 13.0067 17.146 13.0067 18.2692C13.0067 21.3747 14.6037 24.6882 17.7985 28.2078L14.1617 31.8901C9.93018 26.7434 7.81653 22.1447 7.81653 18.0917C7.81653 15.6669 8.54663 13.7353 10.011 12.301C11.474 10.8667 13.4221 10.1492 15.8448 10.1492C18.8034 10.1492 22.0272 11.2744 25.5192 13.5214L28.224 8.90771L29.8662 20.6215Z" fill="#0D0F0F"/>
</g>
<defs>
<clipPath id="clip0_124_82">
<rect width="35" height="35" fill="white"/>
</clipPath>
</defs>
</svg>
