<svg width="35" height="35" viewBox="0 0 35 35" fill="none" xmlns="http://www.w3.org/2000/svg">
<g clip-path="url(#clip0_111_21)">
<path d="M17.5 35C27.165 35 35 27.165 35 17.5C35 7.83502 27.165 0 17.5 0C7.83502 0 0 7.83502 0 17.5C0 27.165 7.83502 35 17.5 35Z" fill="#AAE0FA"/>
<path d="M23.6204 29.3019C21.9449 31.007 19.8812 31.8593 17.4294 31.8593C14.6779 31.8593 12.495 30.9178 10.8804 29.0337C9.35495 27.2392 8.59253 24.952 8.59253 22.1713C8.59253 19.1812 9.89348 15.771 12.495 11.9432C14.6172 8.80403 17.1144 6.05268 19.9856 3.69019C19.5667 5.60433 19.3581 6.96443 19.3581 7.77188C19.3581 9.62653 19.9405 11.4353 21.1067 13.1998C22.5424 15.2928 23.6331 16.8491 24.3815 17.8646C25.5477 19.6298 26.1308 21.3488 26.1308 23.0224C26.1309 25.505 25.2939 27.5981 23.6201 29.302M23.575 19.7254C23.1266 18.7238 22.603 18.0587 22.0049 17.7293C22.0945 17.9092 22.1396 18.1633 22.1396 18.4923C22.1396 19.1205 21.9604 20.0171 21.601 21.1832L21.0186 22.9776C21.0186 24.0241 21.5408 24.5477 22.588 24.5477C23.694 24.5477 24.2477 23.8145 24.2477 22.3494C24.2477 21.6025 24.0237 20.7282 23.575 19.7251" fill="#061922"/>
</g>
<defs>
<clipPath id="clip0_111_21">
<rect width="35" height="35" fill="white"/>
</clipPath>
</defs>
</svg>
