<svg width="36" height="36" viewBox="0 0 36 36" fill="none" xmlns="http://www.w3.org/2000/svg">
<g clip-path="url(#clip0_19_1026)">
<path d="M18 36C27.9411 36 36 27.9411 36 18C36 8.05887 27.9411 0 18 0C8.05887 0 0 8.05887 0 18C0 27.9411 8.05887 36 18 36Z" fill="#FFFBD5"/>
<path d="M35.1719 20.5441C32.8079 19.2121 31.2959 18.5461 30.6299 18.5461C30.1439 18.5461 29.7659 18.9181 29.4959 19.6621C29.2259 20.4061 28.6799 20.7721 27.8639 20.7721C27.5279 20.7721 26.8499 20.6521 25.8179 20.4121C25.2419 21.2881 24.9539 21.8521 24.9539 22.0921C24.9539 22.4281 25.1999 22.8181 25.6979 23.2741C26.1959 23.7301 26.6099 23.9521 26.9519 23.9521C27.1679 23.9521 27.4619 23.9101 27.8339 23.8141C28.2059 23.7241 28.4519 23.6761 28.5779 23.6761C28.9499 23.6761 29.1359 24.3601 29.1359 25.7221C29.1359 27.0241 28.8359 29.0221 28.2299 31.7161C27.4439 28.6261 26.6099 27.0841 25.7339 27.0841C25.6139 27.0841 25.3619 27.1741 24.9839 27.3601C24.6059 27.5401 24.3239 27.6301 24.1439 27.6301C23.2679 27.6301 22.4819 26.8261 21.7799 25.2241C20.3879 25.4341 19.6919 26.1481 19.6919 27.3601C19.6919 27.9661 19.9739 28.4521 20.5319 28.8121C21.0899 29.1781 21.3719 29.4361 21.3719 29.5861C21.3719 30.4021 20.1779 31.6621 17.7839 33.3541C16.5119 34.2601 15.6359 34.8961 15.1499 35.2621C15.5699 34.7161 15.9959 34.0081 16.4219 33.1261C16.9079 32.1301 17.1479 31.3561 17.1479 30.8101C17.1479 30.5101 16.7999 30.0841 16.1039 29.5381C15.4079 28.9921 15.0599 28.4161 15.0599 27.8101C15.0599 27.2941 15.2399 26.6581 15.6059 25.9021C15.2099 25.4461 14.7419 25.2181 14.1959 25.2181C12.9839 25.2181 12.3779 25.6141 12.3779 26.4001C12.3779 25.8541 12.3779 26.2621 12.3779 27.6241C12.4079 28.6261 11.6519 29.1241 10.1039 29.1241C8.92194 29.1241 6.94195 28.8481 4.15195 28.3081C7.30195 27.5221 8.87394 26.6101 8.87394 25.5841C8.87394 25.7041 8.81394 25.3441 8.69394 24.4921C8.57394 23.5561 9.23994 22.7041 10.6919 21.9481C10.4219 20.5561 9.69594 19.8601 8.51395 19.8601C8.33394 19.8601 7.99795 20.1781 7.51795 20.8141C7.03195 21.4501 6.58195 21.7681 6.15595 21.7681C5.42995 21.7681 4.48795 20.9821 3.34195 19.4041C2.79595 18.6181 1.96195 17.4541 0.845947 15.9061C1.54195 16.2721 2.23795 16.6321 2.93395 16.9981C3.83995 17.4241 4.57195 17.6341 5.11195 17.6341C5.53795 17.6341 5.95195 17.2621 6.35995 16.5181C6.76795 15.7741 7.30795 15.4021 7.97395 15.4021C8.06394 15.4021 8.66994 15.5821 9.79194 15.9481C10.3679 15.0721 10.6559 14.4181 10.6559 13.9921C10.6559 13.6261 10.4339 13.2121 9.99594 12.7441C9.55795 12.2761 9.15594 12.0421 8.78994 12.0421C8.63994 12.0421 8.40595 12.0901 8.08795 12.1801C7.76995 12.2701 7.53595 12.3181 7.38595 12.3181C6.83995 12.3181 6.56995 11.6341 6.56995 10.2721C6.56995 9.90614 6.91795 7.83614 7.61395 4.05014C7.58395 4.50614 7.78195 5.35214 8.20195 6.59414C8.71795 8.10614 9.32395 8.86814 10.0199 8.86814C10.1399 8.86814 10.3859 8.77814 10.7459 8.59814C11.1119 8.41814 11.3939 8.32814 11.6099 8.32814C12.3059 8.32814 12.8819 8.72414 13.3379 9.51014L14.0219 10.7341C14.6579 10.7341 15.1859 10.5061 15.6119 10.0561C16.0379 9.60014 16.2479 9.05414 16.2479 8.41814C16.2479 7.75214 15.9659 7.24214 15.4079 6.89414C14.8439 6.54614 14.5679 6.28214 14.5679 6.10214C14.5679 5.46614 15.5699 4.39214 17.5679 2.88014C19.1699 1.66814 20.2199 0.960141 20.6999 0.744141C19.3979 2.50214 18.7439 3.78614 18.7439 4.60214C18.7439 5.02814 19.0019 5.47814 19.5179 5.96414C20.1539 6.54014 20.5199 6.94814 20.6099 7.18814C20.9099 7.88414 20.8799 8.83814 20.5199 10.0501C21.3359 10.6261 21.9599 10.9141 22.3799 10.9141C23.2559 10.9141 23.6939 10.4581 23.6939 9.55214C23.6939 9.46214 23.6579 9.17414 23.5799 8.68814C23.5019 8.20214 23.4839 7.93214 23.5139 7.87214C23.6339 7.44614 24.4679 7.23614 26.0099 7.23614C26.9819 7.23614 28.9919 7.50614 32.0519 8.05214C31.3859 8.23214 30.3839 8.50814 29.0519 8.86814C27.8399 9.23414 27.2339 9.64214 27.2339 10.0921C27.2339 10.3021 27.3119 10.6681 27.4619 11.1841C27.6119 11.7001 27.6899 12.0781 27.6899 12.3181C27.6899 12.7441 27.4199 13.1341 26.8739 13.5001L25.3319 14.5921C25.6979 15.2581 25.9379 15.6541 26.0579 15.7741C26.3579 16.1401 26.7719 16.3201 27.2819 16.3201C27.6479 16.3201 27.9779 16.0021 28.2839 15.3661C28.5839 14.7301 29.0699 14.4121 29.7359 14.4121C30.5519 14.4121 31.4759 15.1681 32.5079 16.6861C33.0839 17.5381 33.9779 18.8221 35.1839 20.5501M25.1039 17.9161C25.1039 15.9781 24.3899 14.2981 22.9679 12.8761C21.5459 11.4541 19.8659 10.7401 17.9279 10.7401C15.9599 10.7401 14.2619 11.4421 12.8399 12.8521C11.4179 14.2621 10.6919 15.9481 10.6619 17.9161C10.6319 19.8541 11.3519 21.5281 12.8219 22.9321C14.2919 24.3421 15.9959 25.0441 17.9339 25.0441C19.9919 25.0441 21.7139 24.3721 23.0879 23.0221C24.4679 21.6781 25.1399 19.9741 25.1099 17.9161M24.4259 17.9161C24.4259 19.7641 23.8079 21.2941 22.5659 22.5001C21.3239 23.7121 19.7819 24.3181 17.9339 24.3181C16.1459 24.3181 14.6159 23.7001 13.3499 22.4581C12.0779 21.2161 11.4419 19.7041 11.4419 17.9161C11.4419 16.1581 12.0839 14.6521 13.3739 13.3981C14.6639 12.1441 16.1819 11.5141 17.9399 11.5141C19.6979 11.5141 21.2159 12.1501 22.5059 13.4221C23.7899 14.6941 24.4379 16.1941 24.4379 17.9161" fill="#211D15"/>
</g>
<defs>
<clipPath id="clip0_19_1026">
<rect width="36" height="36" fill="white"/>
</clipPath>
</defs>
</svg>
