<svg width="35" height="35" viewBox="0 0 35 35" fill="none" xmlns="http://www.w3.org/2000/svg">
<g clip-path="url(#clip0_111_98)">
<path d="M35 17.4993C35 27.1645 27.1659 35 17.5 35C7.83545 35 0 27.1645 0 17.4993C0 7.83475 7.83545 0 17.5 0C27.1659 0 35 7.83475 35 17.4993Z" fill="#CAC5C0"/>
<path d="M19.8243 28.0001V26.8461C21.4704 26.6638 22.295 26.1857 22.295 25.4174C22.295 24.8637 22.0748 24.31 21.6359 23.7563L17.0831 18.1528L13.4876 22.3917C12.5881 23.4322 12.1355 24.2929 12.1355 24.9656C12.1355 26.0072 12.9594 26.6354 14.61 26.851V28.0001H5.84218V26.8496C6.95238 26.6365 7.89563 26.2364 8.67788 25.654C9.21653 25.226 9.95083 24.4742 10.8776 23.4007L16.2848 17.1305L10.0313 9.5495C9.22108 8.57055 8.58898 7.92795 8.14098 7.621C7.53758 7.19225 6.69863 6.9168 5.61993 6.79465V5.6001H15.9586V6.74985C14.4 7.0568 13.622 7.53175 13.622 8.17575C13.622 8.60625 13.8299 9.08085 14.2495 9.60095L18.3851 14.6136L21.7129 10.5218C22.3118 9.7854 22.6124 9.14245 22.6124 8.5898C22.6124 7.66965 21.8757 7.0708 20.4071 6.79465V5.6001H28.6363V6.75195C27.917 6.9056 27.4207 7.04385 27.1558 7.16775C26.2563 7.5979 24.8822 8.8719 23.0268 10.9897C22.7286 11.3289 21.4683 12.8773 19.2507 15.6395L25.8926 23.8165C27.3322 25.5938 28.7994 26.6064 30.2977 26.8496V28.0001H19.8243Z" fill="#0D0F0F"/>
</g>
<defs>
<clipPath id="clip0_111_98">
<rect width="35" height="35" fill="white"/>
</clipPath>
</defs>
</svg>
