<svg width="25" height="25" viewBox="0 0 25 25" fill="none" xmlns="http://www.w3.org/2000/svg">
<g clip-path="url(#clip0_114_155)">
<path opacity="0.954" fill-rule="evenodd" clip-rule="evenodd" d="M11.6758 0.00242864C17.2314 -0.0873331 21.2899 2.31108 23.8514 7.19776C25.6207 11.3879 25.3459 15.4353 23.0272 19.3399C20.0691 23.5513 16.0105 25.4125 10.8516 24.9238C6.46512 24.2315 3.25578 21.9205 1.22346 17.9908C-0.627886 13.7618 -0.378133 9.66441 1.97273 5.69873C4.31164 2.2862 7.54594 0.387409 11.6758 0.00242864ZM11.376 2.02612C15.956 1.77428 19.4152 3.59807 21.7534 7.49757C23.7097 11.5884 23.3601 15.4608 20.7044 19.115C17.6889 22.5354 13.9551 23.6971 9.50288 22.6003C5.22261 21.1163 2.73758 18.1307 2.04765 13.6436C1.75941 9.0603 3.57017 5.6001 7.47985 3.26281C8.71802 2.6291 10.0167 2.21687 11.376 2.02612Z" fill="black"/>
<path opacity="0.976" fill-rule="evenodd" clip-rule="evenodd" d="M6.50794 11.0072C10.5027 10.988 14.4974 11.0072 18.4921 11.0648C18.9794 11.5839 19.1161 12.3321 18.902 13.3093C18.7972 13.5875 18.6605 13.7985 18.4921 13.9424C14.4974 14.0192 10.5026 14.0192 6.50794 13.9424C6.02062 13.4233 5.88394 12.6751 6.09795 11.6978C6.21868 11.4267 6.35536 11.1964 6.50794 11.0072Z" fill="black"/>
</g>
<defs>
<clipPath id="clip0_114_155">
<rect width="25" height="25" fill="white"/>
</clipPath>
</defs>
</svg>
