<svg width="35" height="35" viewBox="0 0 35 35" fill="none" xmlns="http://www.w3.org/2000/svg">
<g clip-path="url(#clip0_124_36)">
<path d="M29.8721 5.12305C33.0403 8.2909 35 12.6659 35 17.499C35 27.1646 27.1649 35.0001 17.4996 35.0001C12.6675 35.0001 8.29288 33.0415 5.12573 29.874" fill="#BAB1AB"/>
<path d="M5.1261 29.874C1.95895 26.7076 0 22.3319 0 17.4994C0 7.83489 7.8351 0.000488281 17.4996 0.000488281C22.331 0.000488281 26.7053 1.95804 29.8721 5.12344" fill="#CAC5C0"/>
<path d="M15.2761 14.5569L14.273 17.9439H5.93567V17.2201C6.34062 16.7686 7.22787 15.8582 8.59812 14.4883C9.42307 13.6627 10.2403 12.7905 11.0499 11.8717C11.4548 11.4209 11.7667 11.0314 11.9833 10.7041C12.466 10.0045 12.7078 9.28804 12.7078 8.55584C12.7078 7.84009 12.4863 7.20904 12.0425 6.66514C11.599 6.11879 11.0264 5.84649 10.3257 5.84649C8.81617 5.84649 7.63282 6.86709 6.77672 8.90654L6.02877 8.62549C7.04062 5.76144 8.63557 4.32959 10.8161 4.32959C11.8902 4.32959 12.8048 4.69499 13.5597 5.42649C14.3154 6.15869 14.6923 7.06099 14.6923 8.13584C14.6923 9.50609 13.9066 10.8438 12.334 12.1524L10.7002 13.5062C9.65687 14.3784 8.79167 15.1957 8.10812 15.958C8.06052 16.0059 7.96742 16.1141 7.82742 16.2856H12.1709C12.8401 16.2856 13.3466 16.1536 13.6882 15.889C13.9839 15.6545 14.2727 15.2111 14.5527 14.5569H15.2761ZM31.367 23.0966C31.367 24.0419 31.0233 24.687 30.3356 25.0303C30.1347 25.1308 29.5047 25.2676 28.4442 25.4384C27.7571 25.5539 27.4131 25.8185 27.4131 26.2333V27.9738C27.4131 28.047 27.4351 28.2685 27.4775 28.6406L27.5422 29.3287C27.5422 29.5432 27.4918 29.8946 27.3914 30.3815C27.1194 30.4385 26.8041 30.5033 26.446 30.5757C26.3312 30.1452 26.2742 29.8516 26.2742 29.6937C26.2742 29.6227 26.2917 29.5145 26.3277 29.3714C26.3634 29.2286 26.3816 29.1208 26.3816 29.0487C26.3816 28.9493 26.2931 28.6696 26.1149 28.2108H25.7814C25.7373 28.2825 25.7229 28.3756 25.7369 28.4897C25.7943 28.7337 25.8157 28.9409 25.8017 29.1131C25.5577 29.2849 25.2217 29.5142 24.7919 29.8008C24.6908 29.7721 24.6558 29.7578 24.6841 29.7578V28.2321C24.6558 28.1611 24.5844 28.1324 24.4692 28.146H24.2113L23.9533 30.1659C23.7528 30.1802 23.5095 30.1802 23.2232 30.1659C23.1228 29.693 22.9436 28.992 22.686 28.0599H22.5134C22.3559 28.5615 22.2702 28.8338 22.2555 28.8768C22.2555 28.9339 22.2737 29.0445 22.3097 29.2097C22.3451 29.3749 22.3633 29.4851 22.3633 29.5425C22.3633 29.5852 22.3486 29.693 22.3195 29.8649L22.2551 30.3811C22.2261 30.4088 22.1911 30.4231 22.148 30.4231C21.7182 30.4231 21.4312 30.3157 21.2888 30.1015C21.1446 29.8862 21.0872 29.5852 21.1162 29.1985L21.2888 26.6207C21.2888 26.5777 21.3024 26.5203 21.3311 26.4485C21.3598 26.3775 21.3742 26.3267 21.3742 26.2987C21.3742 26.1839 21.2524 25.9543 21.0091 25.6099C20.9661 25.5959 20.7442 25.5452 20.3427 25.4591C20.0995 25.4024 19.6193 25.3019 18.9035 25.1591C17.9148 24.9733 17.4202 24.1781 17.4202 22.7742C17.4202 20.6819 18.2802 18.9421 19.9987 17.5522C20.0701 17.9393 20.1926 18.4545 20.3644 19.0992L21.2023 19.2931C21.2888 19.3215 21.7252 19.4793 22.5131 19.766C22.1123 19.5227 21.5891 19.1297 20.9451 18.5847C20.7011 18.2984 20.579 17.8179 20.579 17.1452C20.579 16.9866 20.8513 16.8015 21.3962 16.5852C21.8831 16.385 22.2481 16.2716 22.4921 16.2422C23.2652 16.1424 23.8599 16.0917 24.2757 16.0917C26.0659 16.0917 27.5132 16.5505 28.616 17.4679C28.2583 17.8837 27.642 18.3264 26.7684 18.8C27.1121 18.8143 27.6136 18.6785 28.2727 18.3912C28.9314 18.1059 29.2107 17.9614 29.1106 17.9614C29.225 17.9614 29.4546 18.191 29.7983 18.6491C30.0556 18.9928 30.2635 19.3012 30.4213 19.5731C30.8798 20.3897 31.1878 21.2717 31.3457 22.2163C31.3457 22.546 31.3527 22.7823 31.367 22.9251V23.0966ZM23.1364 23.4844C23.1364 22.868 22.868 22.2842 22.3311 21.7323C21.7935 21.1807 21.2163 20.9052 20.6007 20.9052C20.0564 20.9052 19.5769 21.1362 19.1611 21.5975C18.7457 22.0592 18.5381 22.5712 18.5381 23.134C18.5381 23.624 18.7744 23.9422 19.2472 24.0857C19.5482 24.1725 19.9703 24.2229 20.5146 24.2376H21.6965C22.6566 24.2498 23.1364 23.9989 23.1364 23.4844ZM25.479 26.1486V25.4832C25.3789 25.2967 25.2784 25.1024 25.1787 24.9022C25.0926 24.6163 24.9347 24.2152 24.7058 23.6986L24.4692 26.213C24.4692 26.4146 24.4265 26.5143 24.3401 26.5143C24.283 26.5143 24.2396 26.5003 24.2113 26.4713C24.1108 24.953 24.0611 24.2936 24.0611 24.4952V23.7434C24.0321 23.6993 23.9964 23.6776 23.9533 23.6776C23.4665 24.1805 23.2232 24.9894 23.2232 26.1059C23.2232 26.7222 23.2803 27.1016 23.3947 27.2458C23.5099 27.2168 23.638 27.1664 23.7822 27.095C23.8392 27.0659 24.0037 27.0519 24.276 27.0519C24.5473 27.0519 24.878 27.1377 25.2641 27.3092C25.4076 27.3081 25.479 26.9224 25.479 26.1486ZM30.3356 23.154C30.3356 22.5779 30.1207 22.0623 29.6909 21.6077C29.2611 21.1537 28.7669 20.9269 28.209 20.9269C27.607 20.9269 27.0442 21.2024 26.5216 21.7533C25.9984 22.3049 25.7369 22.8817 25.7369 23.484C25.7369 23.9852 25.9809 24.2355 26.4677 24.2355H28.9384C29.8701 24.2215 30.3356 23.8617 30.3356 23.154Z" fill="#0D0F0F"/>
</g>
<defs>
<clipPath id="clip0_124_36">
<rect width="35" height="35" fill="white"/>
</clipPath>
</defs>
</svg>
