<svg width="35" height="35" viewBox="0 0 35 35" fill="none" xmlns="http://www.w3.org/2000/svg">
<g clip-path="url(#clip0_124_26)">
<path d="M29.8721 5.12305C33.0403 8.2909 35 12.6659 35 17.499C35 27.1646 27.1645 35.0001 17.5 35.0001C12.6675 35.0001 8.29325 33.0415 5.1261 29.874" fill="#A3C095"/>
<path d="M5.1261 29.874C1.95895 26.7076 0 22.3319 0 17.4994C0 7.83489 7.83545 0.000488281 17.5 0.000488281C22.3314 0.000488281 26.7053 1.95804 29.8721 5.12344" fill="#CAC5C0"/>
<path d="M15.2761 14.5569L14.273 17.9439H5.93567V17.2201C6.34062 16.7686 7.22787 15.8582 8.59812 14.4883C9.42307 13.6627 10.2403 12.7905 11.0499 11.8717C11.4548 11.4209 11.7667 11.0314 11.9833 10.7041C12.466 10.0045 12.7078 9.28804 12.7078 8.55584C12.7078 7.84009 12.4863 7.20904 12.0425 6.66514C11.599 6.11879 11.0264 5.84649 10.3257 5.84649C8.81617 5.84649 7.63282 6.86709 6.77672 8.90654L6.02877 8.62549C7.04062 5.76144 8.63557 4.32959 10.8161 4.32959C11.8902 4.32959 12.8048 4.69499 13.5597 5.42649C14.3154 6.15869 14.6923 7.06099 14.6923 8.13584C14.6923 9.50609 13.9066 10.8438 12.334 12.1524L10.7002 13.5062C9.65687 14.3784 8.79167 15.1957 8.10812 15.958C8.06052 16.0059 7.96742 16.1141 7.82742 16.2856H12.1709C12.8401 16.2856 13.3466 16.1536 13.6882 15.889C13.9839 15.6545 14.2727 15.2111 14.5527 14.5569H15.2761ZM31.3313 23.6664C31.3313 23.9317 31.2288 24.1693 31.0237 24.3814C30.8186 24.5928 30.5837 24.6982 30.3184 24.6982C29.8956 24.6982 29.5841 24.5001 29.3864 24.1028L28.4529 24.0636C28.2541 24.0636 27.8635 24.1497 27.2818 24.3216C26.6599 24.4931 26.3025 24.6324 26.2098 24.7377C26.0645 24.897 25.9455 25.2676 25.8524 25.85C25.7726 26.3264 25.7338 26.6771 25.7338 26.9021C25.7338 27.2591 25.7898 27.5209 25.9021 27.6861C26.0145 27.8517 26.2465 27.9903 26.5965 28.1023C26.9465 28.2136 27.1621 28.278 27.2419 28.2909C27.2948 28.2909 27.3805 28.2846 27.4999 28.271H27.7382C27.9101 28.271 28.0889 28.2976 28.2748 28.3504C28.539 28.4299 28.6521 28.5349 28.6125 28.6679C28.4267 28.642 28.1029 28.6812 27.6399 28.7869L28.195 29.0651C28.195 29.224 27.9703 29.3028 27.5202 29.3028C27.4005 29.3028 27.2384 29.2776 27.034 29.224C26.8286 29.1701 26.6928 29.1439 26.627 29.1439H26.369C26.3554 29.2765 26.3162 29.4739 26.25 29.7392C26.0243 29.7263 25.76 29.5936 25.4555 29.3427C25.151 29.0907 24.9592 28.965 24.8805 28.965C24.8007 28.965 24.688 29.0907 24.5427 29.3427C24.3968 29.5936 24.324 29.7651 24.324 29.8589C24.1521 29.7651 24.0072 29.5936 23.8868 29.3427C23.834 29.1694 23.7745 28.9976 23.7087 28.825C23.5764 28.8387 23.3317 29.1176 22.9744 29.6598H22.875C22.848 29.6202 22.7486 29.3427 22.5764 28.825C22.1662 28.6938 21.783 28.628 21.4256 28.628C21.2538 28.628 20.9885 28.6672 20.6308 28.7473L20.0757 28.7078C20.1544 28.628 20.3865 28.4761 20.7701 28.251C21.2198 27.9857 21.5642 27.8531 21.8022 27.8531C21.8414 27.8531 21.8943 27.8604 21.9611 27.8737C22.0269 27.8874 22.0801 27.894 22.12 27.894C22.2117 27.894 22.3615 27.8443 22.5666 27.7446C22.7717 27.6455 22.8907 27.5559 22.9229 27.4765C22.9572 27.3963 22.9737 27.1919 22.9737 26.8608C22.9737 26.1073 22.7749 25.5438 22.3776 25.1742C22.0332 24.8434 21.4648 24.6054 20.671 24.4591C20.4593 25.213 19.8636 25.591 18.8846 25.591C18.5665 25.591 18.2494 25.3989 17.9316 25.0149C17.6148 24.6306 17.4552 24.2803 17.4552 23.9628C17.4552 23.4728 17.6603 23.0696 18.0705 22.7518C17.7401 22.4085 17.5746 22.0578 17.5746 21.6997C17.5746 21.3693 17.6768 21.0781 17.8822 20.8261C18.0873 20.5755 18.3558 20.4296 18.6858 20.3893C18.6599 19.9665 18.7982 19.6746 19.1027 19.5161C18.9571 19.3712 18.8846 19.1136 18.8846 18.7422C18.8846 18.3061 19.0299 17.9418 19.3214 17.6506C19.6119 17.3601 19.9766 17.2138 20.4124 17.2138C20.8894 17.2138 21.28 17.38 21.5838 17.7101C21.9681 16.4004 22.7945 15.7455 24.065 15.7455C24.7265 15.7455 25.3089 16.0101 25.8118 16.54C25.9973 16.7378 26.0894 16.8438 26.0894 16.8568C25.9308 16.8568 26.0106 16.8267 26.3277 16.7679C26.6455 16.708 26.8765 16.6779 27.0225 16.6779C27.5384 16.6779 27.9951 16.8704 28.3927 17.254C28.7368 17.5984 28.9751 18.0342 29.1074 18.5637C29.1998 18.5774 29.3451 18.6166 29.5435 18.6831C29.8347 18.829 29.9807 19.0803 29.9807 19.4373C29.9807 19.5031 29.9275 19.6295 29.8218 19.815C30.6684 20.2913 31.0919 20.9528 31.0919 21.7995C31.0919 22.0382 30.9992 22.3689 30.8144 22.7921C31.1595 22.9912 31.3313 23.2824 31.3313 23.6664ZM23.1532 24.5396V24.282C23.1532 23.9779 23.0045 23.6996 22.707 23.4483C22.4091 23.1963 22.1085 23.0714 21.8036 23.0714C21.4326 23.0714 21.0889 23.1575 20.7715 23.3283C21.4725 23.2898 22.2667 23.6926 23.1532 24.5396ZM22.7959 22.0791C22.5974 21.853 22.4256 21.622 22.28 21.3844C21.7238 21.5293 21.4463 21.6955 21.4463 21.88C21.6048 21.867 21.8369 21.8964 22.1407 21.9696C22.4445 22.0427 22.6636 22.0791 22.7959 22.0791ZM24.0076 21.4628V20.5895C23.6891 20.5374 23.4969 20.5104 23.4315 20.5104V20.8083L24.0076 21.4628ZM26.5878 20.9077C26.4285 20.8415 26.131 20.7089 25.6939 20.5104V22.2174C26.3162 21.8597 26.6137 21.4236 26.5878 20.9077ZM27.6784 23.2499L27.2423 22.7147C26.9784 22.8999 26.7099 23.0878 26.438 23.28C26.1667 23.4714 25.9319 23.6867 25.7341 23.9254C26.3288 23.6065 26.9784 23.3825 27.6784 23.2499Z" fill="#0D0F0F"/>
</g>
<defs>
<clipPath id="clip0_124_26">
<rect width="35" height="35" fill="white"/>
</clipPath>
</defs>
</svg>
