<svg width="35" height="35" viewBox="0 0 35 35" fill="none" xmlns="http://www.w3.org/2000/svg">
<g clip-path="url(#clip0_124_21)">
<path d="M29.8721 5.12305C33.0403 8.2909 35 12.6659 35 17.499C35 27.1646 27.1645 35.0001 17.5 35.0001C12.6675 35.0001 8.29325 33.0415 5.1261 29.874" fill="#E49977"/>
<path d="M5.1261 29.874C1.95895 26.7076 0 22.3319 0 17.4994C0 7.83489 7.83545 0.000488281 17.5 0.000488281C22.3307 0.000488281 26.7053 1.95804 29.8721 5.12344" fill="#CAC5C0"/>
<path d="M30.905 26.0537C30.3037 27.4884 29.1095 28.2045 27.321 28.2045C26.9931 28.2045 26.6378 28.2454 26.2556 28.3284C25.682 28.4505 25.3953 28.6217 25.3953 28.8404C25.3953 28.908 25.4429 28.9867 25.5388 29.0763C25.634 29.1652 25.7166 29.2093 25.7849 29.2093C25.4429 29.2093 25.675 29.2191 26.4803 29.2398C27.2864 29.2604 27.7918 29.2709 27.9969 29.2709C26.809 29.9664 24.8224 30.287 22.0367 30.2334C21.1218 30.2198 20.3368 29.8169 19.6816 29.0245C19.0393 28.2734 18.7187 27.4352 18.7187 26.5056C18.7187 25.5228 19.0498 24.687 19.7124 23.9968C20.3739 23.3073 21.1971 22.9625 22.1802 22.9625C22.3983 22.9625 22.6888 23.0105 23.0503 23.106C23.4122 23.2016 23.6548 23.2495 23.7773 23.2495C24.2827 23.2495 24.9109 23.0409 25.662 22.6241C26.4131 22.2083 26.768 22 26.7271 22C26.5902 23.4343 26.1125 24.3965 25.2931 24.8882C24.7058 25.2298 24.4125 25.5637 24.4125 25.8917C24.4125 26.0954 24.535 26.2602 24.7807 26.3827C24.9718 26.4786 25.1836 26.5262 25.416 26.5262C25.7709 26.5262 26.1188 26.3078 26.4604 25.8707C26.8013 25.4335 26.9514 25.038 26.9105 24.6821C26.8699 24.2726 26.8975 23.7815 26.9927 23.2075C27.0197 23.0434 27.1191 22.8425 27.2895 22.6031C27.4603 22.3637 27.6143 22.2174 27.7505 22.1628C27.7505 22.2853 27.706 22.4904 27.6175 22.777C27.5286 23.0637 27.4845 23.2765 27.4845 23.4116C27.4845 23.7119 27.5664 23.9439 27.7305 24.1081C27.9759 24.0125 28.1939 23.7049 28.3857 23.1862C28.5495 22.7903 28.6447 22.4078 28.6727 22.0396C28.0987 22.0123 27.5489 21.7533 27.0239 21.2612C26.4985 20.7694 26.2357 20.2367 26.2357 19.6641C26.2357 19.5686 26.2486 19.4727 26.2766 19.3771C26.3578 19.5003 26.4807 19.6914 26.6452 19.9508C26.8769 20.2927 27.0547 20.4625 27.1775 20.4625C27.3413 20.4625 27.4232 20.2927 27.4232 19.9508C27.4232 19.514 27.307 19.1178 27.075 18.7625C26.8149 18.3394 26.4803 18.128 26.0715 18.128C25.8797 18.128 25.5934 18.2298 25.2112 18.4349C24.8287 18.639 24.4804 18.7419 24.1672 18.7419C24.0716 18.7419 23.6478 18.6187 22.897 18.373C24.2211 18.1553 24.8836 17.9572 24.8836 17.7794C24.8836 17.316 23.9757 17.001 22.1596 16.8375C21.9818 16.8246 21.6545 16.7969 21.1764 16.7556C21.2307 16.6881 21.6202 16.6128 22.344 16.5299C22.9583 16.4627 23.3881 16.428 23.6338 16.428C26.8835 16.428 28.945 18.0058 29.8193 21.1604C29.9702 21.0358 30.0451 20.8272 30.0451 20.5374C30.0451 20.1629 29.9359 19.6925 29.7171 19.1251C29.6349 18.9036 29.5047 18.5714 29.3276 18.1287C30.4469 19.5549 31.0076 20.907 31.0076 22.1831C31.0076 22.8554 30.8497 23.4655 30.5358 24.0139C30.3317 24.3839 29.9485 24.8567 29.3892 25.4342C28.8292 26.0103 28.4473 26.4562 28.2422 26.7712C28.9933 26.5672 29.4851 26.4093 29.7171 26.2998C30.2355 26.0681 30.7069 25.7195 31.1301 25.2561C31.1301 25.4328 31.0548 25.6999 30.905 26.0537ZM21.9751 18.0051C21.9751 18.2505 21.8383 18.4069 21.5656 18.4762L21.0333 18.5574C20.8418 18.6526 20.5618 19.0292 20.194 19.6844C20.1523 19.4797 20.0914 19.1937 20.0092 18.8241C19.8863 18.8378 19.6819 18.947 19.3949 19.1524C19.2721 19.2473 19.074 19.3918 18.8003 19.5826C18.8825 19.0912 19.1562 18.5935 19.62 18.0877C20.1114 17.5274 20.5895 17.2484 21.0536 17.2484C21.6678 17.247 21.9751 17.5001 21.9751 18.0051ZM25.5388 19.8895C25.5388 20.1216 25.4125 20.3162 25.1598 20.473C24.9071 20.6301 24.6579 20.7089 24.4125 20.7089C24.0842 20.7089 23.7906 20.5244 23.5316 20.1559C23.2173 19.7054 22.8967 19.4121 22.5691 19.2746C22.637 19.207 22.7192 19.172 22.8155 19.172C22.9376 19.172 23.1459 19.2676 23.4395 19.4583C23.7325 19.6505 23.9208 19.745 24.003 19.745C24.0713 19.745 24.1836 19.6501 24.3404 19.4583C24.4972 19.2676 24.6715 19.172 24.863 19.172C25.3138 19.172 25.5388 19.4121 25.5388 19.8895ZM15.2761 14.5576L14.273 17.9439H5.93567V17.2201C6.34062 16.7689 7.22787 15.8589 8.59812 14.4883C9.42307 13.6634 10.2403 12.7905 11.0499 11.8717C11.4548 11.4213 11.7667 11.0314 11.9833 10.7045C12.466 10.0045 12.7078 9.28874 12.7078 8.55584C12.7078 7.84009 12.4863 7.20974 12.0425 6.66514C11.599 6.11949 11.0264 5.84684 10.3257 5.84684C8.81617 5.84684 7.63282 6.86709 6.77672 8.90654L6.02877 8.62619C7.04062 5.76144 8.63557 4.32959 10.8161 4.32959C11.8902 4.32959 12.8048 4.69499 13.5597 5.42684C14.3154 6.15869 14.6923 7.06134 14.6923 8.13584C14.6923 9.50609 13.9066 10.8445 12.334 12.1531L10.7002 13.5062C9.65687 14.3784 8.79167 15.1957 8.10812 15.9587C8.06052 16.0059 7.96742 16.1148 7.82742 16.2863H12.1709C12.8401 16.2863 13.3466 16.1543 13.6882 15.889C13.9839 15.6552 14.2727 15.2111 14.5527 14.558L15.2761 14.5576Z" fill="#0D0F0F"/>
</g>
<defs>
<clipPath id="clip0_124_21">
<rect width="35" height="35" fill="white"/>
</clipPath>
</defs>
</svg>
