<svg width="35" height="35" viewBox="0 0 35 35" fill="none" xmlns="http://www.w3.org/2000/svg">
<g clip-path="url(#clip0_124_31)">
<path d="M29.8721 5.12305C33.0403 8.2909 35 12.6659 35 17.499C35 27.1646 27.1649 35.0001 17.4996 35.0001C12.6675 35.0001 8.29288 33.0415 5.12573 29.874" fill="#C1D7E9"/>
<path d="M5.1261 29.874C1.95895 26.7076 0 22.3319 0 17.4994C0 7.83489 7.8351 0.000488281 17.4996 0.000488281C22.331 0.000488281 26.7053 1.95804 29.8721 5.12344" fill="#CAC5C0"/>
<path d="M26.8527 29.2863C25.9105 30.245 24.7499 30.7241 23.3713 30.7241C21.8236 30.7241 20.5961 30.1942 19.6879 29.1351C18.8297 28.1257 18.4013 26.8398 18.4013 25.2753C18.4013 23.5939 19.1328 21.677 20.5961 19.5234C21.7896 17.757 23.1942 16.21 24.8091 14.881C24.5735 15.9576 24.4556 16.7227 24.4556 17.1774C24.4556 18.2204 24.7835 19.2375 25.4394 20.2297C26.2469 21.4075 26.8608 22.2821 27.2811 22.8533C27.937 23.8456 28.265 24.8133 28.265 25.7545C28.2653 27.151 27.7946 28.3284 26.8527 29.2863ZM26.8275 23.9005C26.5752 23.3374 26.2808 22.9625 25.9445 22.7777C25.9952 22.8785 26.0197 23.022 26.0197 23.2068C26.0197 23.5603 25.9193 24.0654 25.7177 24.7202L25.3894 25.73C25.3894 26.318 25.683 26.6127 26.2721 26.6127C26.894 26.6127 27.2059 26.2007 27.2059 25.3765C27.2059 24.9561 27.0799 24.4637 26.8275 23.9005ZM15.2761 14.5576L14.273 17.9439H5.93567V17.2201C6.34062 16.7689 7.22787 15.8589 8.59812 14.4883C9.42307 13.6634 10.2403 12.7905 11.0499 11.8717C11.4548 11.4213 11.7667 11.0314 11.9833 10.7045C12.466 10.0045 12.7078 9.28874 12.7078 8.55584C12.7078 7.84009 12.4863 7.20974 12.0425 6.66514C11.599 6.11949 11.0264 5.84684 10.3257 5.84684C8.81617 5.84684 7.63282 6.86709 6.77672 8.90654L6.02877 8.62619C7.04062 5.76144 8.63557 4.32959 10.8161 4.32959C11.8902 4.32959 12.8048 4.69499 13.5597 5.42684C14.3154 6.15869 14.6923 7.06134 14.6923 8.13584C14.6923 9.50609 13.9066 10.8445 12.334 12.1531L10.7002 13.5062C9.65687 14.3784 8.79167 15.1957 8.10812 15.9587C8.06052 16.0059 7.96742 16.1148 7.82742 16.2863H12.1709C12.8401 16.2863 13.3466 16.1543 13.6882 15.889C13.9839 15.6552 14.2727 15.2111 14.5527 14.558L15.2761 14.5576Z" fill="#0D0F0F"/>
</g>
<defs>
<clipPath id="clip0_124_31">
<rect width="35" height="35" fill="white"/>
</clipPath>
</defs>
</svg>
