<svg width="35" height="35" viewBox="0 0 35 35" fill="none" xmlns="http://www.w3.org/2000/svg">
<g clip-path="url(#clip0_124_41)">
<path d="M29.8722 5.12305C33.0404 8.2909 35 12.6659 35 17.499C35 27.1646 27.1649 35.0001 17.4997 35.0001C12.6676 35.0001 8.29291 33.0415 5.12576 29.874" fill="#F8F6D8"/>
<path d="M5.1261 29.874C1.95895 26.7076 0 22.3319 0 17.4994C0 7.83489 7.8351 0.000488281 17.4996 0.000488281C22.331 0.000488281 26.7053 1.95804 29.8721 5.12344" fill="#CAC5C0"/>
<path d="M15.2761 14.5569L14.273 17.9439H5.93564V17.2201C6.34059 16.7686 7.22784 15.8582 8.59809 14.4883C9.42304 13.6627 10.2403 12.7905 11.0498 11.8717C11.4548 11.4209 11.7666 11.0314 11.9833 10.7041C12.4659 10.0045 12.7078 9.28804 12.7078 8.55584C12.7078 7.84009 12.4862 7.20904 12.0424 6.66514C11.599 6.11879 11.0264 5.84649 10.3257 5.84649C8.81614 5.84649 7.63279 6.86709 6.77669 8.90654L6.02874 8.62549C7.04059 5.76144 8.63554 4.32959 10.816 4.32959C11.8902 4.32959 12.8047 4.69499 13.5597 5.42649C14.3153 6.15869 14.6923 7.06099 14.6923 8.13584C14.6923 9.50609 13.9065 10.8438 12.334 12.1524L10.7002 13.5062C9.65684 14.3784 8.79164 15.1957 8.10809 15.958C8.06049 16.0059 7.96739 16.1141 7.82739 16.2856H12.1709C12.8401 16.2856 13.3465 16.1536 13.6881 15.889C13.9839 15.6545 14.2726 15.2111 14.5526 14.5569H15.2761ZM30.8 25.5889C29.9474 24.7965 29.3811 24.3671 29.1035 24.3002C28.9016 24.2519 28.7063 24.3695 28.5183 24.6523C28.3304 24.9351 28.0661 25.0345 27.7242 24.9526C27.5856 24.9194 27.3129 24.8004 26.9076 24.5967C26.5793 24.9064 26.4033 25.1115 26.3791 25.212C26.3459 25.3513 26.4099 25.5403 26.5716 25.7797C26.7326 26.0191 26.8845 26.1545 27.0266 26.1892C27.1169 26.2109 27.2443 26.221 27.4085 26.2203C27.5719 26.22 27.6804 26.2259 27.7326 26.2382C27.888 26.2746 27.8967 26.578 27.7599 27.1475C27.6304 27.6907 27.3042 28.4957 26.7823 29.5597C26.762 28.1915 26.5692 27.4635 26.2027 27.376C26.152 27.3638 26.0386 27.3774 25.8625 27.4149C25.6861 27.4523 25.5601 27.4628 25.4845 27.4446C25.1181 27.3568 24.8692 26.9431 24.739 26.2035C24.136 26.1528 23.7741 26.3806 23.653 26.8857C23.5924 27.1398 23.6614 27.3697 23.8591 27.5773C24.0565 27.7845 24.1475 27.9199 24.1332 27.9833C24.0516 28.3256 23.4258 28.7298 22.2589 29.1988C21.637 29.4515 21.2068 29.6286 20.9681 29.7315C21.1984 29.5467 21.4473 29.2919 21.7122 28.9678C22.0143 28.5979 22.1924 28.3007 22.2474 28.0722C22.2775 27.9465 22.1742 27.7337 21.9383 27.4373C21.7017 27.1401 21.6142 26.8654 21.6748 26.613C21.7259 26.3981 21.8648 26.1514 22.0923 25.871C21.9733 25.6425 21.8004 25.5 21.5722 25.4458C21.0668 25.3243 20.7749 25.4283 20.6962 25.7576L20.574 26.2693C20.4865 26.6893 20.1204 26.8223 19.4757 26.6687C18.9826 26.5504 18.1821 26.2385 17.0733 25.7328C18.467 25.7191 19.2146 25.4969 19.3172 25.0674C19.306 25.1185 19.3161 24.9596 19.3508 24.5939C19.3938 24.19 19.7568 23.9019 20.4389 23.7311C20.4641 23.1228 20.2314 22.7592 19.7379 22.6416C19.6623 22.623 19.4908 22.7224 19.2258 22.9401C18.9595 23.1568 18.7379 23.2446 18.5615 23.2019C18.2581 23.1302 17.9448 22.7074 17.6221 21.9349C17.473 21.5513 17.2417 20.9819 16.9281 20.2252L17.6914 20.8888C18.0285 21.1569 18.3109 21.3175 18.5381 21.3728C18.7152 21.4145 18.9259 21.3011 19.1709 21.0319C19.4152 20.7628 19.6766 20.6616 19.9549 20.7288C19.9937 20.7379 20.2279 20.8737 20.6591 21.1376C20.987 20.8286 21.1722 20.586 21.2145 20.4089C21.2502 20.2567 21.2005 20.061 21.064 19.8213C20.9279 19.5808 20.7833 19.4436 20.6314 19.4065C20.5684 19.3915 20.4662 19.3866 20.3245 19.3929C20.1827 19.3999 20.0802 19.395 20.0168 19.3799C19.7897 19.3257 19.7435 19.0142 19.8796 18.4447C19.9153 18.2928 20.2685 17.4616 20.9377 15.952C20.8796 16.1375 20.8771 16.512 20.9303 17.0727C20.9933 17.7563 21.1708 18.1322 21.4616 18.2025C21.512 18.2141 21.6219 18.2008 21.7924 18.1612C21.9618 18.1217 22.0909 18.1122 22.1788 18.1339C22.4693 18.2029 22.6702 18.4251 22.7815 18.7989L22.9435 19.3778C23.2085 19.4422 23.4524 19.4002 23.6747 19.2532C23.8973 19.1059 24.0408 18.8994 24.1041 18.6341C24.1703 18.3558 24.1041 18.1164 23.9053 17.9148C23.7058 17.7132 23.6152 17.5746 23.6341 17.499C23.6974 17.2334 24.2217 16.8848 25.2073 16.4525C25.998 16.1078 26.5055 15.9149 26.7295 15.8747C26.0106 16.4784 25.6098 16.9492 25.5286 17.2911C25.4859 17.4686 25.5479 17.6835 25.7145 17.9379C25.9227 18.2414 26.0333 18.4486 26.047 18.5578C26.1033 18.8798 25.9959 19.2742 25.7232 19.7443C26.0071 20.0663 26.2374 20.2476 26.4152 20.291C26.7806 20.3785 27.0095 20.2322 27.1005 19.8535C27.1096 19.8153 27.1225 19.6914 27.1397 19.4814C27.1558 19.2714 27.1743 19.1552 27.1925 19.1332C27.286 18.968 27.6545 18.9627 28.2992 19.1174C28.7038 19.214 29.5169 19.5287 30.7394 20.0617C30.443 20.0712 29.9988 20.0845 29.4063 20.1041C28.8641 20.1342 28.5705 20.2444 28.5243 20.4338C28.5036 20.5223 28.4984 20.6816 28.5103 20.9112C28.5222 21.1408 28.5166 21.3074 28.4917 21.4085C28.4497 21.5856 28.2964 21.7221 28.0329 21.8198L27.2783 22.1204C27.3644 22.4347 27.4253 22.6237 27.4641 22.6857C27.5548 22.868 27.7063 22.9846 27.9216 23.0364C28.0735 23.0728 28.2443 22.9734 28.4343 22.7375C28.624 22.5023 28.8585 22.4179 29.1364 22.4848C29.478 22.566 29.7878 22.9741 30.0664 23.7091C30.2221 24.121 30.4664 24.7479 30.8 25.5889ZM26.8537 23.4823C27.0469 22.6727 26.9181 21.9003 26.4659 21.1642C26.0137 20.4282 25.383 19.9627 24.5745 19.7691C23.7527 19.5728 22.9736 19.6974 22.2393 20.1436C21.505 20.5885 21.0329 21.2206 20.8236 22.0392C20.6171 22.8453 20.7501 23.6156 21.2229 24.3506C21.6951 25.0849 22.3359 25.5494 23.1451 25.7429C24.0044 25.9484 24.7894 25.8388 25.4989 25.4139C26.2087 24.9887 26.6602 24.3443 26.8537 23.4823ZM26.5692 23.4137C26.3847 24.1847 25.9731 24.7615 25.3333 25.1423C24.6942 25.5238 23.9886 25.6229 23.2179 25.4384C22.4721 25.2599 21.8956 24.848 21.4886 24.2026C21.0815 23.5572 20.9678 22.8621 21.1459 22.1162C21.322 21.3826 21.7406 20.8181 22.4035 20.4215C23.0671 20.026 23.7646 19.9158 24.4972 20.0915C25.2301 20.2665 25.8023 20.684 26.2118 21.3431C26.6224 22.0035 26.7414 22.6934 26.5692 23.4137Z" fill="#0D0F0F"/>
</g>
<defs>
<clipPath id="clip0_124_41">
<rect width="35" height="35" fill="white"/>
</clipPath>
</defs>
</svg>
