<svg width="35" height="35" viewBox="0 0 35 35" fill="none" xmlns="http://www.w3.org/2000/svg">
<g clip-path="url(#clip0_124_71)">
<path d="M29.8721 5.12305C33.0403 8.2909 35 12.6659 35 17.499C35 27.1646 27.1645 35.0001 17.5 35.0001C12.6675 35.0001 8.29325 33.0415 5.1261 29.874" fill="#BAB1AB"/>
<path d="M5.1261 29.874C1.95895 26.7076 0 22.3319 0 17.4994C0 7.83489 7.83545 0.000488281 17.5 0.000488281C22.3307 0.000488281 26.7053 1.95839 29.8721 5.12344" fill="#C1D7E9"/>
<path d="M14.3906 16.8549C13.4484 17.8125 12.2881 18.2923 10.9095 18.2923C9.3618 18.2923 8.13435 17.7628 7.2261 16.703C6.3679 15.6932 5.93915 14.407 5.93915 12.8435C5.93915 11.1618 6.67065 9.24412 8.134 7.09092C9.32785 5.32552 10.732 3.77817 12.3469 2.44922C12.1114 3.52617 11.9938 4.29092 11.9938 4.74487C11.9938 5.78787 12.321 6.80602 12.9776 7.79792C13.7847 8.97497 14.399 9.84997 14.8193 10.4215C15.4752 11.4141 15.8035 12.3815 15.8035 13.322C15.8035 14.7195 15.3321 15.8959 14.3906 16.8549ZM14.3654 11.4698C14.113 10.9059 13.819 10.5314 13.4823 10.3459C13.5331 10.4471 13.5579 10.5899 13.5579 10.7757C13.5579 11.1292 13.4575 11.6332 13.2555 12.2888L12.9272 13.2985C12.9272 13.8869 13.2216 14.1809 13.8103 14.1809C14.4322 14.1809 14.7441 13.7686 14.7441 12.945C14.7437 12.5243 14.6174 12.0326 14.3654 11.4698ZM31.367 23.0968C31.367 24.0421 31.0233 24.6872 30.3355 25.0305C30.1346 25.131 29.5046 25.2678 28.4441 25.4386C27.7571 25.5541 27.413 25.8187 27.413 26.2335V27.974C27.413 28.0472 27.4351 28.2687 27.4774 28.6408L27.5422 29.3289C27.5422 29.5434 27.4918 29.8948 27.3913 30.3817C27.1194 30.4387 26.804 30.5035 26.446 30.5759C26.3312 30.1454 26.2741 29.8518 26.2741 29.6939C26.2741 29.6229 26.2916 29.5147 26.3277 29.3716C26.3634 29.2291 26.3816 29.121 26.3816 29.0489C26.3816 28.9495 26.293 28.6698 26.1149 28.211H25.7813C25.7372 28.2827 25.7229 28.3762 25.7369 28.4899C25.7943 28.7339 25.8156 28.9411 25.8016 29.1133C25.5577 29.2851 25.2217 29.5144 24.7919 29.801C24.6907 29.7723 24.6557 29.758 24.6841 29.758V28.2323C24.6557 28.1613 24.5843 28.1326 24.4692 28.1462H24.2112L23.9533 30.1661C23.7527 30.1804 23.5095 30.1804 23.2232 30.1661C23.1227 29.6932 22.9435 28.9922 22.6859 28.0601H22.5134C22.3559 28.5617 22.2701 28.834 22.2554 28.877C22.2554 28.9341 22.2736 29.0447 22.3097 29.2099C22.345 29.3751 22.3632 29.4853 22.3632 29.5427C22.3632 29.5854 22.3485 29.6932 22.3195 29.8651L22.2551 30.3813C22.226 30.409 22.191 30.4233 22.148 30.4233C21.7182 30.4233 21.4312 30.3159 21.2887 30.1017C21.1445 29.8864 21.0871 29.5854 21.1162 29.1987L21.2887 26.6209C21.2887 26.5779 21.3024 26.5205 21.3311 26.4487C21.3598 26.3777 21.3741 26.3269 21.3741 26.2989C21.3741 26.1841 21.2523 25.9545 21.0091 25.6101C20.966 25.5961 20.7441 25.5454 20.3427 25.4593C20.0994 25.4026 19.6192 25.3021 18.9035 25.1593C17.9147 24.9735 17.4202 24.1783 17.4202 22.7744C17.4202 20.6821 18.2801 18.9423 19.9986 17.5524C20.07 17.9395 20.1925 18.4547 20.3644 19.0994L21.2023 19.2933C21.2887 19.3217 21.7252 19.4795 22.513 19.7662C22.1123 19.5229 21.589 19.1299 20.945 18.5849C20.7011 18.2986 20.5789 17.8184 20.5789 17.1454C20.5789 16.9872 20.8512 16.8017 21.3962 16.5854C21.883 16.3852 22.2481 16.2718 22.492 16.2427C23.2652 16.1426 23.8598 16.0919 24.2756 16.0919C26.0659 16.0919 27.5131 16.5507 28.616 17.4681C28.2583 17.8839 27.6419 18.3266 26.7683 18.8002C27.112 18.8145 27.6136 18.6787 28.2726 18.3914C28.9313 18.1061 29.2106 17.9616 29.1105 17.9616C29.225 17.9616 29.4546 18.1912 29.7983 18.6493C30.0555 18.993 30.2634 19.3014 30.4213 19.5733C30.8798 20.3899 31.1878 21.2719 31.3456 22.2165C31.3456 22.5462 31.3526 22.7825 31.367 22.9253V23.0968ZM23.1364 23.4846C23.1364 22.8682 22.8679 22.2844 22.331 21.7325C21.7934 21.1809 21.2163 20.9054 20.6006 20.9054C20.0564 20.9054 19.5769 21.1364 19.1611 21.5977C18.7456 22.0594 18.5381 22.5714 18.5381 23.1342C18.5381 23.6242 18.7743 23.9424 19.2472 24.0859C19.5482 24.1727 19.9703 24.2231 20.5145 24.2378H21.6965C22.6565 24.25 23.1364 23.9991 23.1364 23.4846ZM25.4789 26.1488V25.4834C25.3788 25.2969 25.2784 25.1026 25.1786 24.9024C25.0925 24.6165 24.9347 24.2154 24.7058 23.6988L24.4692 26.2132C24.4692 26.4148 24.4265 26.5145 24.34 26.5145C24.283 26.5145 24.2396 26.5005 24.2112 26.4715C24.1108 24.9532 24.0611 24.2938 24.0611 24.4954V23.7436C24.032 23.6995 23.9963 23.6778 23.9533 23.6778C23.4664 24.1807 23.2232 24.9896 23.2232 26.1061C23.2232 26.7224 23.2802 27.1018 23.3947 27.246C23.5098 27.2173 23.6379 27.1669 23.7821 27.0952C23.8392 27.0661 24.0037 27.0521 24.276 27.0521C24.5472 27.0521 24.878 27.1379 25.264 27.3094C25.4075 27.3083 25.4789 26.9226 25.4789 26.1488ZM30.3355 23.1542C30.3355 22.5781 30.1206 22.0625 29.6908 21.6079C29.261 21.1539 28.7668 20.9271 28.2089 20.9271C27.6069 20.9271 27.0441 21.2026 26.5216 21.7535C25.9983 22.3051 25.7369 22.8819 25.7369 23.4842C25.7369 23.9854 25.9808 24.2357 26.4677 24.2357H28.9383C29.87 24.2217 30.3355 23.8619 30.3355 23.1542Z" fill="#0D0F0F"/>
</g>
<defs>
<clipPath id="clip0_124_71">
<rect width="35" height="35" fill="white"/>
</clipPath>
</defs>
</svg>
