<svg width="35" height="35" viewBox="0 0 35 35" fill="none" xmlns="http://www.w3.org/2000/svg">
<g clip-path="url(#clip0_124_66)">
<path d="M29.8721 5.12305C33.0403 8.2909 35 12.6659 35 17.499C35 27.1646 27.1645 35.0001 17.5 35.0001C12.6675 35.0001 8.29325 33.0415 5.1261 29.874" fill="#E49977"/>
<path d="M5.1261 29.874C1.95895 26.7076 0 22.3319 0 17.4994C0 7.83489 7.83545 0.000488281 17.5 0.000488281C22.3307 0.000488281 26.7053 1.95839 29.8721 5.12344" fill="#C1D7E9"/>
<path d="M30.905 26.0539C30.3037 27.4889 29.1095 28.205 27.321 28.205C26.993 28.205 26.6378 28.2453 26.2556 28.3275C25.6819 28.4511 25.3953 28.6215 25.3953 28.8403C25.3953 28.9085 25.4429 28.9866 25.5388 29.0762C25.634 29.1647 25.7166 29.2095 25.7848 29.2095C25.4429 29.2095 25.6749 29.2197 26.4803 29.2393C27.2863 29.2603 27.7917 29.2704 27.9968 29.2704C26.8089 29.9666 24.8223 30.2875 22.0367 30.2329C21.1218 30.22 20.3367 29.8171 19.6815 29.0251C19.0393 28.274 18.7187 27.4343 18.7187 26.5061C18.7187 25.5226 19.0498 24.6868 19.7123 23.9966C20.3738 23.3078 21.197 22.9631 22.1802 22.9631C22.3982 22.9631 22.6887 23.011 23.0503 23.1059C23.4122 23.2014 23.6547 23.2494 23.7772 23.2494C24.2826 23.2494 24.9109 23.0404 25.662 22.6246C26.4131 22.2085 26.768 21.9999 26.727 21.9999C26.5902 23.4338 26.1124 24.397 25.2931 24.8874C24.7058 25.2297 24.4125 25.5643 24.4125 25.8908C24.4125 26.0959 24.535 26.2601 24.7807 26.3829C24.9718 26.4778 25.1835 26.5257 25.4159 26.5257C25.7708 26.5257 26.1187 26.3077 26.4603 25.8705C26.8012 25.4341 26.9514 25.0379 26.9104 24.6826C26.8698 24.2724 26.8975 23.781 26.9927 23.2081C27.0196 23.0436 27.119 22.8423 27.2895 22.6036C27.4603 22.3642 27.6143 22.2172 27.7504 22.1619C27.7504 22.2858 27.706 22.4906 27.6174 22.7765C27.5285 23.0635 27.4844 23.276 27.4844 23.4114C27.4844 23.7124 27.5663 23.9445 27.7305 24.1079C27.9758 24.0131 28.1939 23.7054 28.3857 23.186C28.5495 22.7905 28.6447 22.4076 28.6727 22.0401C28.0987 22.0128 27.5488 21.7531 27.0238 21.2607C26.4985 20.7693 26.2356 20.2369 26.2356 19.6636C26.2356 19.5688 26.2486 19.4722 26.2766 19.377C26.3578 19.5005 26.4806 19.6916 26.6451 19.951C26.8768 20.2922 27.0546 20.463 27.1775 20.463C27.3413 20.463 27.4232 20.2922 27.4232 19.951C27.4232 19.5138 27.307 19.118 27.0749 18.7627C26.8149 18.3389 26.4803 18.1278 26.0715 18.1278C25.8797 18.1278 25.5934 18.23 25.2112 18.4351C24.8286 18.6395 24.4804 18.7424 24.1671 18.7424C24.0716 18.7424 23.6477 18.6189 22.897 18.3735C24.221 18.1548 24.8836 17.957 24.8836 17.7789C24.8836 17.3151 23.9757 17.0008 22.1595 16.8381C21.9817 16.8244 21.6545 16.7971 21.1764 16.7558C21.2306 16.6879 21.6202 16.6134 22.344 16.5304C22.9582 16.4632 23.388 16.4279 23.6337 16.4279C26.8835 16.4279 28.945 18.005 29.8193 21.1602C29.9701 21.0349 30.045 20.8277 30.045 20.5372C30.045 20.1634 29.9358 19.693 29.7171 19.1257C29.6348 18.9034 29.5046 18.5713 29.3275 18.1285C30.4468 19.5548 31.0075 20.9068 31.0075 22.1826C31.0075 22.8553 30.8497 23.466 30.5357 24.0138C30.3317 24.3844 29.9484 24.8573 29.3891 25.4344C28.8291 26.0102 28.4473 26.4561 28.2422 26.7718C28.9933 26.5667 29.485 26.4095 29.7171 26.3003C30.2354 26.0679 30.7069 25.7193 31.13 25.2556C31.13 25.4341 31.0548 25.7008 30.905 26.0539ZM21.9751 18.0053C21.9751 18.2507 21.8382 18.4085 21.5656 18.4771L21.0332 18.5583C20.8418 18.6535 20.5618 19.0301 20.1939 19.685C20.1523 19.4806 20.0914 19.1939 20.0091 18.825C19.8863 18.838 19.6819 18.9482 19.3949 19.1526C19.272 19.2482 19.0739 19.392 18.8002 19.5828C18.8825 19.0917 19.1562 18.5937 19.6199 18.0879C20.1113 17.5286 20.5894 17.2493 21.0535 17.2493C21.6678 17.2486 21.9751 17.501 21.9751 18.0053ZM25.5388 19.8901C25.5388 20.1218 25.4124 20.3171 25.1597 20.4739C24.907 20.6303 24.6578 20.7094 24.4125 20.7094C24.0842 20.7094 23.7905 20.526 23.5315 20.1561C23.2172 19.7063 22.8966 19.4123 22.569 19.2755C22.6369 19.2072 22.7192 19.1729 22.8154 19.1729C22.9376 19.1729 23.1458 19.2678 23.4395 19.4592C23.7324 19.6514 23.9207 19.7462 24.003 19.7462C24.0712 19.7462 24.1836 19.6514 24.3404 19.4592C24.4972 19.2678 24.6715 19.1729 24.8629 19.1729C25.3137 19.1729 25.5388 19.4123 25.5388 19.8901ZM14.3906 16.8549C13.448 17.8125 12.2881 18.2923 10.9095 18.2923C9.3618 18.2923 8.13435 17.7628 7.2261 16.703C6.3679 15.6932 5.93915 14.407 5.93915 12.8435C5.93915 11.1618 6.67065 9.24412 8.13435 7.09092C9.3282 5.32552 10.7324 3.77817 12.3473 2.44922C12.1117 3.52617 11.9941 4.29092 11.9941 4.74487C11.9941 5.78787 12.3214 6.80602 12.978 7.79792C13.7851 8.97497 14.3993 9.84997 14.8197 10.4215C15.4756 11.4141 15.8039 12.3815 15.8039 13.322C15.8035 14.7195 15.3321 15.8959 14.3906 16.8549ZM14.3654 11.4698C14.113 10.9059 13.819 10.5314 13.4823 10.3459C13.5331 10.4471 13.5579 10.5899 13.5579 10.7757C13.5579 11.1292 13.4575 11.6332 13.2555 12.2888L12.9272 13.2985C12.9272 13.8869 13.2216 14.1809 13.8103 14.1809C14.4322 14.1809 14.7441 13.7686 14.7441 12.945C14.7437 12.5243 14.6174 12.0326 14.3654 11.4698Z" fill="#0D0F0F"/>
</g>
<defs>
<clipPath id="clip0_124_66">
<rect width="35" height="35" fill="white"/>
</clipPath>
</defs>
</svg>
