<svg width="35" height="35" viewBox="0 0 35 35" fill="none" xmlns="http://www.w3.org/2000/svg">
<g clip-path="url(#clip0_124_51)">
<path d="M29.8725 5.12305C33.041 8.2909 35 12.6659 35 17.499C35 27.1646 27.1645 35.0001 17.5 35.0001C12.6675 35.0001 8.29325 33.0415 5.1261 29.874" fill="#C1D7E9"/>
<path d="M5.1261 29.8739C1.9586 26.7074 0 22.3318 0 17.499C0 7.8344 7.83545 0 17.5 0C22.331 0 26.7053 1.95755 29.8725 5.12295" fill="#A3C095"/>
<path d="M26.8531 29.2863C25.9105 30.245 24.7503 30.7245 23.3723 30.7245C21.8239 30.7245 20.5968 30.1942 19.6889 29.1351C18.8307 28.1257 18.4016 26.8398 18.4016 25.2753C18.4016 23.5939 19.1335 21.677 20.5968 19.5234C21.7903 17.757 23.1952 16.21 24.8094 14.881C24.5732 15.9576 24.4563 16.7227 24.4563 17.1774C24.4563 18.2204 24.7839 19.2375 25.4401 20.2297C26.2476 21.4075 26.8618 22.2821 27.2818 22.8533C27.9374 23.8456 28.2664 24.8133 28.2664 25.7545C28.2657 27.151 27.7942 28.3284 26.8531 29.2863ZM26.8268 23.9005C26.5752 23.3374 26.2805 22.9625 25.9445 22.7777C25.9956 22.8785 26.0204 23.022 26.0204 23.2068C26.0204 23.5603 25.92 24.0654 25.7177 24.7202L25.3894 25.73C25.3894 26.318 25.6834 26.6127 26.2717 26.6127C26.8937 26.6127 27.2055 26.2007 27.2055 25.3765C27.2055 24.9561 27.0795 24.4637 26.8268 23.9005ZM18.0744 11.9998C18.0744 12.2648 17.9718 12.5031 17.7667 12.7149C17.5613 12.9263 17.3261 13.0313 17.0608 13.0313C16.6383 13.0313 16.3265 12.8335 16.1287 12.4363L15.1956 12.3971C14.9968 12.3971 14.6059 12.4828 14.0245 12.6547C13.4026 12.8262 13.0452 12.9655 12.9521 13.0715C12.8072 13.2301 12.6879 13.6014 12.5951 14.1831C12.5153 14.6595 12.4765 15.0102 12.4765 15.2359C12.4765 15.5922 12.5325 15.8544 12.6445 16.0199C12.7568 16.1851 12.9889 16.3234 13.3389 16.4357C13.6892 16.5474 13.9045 16.6114 13.9843 16.624C14.0371 16.624 14.1229 16.6177 14.2422 16.6041H14.4806C14.6524 16.6041 14.8309 16.6314 15.0168 16.6839C15.281 16.763 15.3937 16.8687 15.3545 17.001C15.1687 16.9754 14.8449 17.0143 14.3822 17.1203L14.9373 17.3986C14.9373 17.5575 14.7123 17.6366 14.2625 17.6366C14.1428 17.6366 13.9808 17.6107 13.776 17.5575C13.5706 17.5039 13.4348 17.4773 13.369 17.4773H13.1114C13.0977 17.61 13.0585 17.8077 12.992 18.0734C12.7663 18.0597 12.5024 17.9271 12.1975 17.6761C11.893 17.4245 11.7012 17.2988 11.6225 17.2988C11.5427 17.2988 11.4296 17.4245 11.2847 17.6761C11.1388 17.9271 11.0663 18.0989 11.0663 18.1924C10.8945 18.0989 10.7496 17.9271 10.6292 17.6761C10.5763 17.5032 10.5168 17.3317 10.451 17.1592C10.3184 17.1721 10.0741 17.4511 9.71636 17.9936H9.61696C9.59036 17.9537 9.49096 17.6761 9.31876 17.1592C8.90856 17.0272 8.52496 16.9614 8.16796 16.9614C7.99611 16.9614 7.73081 17.0006 7.37346 17.0808L6.81836 17.0419C6.89711 16.9618 7.12916 16.8095 7.51241 16.5845C7.96181 16.3192 8.30656 16.1869 8.54456 16.1869C8.58376 16.1869 8.63696 16.1942 8.70346 16.2072C8.76926 16.2215 8.82281 16.2278 8.86236 16.2278C8.95441 16.2278 9.10351 16.1778 9.30861 16.078C9.51371 15.979 9.63306 15.8901 9.66526 15.8103C9.69956 15.7301 9.71636 15.5257 9.71636 15.1946C9.71636 14.4407 9.51756 13.8779 9.12031 13.5073C8.77626 13.1776 8.20751 12.9389 7.41336 12.7926C7.20196 13.5465 6.60591 13.9245 5.62731 13.9245C5.30916 13.9245 4.99206 13.733 4.67426 13.3487C4.35751 12.9637 4.19791 12.6137 4.19791 12.2959C4.19791 11.8059 4.40301 11.4031 4.81321 11.0849C4.48281 10.7416 4.31691 10.3909 4.31691 10.0332C4.31691 9.70241 4.41911 9.41121 4.62456 9.15956C4.82966 8.90896 5.09811 8.76266 5.42851 8.72241C5.40261 8.29996 5.54086 8.00771 5.84536 7.84951C5.69976 7.70426 5.62731 7.44666 5.62731 7.07566C5.62731 6.63921 5.77221 6.27556 6.06376 5.98436C6.35426 5.69316 6.71896 5.54686 7.15471 5.54686C7.63176 5.54686 8.02236 5.71311 8.32651 6.04316C8.71081 4.73346 9.53716 4.07861 10.8077 4.07861C11.4692 4.07861 12.0516 4.34356 12.5542 4.87346C12.7397 5.07051 12.8317 5.17726 12.8317 5.19021C12.6735 5.19021 12.753 5.16011 13.0701 5.10061C13.3882 5.04111 13.6189 5.01101 13.7652 5.01101C14.2811 5.01101 14.7375 5.20351 15.1354 5.58711C15.4791 5.93151 15.7175 6.36726 15.8501 6.89681C15.9422 6.91011 16.0878 6.94931 16.2862 7.01581C16.5771 7.16211 16.723 7.41306 16.723 7.77041C16.723 7.83656 16.6698 7.96256 16.5641 8.14771C17.4108 8.62406 17.8346 9.28521 17.8346 10.1322C17.8346 10.3706 17.7415 10.702 17.5571 11.1252C17.9018 11.3243 18.0744 11.6159 18.0744 11.9998ZM9.89556 12.8734V12.6155C9.89556 12.311 9.74681 12.0331 9.44896 11.7818C9.15111 11.5294 8.85046 11.4048 8.54596 11.4048C8.17496 11.4048 7.83126 11.4906 7.51381 11.6621C8.21521 11.6232 9.00901 12.0257 9.89556 12.8734ZM9.53821 10.4126C9.34011 10.1865 9.16791 9.95511 9.02231 9.71746C8.46616 9.86306 8.18861 10.0286 8.18861 10.2131C8.34681 10.2001 8.57886 10.2302 8.88266 10.3027C9.18716 10.3762 9.40626 10.4126 9.53821 10.4126ZM10.7503 9.79656V8.92296C10.4318 8.87046 10.2396 8.84351 10.1742 8.84351V9.14136L10.7503 9.79656ZM13.3301 9.24076C13.1712 9.17461 12.8734 9.04231 12.4362 8.84351V10.5505C13.0589 10.1928 13.356 9.75666 13.3301 9.24076ZM14.4207 11.583L13.9846 11.0478C13.7204 11.233 13.4523 11.4213 13.1803 11.6131C12.9091 11.8045 12.6746 12.0201 12.4765 12.2585C13.0711 11.9396 13.7204 11.7156 14.4207 11.583Z" fill="#0D0F0F"/>
</g>
<defs>
<clipPath id="clip0_124_51">
<rect width="35" height="35" fill="white"/>
</clipPath>
</defs>
</svg>
