<svg width="35" height="35" viewBox="0 0 35 35" fill="none" xmlns="http://www.w3.org/2000/svg">
<g clip-path="url(#clip0_124_46)">
<path d="M29.8721 5.12305C33.0403 8.2909 35 12.6659 35 17.499C35 27.1646 27.1645 35.0001 17.5 35.0001C12.6675 35.0001 8.29325 33.0415 5.1261 29.874" fill="#F8F6D8"/>
<path d="M5.1261 29.8739C1.9586 26.7074 0 22.3318 0 17.4993C0 7.8344 7.83545 0 17.5 0C22.3307 0 26.7053 1.95755 29.8721 5.12295" fill="#A3C095"/>
<path d="M30.8 25.5888C29.9474 24.7964 29.3811 24.367 29.1032 24.3001C28.9016 24.2515 28.7059 24.3694 28.518 24.6515C28.33 24.9347 28.0661 25.0344 27.7242 24.9525C27.5856 24.9193 27.3129 24.8003 26.9073 24.5959C26.579 24.906 26.4029 25.1111 26.3784 25.2115C26.3452 25.3512 26.4096 25.5398 26.5713 25.7792C26.7323 26.0183 26.8842 26.1544 27.0266 26.1891C27.1166 26.2108 27.244 26.2209 27.4081 26.2202C27.5719 26.2199 27.6801 26.2258 27.7326 26.2381C27.8876 26.2745 27.8967 26.5779 27.7599 27.1467C27.6304 27.6906 27.3042 28.4956 26.7823 29.5592C26.7617 28.1911 26.5688 27.4627 26.2027 27.3759C26.152 27.3637 26.0386 27.3773 25.8625 27.4148C25.6858 27.4522 25.5601 27.4627 25.4845 27.4442C25.1177 27.3567 24.8692 26.9423 24.7387 26.2034C24.1356 26.1523 23.7737 26.3805 23.6526 26.8856C23.5917 27.1397 23.6607 27.3696 23.8588 27.5768C24.0558 27.784 24.1468 27.9198 24.1325 27.9828C24.0509 28.3248 23.4251 28.7297 22.2579 29.1987C21.6363 29.4514 21.2054 29.6285 20.9671 29.7314C21.1977 29.5466 21.4462 29.2918 21.7115 28.9677C22.0132 28.5978 22.1914 28.3006 22.2463 28.0721C22.2764 27.9464 22.1732 27.7336 21.9369 27.4372C21.7003 27.14 21.6128 26.8653 21.6734 26.6129C21.7245 26.398 21.8634 26.1506 22.0913 25.8709C21.9719 25.6424 21.799 25.4999 21.5715 25.4457C21.0661 25.3235 20.7739 25.4282 20.6951 25.7572L20.5726 26.2692C20.4851 26.6892 20.119 26.8219 19.4743 26.6686C18.9812 26.5503 18.1807 26.2384 17.0719 25.7327C18.4653 25.719 19.2132 25.4968 19.3158 25.0666C19.3046 25.1177 19.3147 24.9595 19.3497 24.5931C19.3924 24.1899 19.7557 23.9018 20.4375 23.731C20.4627 23.1227 20.2296 22.7591 19.7361 22.6415C19.6605 22.6229 19.4894 22.7223 19.2241 22.9393C18.9577 23.1567 18.7365 23.2445 18.5598 23.2018C18.2563 23.1301 17.9427 22.7073 17.6204 21.9348C17.4709 21.5516 17.2396 20.9818 16.9263 20.2247C17.1808 20.4463 17.4349 20.6682 17.69 20.8883C18.0271 21.1571 18.3095 21.3178 18.5367 21.3724C18.7138 21.4147 18.9245 21.3013 19.1695 21.0322C19.4141 20.763 19.6756 20.6619 19.9535 20.7291C19.9923 20.7382 20.2265 20.874 20.658 21.1379C20.986 20.8288 21.1711 20.5863 21.2138 20.4092C21.2495 20.2569 21.1998 20.0613 21.063 19.8215C20.9265 19.5811 20.7823 19.4439 20.6307 19.4068C20.5674 19.391 20.4652 19.3868 20.3234 19.3935C20.1817 19.4001 20.0791 19.3952 20.0158 19.3802C19.7886 19.3252 19.7424 19.0144 19.8786 18.4453C19.9143 18.2931 20.2671 17.4618 20.9363 15.9519C20.8782 16.1378 20.8757 16.5126 20.9289 17.073C20.9923 17.7565 21.1694 18.1317 21.4602 18.2028C21.5106 18.214 21.6209 18.2003 21.7913 18.1615C21.9611 18.1219 22.0895 18.1125 22.1777 18.1335C22.4682 18.2031 22.6691 18.4254 22.7808 18.7992L22.9428 19.3784C23.2081 19.4425 23.4521 19.4005 23.6743 19.2535C23.8969 19.1058 24.0404 18.8996 24.1038 18.6343C24.1699 18.3561 24.1038 18.1167 23.905 17.9144C23.7058 17.7135 23.6148 17.5742 23.6337 17.4986C23.6971 17.2333 24.2217 16.8843 25.207 16.4521C25.998 16.107 26.5051 15.9141 26.7291 15.8739C26.0102 16.478 25.6095 16.9487 25.5279 17.291C25.4856 17.4681 25.5472 17.6834 25.7138 17.9375C25.922 18.2409 26.033 18.4481 26.0463 18.5577C26.1026 18.8783 25.9952 19.2734 25.7225 19.7438C26.0064 20.0658 26.237 20.2471 26.4145 20.2902C26.7802 20.3777 27.0091 20.2321 27.0998 19.8527C27.1089 19.8145 27.1218 19.691 27.139 19.481C27.1551 19.2713 27.1733 19.1551 27.1918 19.1327C27.2849 18.9679 27.6535 18.9626 28.2982 19.117C28.7028 19.2132 29.5158 19.5282 30.7387 20.0616C30.4423 20.0704 29.9981 20.084 29.4056 20.1026C28.8631 20.1341 28.5694 20.244 28.5239 20.4333C28.5029 20.5222 28.498 20.6811 28.5099 20.9107C28.5218 21.1407 28.5159 21.3069 28.4914 21.4074C28.4494 21.5848 28.2957 21.721 28.0322 21.8186L27.2779 22.12C27.3637 22.4339 27.4249 22.6229 27.4638 22.6856C27.5544 22.8669 27.706 22.9845 27.9209 23.0356C28.0728 23.072 28.2436 22.9719 28.4336 22.7367C28.6233 22.5015 28.8578 22.4171 29.1361 22.484C29.4773 22.5648 29.7874 22.9729 30.066 23.7083C30.2221 24.1209 30.4664 24.7471 30.8 25.5888ZM26.8541 23.4822C27.0473 22.6726 26.9185 21.8998 26.4663 21.1634C26.0141 20.427 25.3834 19.9619 24.5749 19.769C23.7531 19.5727 22.9743 19.6973 22.24 20.1435C21.5054 20.588 21.0332 21.2205 20.8239 22.0388C20.6174 22.8445 20.7504 23.6155 21.2233 24.3502C21.6958 25.0841 22.3363 25.5489 23.1458 25.7425C24.0047 25.9479 24.7898 25.8377 25.4996 25.4135C26.2087 24.9886 26.6602 24.3442 26.8541 23.4822ZM26.5688 23.4136C26.3847 24.1846 25.9728 24.7614 25.3333 25.1422C24.6942 25.5237 23.9883 25.6228 23.2179 25.4383C22.4721 25.2591 21.896 24.8479 21.4889 24.2018C21.0819 23.5571 20.9678 22.862 21.1463 22.1161C21.3223 21.3825 21.7406 20.818 22.4035 20.4214C23.0671 20.0256 23.7646 19.9157 24.4979 20.0914C25.2308 20.2664 25.8023 20.6832 26.2122 21.343C26.622 22.0034 26.7414 22.6933 26.5688 23.4136ZM18.074 12.0099C18.074 12.2752 17.9714 12.5132 17.7663 12.7249C17.5612 12.9363 17.326 13.0427 17.0607 13.0427C16.6383 13.0427 16.3264 12.8443 16.1287 12.4474L15.1956 12.4071C14.9968 12.4071 14.6058 12.4932 14.0245 12.6654C13.4025 12.8369 13.0452 12.9769 12.9521 13.0819C12.8072 13.2401 12.6878 13.6115 12.5951 14.1932C12.5153 14.6695 12.4764 15.0206 12.4764 15.246C12.4764 15.6033 12.5324 15.8651 12.6444 16.0296C12.7568 16.1955 12.9888 16.3341 13.3388 16.4465C13.6892 16.5581 13.9044 16.6218 13.9842 16.6341C14.0371 16.6341 14.1228 16.6278 14.2422 16.6141H14.4805C14.6524 16.6141 14.8309 16.6411 15.0167 16.6943C15.281 16.7744 15.3937 16.8794 15.3545 17.0121C15.1686 16.9855 14.8449 17.025 14.3822 17.1311L14.9373 17.409C14.9373 17.5679 14.7122 17.6473 14.2625 17.6473C14.1428 17.6473 13.9807 17.6207 13.776 17.5679C13.5705 17.5147 13.4347 17.4884 13.3689 17.4884H13.1113C13.0977 17.6204 13.0585 17.8185 12.992 18.0834C12.7662 18.0698 12.5023 17.9378 12.1975 17.6858C11.893 17.4349 11.7012 17.3089 11.6224 17.3089C11.5426 17.3089 11.4296 17.4349 11.2847 17.6858C11.1387 17.9378 11.0663 18.1097 11.0663 18.2024C10.8944 18.1097 10.7495 17.9378 10.6291 17.6858C10.5763 17.514 10.5168 17.3421 10.451 17.1696C10.3183 17.1832 10.074 17.4608 9.71634 18.0036H9.61694C9.59034 17.9637 9.49094 17.6858 9.31874 17.1696C8.90854 17.0376 8.52494 16.9715 8.16794 16.9715C7.99609 16.9715 7.73079 17.0117 7.37344 17.0905L6.81834 17.0516C6.89709 16.9715 7.12914 16.8199 7.51239 16.5949C7.96179 16.3303 8.30654 16.1976 8.54454 16.1976C8.58374 16.1976 8.63694 16.2046 8.70344 16.2176C8.76924 16.2309 8.82279 16.2375 8.86234 16.2375C8.95439 16.2375 9.10349 16.1878 9.30859 16.0881C9.51369 15.9901 9.63304 15.9005 9.66524 15.8207C9.69954 15.7409 9.71599 15.5361 9.71599 15.2043C9.71599 14.4508 9.51719 13.8883 9.11994 13.5177C8.77589 13.1873 8.20714 12.9489 7.41299 12.8037C7.20159 13.5576 6.60554 13.9349 5.62694 13.9349C5.30879 13.9349 4.99169 13.7427 4.67389 13.3588C4.35714 12.9752 4.19754 12.6245 4.19754 12.307C4.19754 11.8174 4.40264 11.4131 4.81284 11.0953C4.48244 10.7523 4.31654 10.4016 4.31654 10.0439C4.31654 9.71246 4.41874 9.42196 4.62419 9.16961C4.82929 8.91866 5.09774 8.77306 5.42814 8.73386C5.40224 8.31001 5.54049 8.01916 5.84499 7.86026C5.69939 7.71466 5.62694 7.45671 5.62694 7.08641C5.62694 6.64996 5.77184 6.28561 6.06339 5.99476C6.35389 5.70321 6.71859 5.55726 7.15434 5.55726C7.63139 5.55726 8.02199 5.72456 8.32614 6.05426C8.71044 4.74421 9.53679 4.08936 10.8073 4.08936C11.4688 4.08936 12.0512 4.35396 12.5538 4.88351C12.7393 5.08196 12.8313 5.18801 12.8313 5.20096C12.6731 5.20096 12.7526 5.17086 13.0697 5.11136C13.3878 5.05186 13.6185 5.02176 13.7648 5.02176C14.2807 5.02176 14.7371 5.21391 15.135 5.59786C15.4787 5.94156 15.7171 6.37801 15.8497 6.90756C15.9418 6.92121 16.0874 6.96076 16.2858 7.02656C16.5767 7.17321 16.7226 7.42381 16.7226 7.78116C16.7226 7.84696 16.6694 7.97331 16.5637 8.15776C17.4104 8.63411 17.8342 9.29596 17.8342 10.1437C17.8342 10.3813 17.7415 10.7124 17.5567 11.1356C17.9018 11.3354 18.074 11.6273 18.074 12.0099ZM9.89554 12.8838V12.6269C9.89554 12.3224 9.74679 12.0442 9.44894 11.7929C9.15109 11.5419 8.85044 11.4159 8.54594 11.4159C8.17494 11.4159 7.83124 11.501 7.51379 11.6732C8.21519 11.6333 9.00899 12.0375 9.89554 12.8838ZM9.53819 10.4226C9.34009 10.1969 9.16789 9.96586 9.02229 9.72786C8.46614 9.87381 8.18859 10.0394 8.18859 10.2238C8.34679 10.2116 8.57884 10.2406 8.88264 10.3141C9.18714 10.3866 9.40624 10.4226 9.53819 10.4226ZM10.7502 9.80731V8.93371C10.4317 8.88156 10.2396 8.85391 10.1741 8.85391V9.15176L10.7502 9.80731ZM13.3301 9.25186C13.1712 9.18571 12.8733 9.05341 12.4362 8.85461V10.5616C13.0588 10.2039 13.356 9.76706 13.3301 9.25186ZM14.4207 11.5941L13.9846 11.0579C13.7203 11.2434 13.4522 11.4313 13.1803 11.6238C12.909 11.816 12.6745 12.0305 12.4764 12.2685C13.0711 11.9507 13.7203 11.7264 14.4207 11.5941Z" fill="#0D0F0F"/>
</g>
<defs>
<clipPath id="clip0_124_46">
<rect width="35" height="35" fill="white"/>
</clipPath>
</defs>
</svg>
