<svg width="35" height="35" viewBox="0 0 35 35" fill="none" xmlns="http://www.w3.org/2000/svg">
<g clip-path="url(#clip0_124_76)">
<path d="M29.8721 5.12305C33.0403 8.2909 35 12.6659 35 17.499C35 27.1646 27.1649 35.0001 17.4996 35.0001C12.6675 35.0001 8.2929 33.0415 5.12575 29.874" fill="#BAB1AB"/>
<path d="M5.1261 29.874C1.95895 26.7076 0 22.3319 0 17.4994C0 7.83489 7.8351 0.000488281 17.4996 0.000488281C22.331 0.000488281 26.7053 1.95839 29.8721 5.12344" fill="#F8F6D8"/>
<path d="M31.367 23.0966C31.367 24.0419 31.0233 24.687 30.3356 25.0303C30.1347 25.1308 29.5047 25.2676 28.4442 25.4384C27.7571 25.5539 27.413 25.8185 27.413 26.2333V27.9738C27.413 28.047 27.4351 28.2685 27.4778 28.6406L27.5426 29.3287C27.5426 29.5432 27.4922 29.8946 27.3917 30.3815C27.1198 30.4385 26.8044 30.5033 26.4463 30.5757C26.3315 30.1452 26.2745 29.8516 26.2745 29.6937C26.2745 29.6227 26.292 29.5145 26.3281 29.3714C26.3638 29.2289 26.3819 29.1208 26.3819 29.0487C26.3819 28.9493 26.2934 28.6696 26.1152 28.2108H25.7817C25.7376 28.2825 25.7233 28.376 25.7373 28.4897C25.7947 28.7337 25.816 28.9409 25.8024 29.1131C25.5584 29.2849 25.2224 29.5142 24.7926 29.8008C24.6914 29.7721 24.6565 29.7578 24.6848 29.7578V28.2321C24.6565 28.1611 24.5851 28.1324 24.4699 28.146H24.212L23.954 30.1659C23.7535 30.1802 23.5102 30.1802 23.2239 30.1659C23.1234 29.693 22.9443 28.992 22.6867 28.0599H22.5141C22.3566 28.5615 22.2709 28.8338 22.2562 28.8768C22.2562 28.9339 22.2744 29.0445 22.3104 29.2097C22.3461 29.3749 22.364 29.4851 22.364 29.5425C22.364 29.5852 22.3493 29.693 22.3202 29.8649L22.2558 30.3811C22.2268 30.4088 22.1918 30.4231 22.1487 30.4231C21.7189 30.4231 21.4319 30.3157 21.2895 30.1015C21.1453 29.8862 21.0879 29.5852 21.1169 29.1985L21.2895 26.6207C21.2895 26.5777 21.3031 26.5203 21.3318 26.4485C21.3605 26.3775 21.3748 26.3267 21.3748 26.2987C21.3748 26.1839 21.2531 25.9543 21.0098 25.6099C20.9668 25.5959 20.7449 25.5452 20.3434 25.4591C20.1002 25.4024 19.6203 25.3019 18.9042 25.1591C17.9155 24.9733 17.4209 24.1781 17.4209 22.7742C17.4209 20.6819 18.2808 18.9421 19.9993 17.5522C20.0707 17.9393 20.1933 18.4545 20.3651 19.0992L21.203 19.2931C21.2895 19.3215 21.7259 19.4793 22.5137 19.766C22.113 19.5227 21.5898 19.1297 20.9458 18.5847C20.7018 18.2984 20.5797 17.8182 20.5797 17.1452C20.5797 16.987 20.8519 16.8015 21.3969 16.5852C21.8837 16.385 22.2488 16.2716 22.4928 16.2425C23.2659 16.1424 23.8606 16.0917 24.2764 16.0917C26.0666 16.0917 27.5139 16.5505 28.6167 17.4679C28.259 17.8837 27.6427 18.3264 26.7691 18.8C27.1128 18.8143 27.6143 18.6785 28.2734 18.3912C28.9321 18.1059 29.2114 17.9614 29.1113 17.9614C29.2257 17.9614 29.4553 18.191 29.799 18.6491C30.0559 18.9928 30.2642 19.3012 30.422 19.5731C30.8805 20.3897 31.1885 21.2717 31.3464 22.2163C31.3464 22.546 31.3534 22.7823 31.3677 22.9251L31.367 23.0966ZM23.1364 23.4844C23.1364 22.868 22.868 22.2842 22.3311 21.7323C21.7935 21.1807 21.216 20.9052 20.6007 20.9052C20.0564 20.9052 19.5769 21.1362 19.1611 21.5975C18.7456 22.0592 18.5381 22.5712 18.5381 23.134C18.5381 23.624 18.7744 23.9422 19.2472 24.0857C19.5482 24.1725 19.9703 24.2229 20.5145 24.2376H21.6965C22.6566 24.2498 23.1364 23.9989 23.1364 23.4844ZM25.4789 26.1486V25.4832C25.3788 25.2967 25.2784 25.1024 25.1787 24.9022C25.0926 24.6163 24.9347 24.2152 24.7058 23.6986L24.4692 26.213C24.4692 26.4146 24.4265 26.5143 24.34 26.5143C24.283 26.5143 24.2396 26.5003 24.2113 26.4713C24.1108 24.953 24.0611 24.2936 24.0611 24.4952V23.7434C24.0321 23.6993 23.9964 23.6776 23.9533 23.6776C23.4665 24.1805 23.2232 24.9894 23.2232 26.1059C23.2232 26.7222 23.2803 27.1016 23.3947 27.2458C23.5099 27.2171 23.6379 27.1667 23.7818 27.095C23.8388 27.0659 24.0034 27.0519 24.2757 27.0519C24.5469 27.0519 24.8776 27.1377 25.2637 27.3092C25.4075 27.3081 25.4789 26.9224 25.4789 26.1486ZM30.3356 23.154C30.3356 22.5779 30.1207 22.0623 29.6909 21.6077C29.2611 21.1537 28.7669 20.9269 28.209 20.9269C27.607 20.9269 27.0442 21.2024 26.5216 21.7533C25.9984 22.3049 25.7369 22.8817 25.7369 23.484C25.7369 23.9852 25.9809 24.2355 26.4677 24.2355H28.9384C29.8701 24.2215 30.3356 23.8617 30.3356 23.154ZM19.1335 13.3925C18.2809 12.6001 17.7146 12.1703 17.4367 12.1038C17.2347 12.0551 17.0394 12.1727 16.8515 12.4555C16.6635 12.7383 16.3993 12.8388 16.0577 12.7558C15.9187 12.7229 15.6464 12.6046 15.2411 12.4002C14.9128 12.71 14.7368 12.9151 14.7123 13.0155C14.679 13.1545 14.7434 13.3438 14.9048 13.5836C15.0658 13.8226 15.2177 13.9581 15.3601 13.9924C15.4501 14.0144 15.5778 14.0246 15.7416 14.0239C15.9054 14.0239 16.0136 14.0291 16.0657 14.0417C16.2211 14.0785 16.2299 14.3816 16.0934 14.9507C15.9639 15.4939 15.6377 16.2992 15.1155 17.3629C15.0952 15.9951 14.9023 15.2671 14.5362 15.1796C14.4855 15.1673 14.3721 15.1806 14.196 15.2184C14.0193 15.2555 13.8936 15.2667 13.818 15.2485C13.4512 15.161 13.2027 14.7466 13.0722 14.0071C12.4695 13.9563 12.1072 14.1842 11.9861 14.6892C11.9255 14.943 11.9945 15.1733 12.1923 15.3805C12.3897 15.5884 12.4807 15.7238 12.4663 15.7865C12.3851 16.1288 11.759 16.533 10.5921 17.0024C9.9701 17.2554 9.5396 17.4325 9.30125 17.5358C9.5319 17.3506 9.7804 17.0955 10.0454 16.771C10.3471 16.4021 10.5256 16.1043 10.5802 15.8757C10.6103 15.7508 10.5074 15.538 10.2711 15.2412C10.0345 14.9433 9.947 14.6693 10.0076 14.4173C10.0587 14.2017 10.1976 13.9549 10.4251 13.6742C10.3061 13.4457 10.1332 13.3036 9.9057 13.2497C9.4003 13.1279 9.10805 13.2318 9.0293 13.5612L8.90715 14.0736C8.81965 14.4929 8.45355 14.6259 7.80885 14.4722C7.3157 14.3546 6.51525 14.0424 5.40645 13.537C6.80015 13.5227 7.5481 13.3008 7.65065 12.8706C7.6391 12.9217 7.6496 12.7632 7.68425 12.3971C7.7273 11.9942 8.09025 11.7055 8.77205 11.5347C8.7976 10.9271 8.5645 10.5634 8.071 10.4458C7.9954 10.4266 7.8239 10.526 7.55895 10.7433C7.29295 10.9607 7.0714 11.0482 6.89465 11.0058C6.5912 10.9334 6.27795 10.5109 5.95525 9.73847C5.80615 9.35487 5.5748 8.78542 5.26155 8.02872L6.0249 8.69232C6.36195 8.96042 6.6444 9.12107 6.87155 9.17602C7.04865 9.21802 7.25935 9.10532 7.50435 8.83547C7.74865 8.56702 8.01045 8.46587 8.28835 8.53237C8.3272 8.54112 8.56135 8.67727 8.99255 8.94152C9.3205 8.63282 9.50565 8.38957 9.54835 8.21212C9.58405 8.06092 9.53435 7.86527 9.3975 7.62482C9.26135 7.38507 9.1168 7.24752 8.96525 7.21007C8.9019 7.19502 8.80005 7.19012 8.6583 7.19712C8.5162 7.20342 8.41365 7.19922 8.35065 7.18347C8.12315 7.12922 8.0773 6.81772 8.21345 6.24897C8.24915 6.09637 8.6023 5.26582 9.27115 3.75522C9.21305 3.94107 9.2106 4.31557 9.2638 4.87697C9.32715 5.56052 9.50425 5.93537 9.7951 6.00607C9.8455 6.01797 9.95575 6.00432 10.1259 5.96442C10.2956 5.92522 10.4244 5.91542 10.5126 5.93712C10.8031 6.00712 11.004 6.22867 11.1153 6.60247L11.2774 7.18207C11.5423 7.24577 11.7866 7.20412 12.0085 7.05712C12.2311 6.90977 12.3746 6.70292 12.438 6.43762C12.5041 6.16007 12.438 5.91997 12.2392 5.71802C12.0397 5.51677 11.949 5.37817 11.9679 5.30222C12.0313 5.03692 12.5559 4.68832 13.5412 4.25677C14.3322 3.91132 14.8393 3.71812 15.0633 3.67822C14.3444 4.28197 13.9436 4.75272 13.8624 5.09467C13.8201 5.27177 13.8817 5.48772 14.0483 5.74147C14.2566 6.04492 14.3675 6.25212 14.3808 6.36132C14.4375 6.68332 14.3297 7.07847 14.0574 7.54747C14.3413 7.86947 14.5716 8.05112 14.7494 8.09417C15.1148 8.18167 15.344 8.03572 15.4347 7.65667C15.4441 7.61887 15.4567 7.49497 15.4738 7.28567C15.4899 7.07497 15.5082 6.95912 15.5267 6.93637C15.6202 6.77152 15.9887 6.76697 16.6334 6.92062C17.038 7.01757 17.851 7.33222 19.0736 7.86527C18.7775 7.87437 18.333 7.88802 17.7405 7.90727C17.1983 7.93772 16.9047 8.04832 16.8588 8.23802C16.8382 8.32622 16.8329 8.48547 16.8448 8.71542C16.8567 8.94502 16.8504 9.11127 16.8263 9.21172C16.7843 9.38917 16.631 9.52532 16.3674 9.62332L15.6128 9.92397C15.6989 10.2386 15.7598 10.4273 15.7987 10.4892C15.8893 10.6716 16.0412 10.7885 16.2561 10.8399C16.408 10.8763 16.5788 10.7766 16.7689 10.541C16.9586 10.3058 17.1931 10.2222 17.471 10.288C17.8122 10.3695 18.1223 10.7776 18.4013 11.513C18.5556 11.9246 18.7999 12.5507 19.1335 13.3925ZM15.1872 11.2855C15.3804 10.4766 15.2513 9.70312 14.7994 8.96707C14.3472 8.23067 13.7165 7.76552 12.908 7.57302C12.0859 7.37562 11.3075 7.49987 10.5732 7.94612C9.83885 8.39097 9.36635 9.02342 9.1574 9.84207C8.9509 10.6481 9.0839 11.4188 9.55675 12.1535C10.0293 12.8871 10.6698 13.3519 11.4793 13.5454C12.3386 13.7505 13.1236 13.641 13.8331 13.2168C14.5418 12.7915 14.9933 12.1472 15.1872 11.2855ZM14.9023 11.2172C14.7179 11.9883 14.3063 12.5654 13.6668 12.9459C13.0277 13.3281 12.3218 13.4264 11.5514 13.242C10.8056 13.0635 10.2295 12.6512 9.8224 12.0061C9.41535 11.3611 9.30125 10.6663 9.47975 9.91942C9.6558 9.18617 10.0741 8.62162 10.737 8.22507C11.4006 7.82992 12.0981 7.72002 12.831 7.89502C13.5639 8.07002 14.1358 8.48757 14.5456 9.14697C14.9555 9.80707 15.0749 10.4959 14.9023 11.2172Z" fill="#0D0F0F"/>
</g>
<defs>
<clipPath id="clip0_124_76">
<rect width="35" height="35" fill="white"/>
</clipPath>
</defs>
</svg>
