<svg width="35" height="35" viewBox="0 0 35 35" fill="none" xmlns="http://www.w3.org/2000/svg">
<g clip-path="url(#clip0_124_16)">
<path d="M29.8721 5.12305C33.0403 8.2909 35 12.6659 35 17.499C35 27.1646 27.1645 35.0001 17.4996 35.0001C12.6675 35.0001 8.29288 33.0415 5.12573 29.874" fill="#C1D7E9"/>
<path d="M5.1261 29.874C1.95895 26.7076 0 22.3319 0 17.4994C0 7.83489 7.8351 0.000488281 17.4996 0.000488281C22.331 0.000488281 26.7053 1.95839 29.8721 5.12344" fill="#F8F6D8"/>
<path d="M26.8527 29.2863C25.9101 30.245 24.7502 30.7245 23.3716 30.7245C21.8235 30.7245 20.5961 30.1942 19.6878 29.1351C18.8296 28.1257 18.4012 26.8398 18.4012 25.2753C18.4012 23.5939 19.1327 21.677 20.5961 19.5234C21.7896 17.757 23.1941 16.21 24.809 14.881C24.5738 15.9576 24.4559 16.7227 24.4559 17.1774C24.4559 18.2204 24.7831 19.2375 25.4401 20.2297C26.2468 21.4075 26.8611 22.2821 27.2814 22.8533C27.9373 23.8456 28.266 24.8133 28.266 25.7545C28.2656 27.151 27.7942 28.3284 26.8527 29.2863ZM26.8278 23.9005C26.5751 23.3374 26.2808 22.9625 25.9444 22.7777C25.9952 22.8785 26.02 23.022 26.02 23.2068C26.02 23.5603 25.9196 24.0654 25.7176 24.7202L25.3893 25.73C25.3893 26.318 25.6833 26.6127 26.2727 26.6127C26.8943 26.6127 27.2062 26.2007 27.2062 25.3765C27.2058 24.9561 27.0798 24.4637 26.8278 23.9005ZM19.1334 13.3925C18.2808 12.6001 17.7145 12.1703 17.4366 12.1038C17.2347 12.0551 17.0394 12.1727 16.8514 12.4555C16.6635 12.7383 16.3992 12.8388 16.0576 12.7558C15.9187 12.7229 15.6464 12.6039 15.2411 12.4002C14.9128 12.71 14.7367 12.9151 14.7122 13.0155C14.679 13.1545 14.7434 13.3438 14.9047 13.5829C15.0657 13.8226 15.2176 13.9581 15.3601 13.9924C15.45 14.0144 15.5778 14.0246 15.7416 14.0239C15.9054 14.0232 16.0135 14.0291 16.0657 14.0417C16.2211 14.0781 16.2298 14.3816 16.0933 14.9507C15.9638 15.4939 15.6376 16.2992 15.1154 17.3629C15.0951 15.9951 14.9023 15.2671 14.5362 15.1796C14.4854 15.1673 14.372 15.1806 14.196 15.2184C14.0192 15.2555 13.8936 15.2667 13.818 15.2485C13.4512 15.1603 13.2027 14.7466 13.0721 14.0071C12.4694 13.9563 12.1072 14.1842 11.9861 14.6892C11.9255 14.943 11.9945 15.1733 12.1922 15.3805C12.3896 15.5884 12.4806 15.7235 12.4663 15.7865C12.3851 16.1288 11.7589 16.533 10.592 17.0024C9.97009 17.2547 9.53959 17.4322 9.30124 17.5351C9.53189 17.3506 9.78039 17.0951 10.0453 16.771C10.347 16.4014 10.5255 16.1043 10.5801 15.8757C10.6102 15.7501 10.5073 15.5373 10.2711 15.2405C10.0345 14.9433 9.94699 14.6689 10.0075 14.4166C10.0586 14.2017 10.1976 13.9549 10.4251 13.6742C10.3061 13.4457 10.1332 13.3032 9.90569 13.249C9.40029 13.1279 9.10804 13.2318 9.02929 13.5612L8.90714 14.0729C8.81964 14.4929 8.45354 14.6259 7.80884 14.4722C7.31569 14.3536 6.51524 14.0421 5.40644 13.5367C6.80014 13.5227 7.54809 13.3004 7.65064 12.8706C7.63909 12.9217 7.64959 12.7632 7.68424 12.3971C7.72729 11.9935 8.09024 11.7055 8.77204 11.5347C8.79759 10.9264 8.56449 10.5634 8.07099 10.4448C7.99539 10.4266 7.82389 10.526 7.55894 10.7433C7.29294 10.9607 7.07139 11.0482 6.89464 11.0051C6.59119 10.9334 6.27794 10.5109 5.95524 9.73847C5.80614 9.35487 5.57479 8.78542 5.26154 8.02872L6.02489 8.69232C6.36194 8.96042 6.64439 9.12107 6.87154 9.17602C7.04864 9.21802 7.25934 9.10462 7.50434 8.83547C7.74864 8.56632 8.01044 8.46517 8.28834 8.53237C8.32719 8.54112 8.56134 8.67727 8.99254 8.94152C9.32049 8.63212 9.50564 8.38957 9.54834 8.21212C9.58404 8.05987 9.53434 7.86527 9.39749 7.62482C9.26134 7.38507 9.11679 7.24752 8.96524 7.21007C8.90189 7.19502 8.80004 7.19012 8.65829 7.19712C8.51619 7.20342 8.41364 7.19852 8.35064 7.18347C8.12314 7.12922 8.07729 6.81772 8.21344 6.24827C8.24914 6.09637 8.60229 5.26547 9.27114 3.75522C9.21304 3.94107 9.21059 4.31557 9.26379 4.87627C9.32714 5.55982 9.50424 5.93537 9.79509 6.00607C9.84549 6.01797 9.95574 6.00432 10.1258 5.96442C10.2956 5.92522 10.4244 5.91542 10.5126 5.93712C10.8031 6.00642 11.004 6.22867 11.1153 6.60247L11.2773 7.18207C11.5423 7.24577 11.7866 7.20412 12.0085 7.05677C12.2311 6.90977 12.3746 6.70292 12.4379 6.43762C12.5041 6.15937 12.4379 5.91997 12.2391 5.71802C12.0396 5.51677 11.949 5.37817 11.9679 5.30222C12.0312 5.03692 12.5559 4.68832 13.5411 4.25607C14.3321 3.91132 14.8393 3.71812 15.0633 3.67822C14.3444 4.28197 13.9436 4.75272 13.8624 5.09467C13.8201 5.27177 13.8817 5.48772 14.0483 5.74147C14.2565 6.04492 14.3675 6.25212 14.3808 6.36132C14.4375 6.68332 14.3297 7.07777 14.0574 7.54747C14.3412 7.86947 14.5715 8.05112 14.7493 8.09417C15.1147 8.18167 15.344 8.03572 15.4346 7.65667C15.4441 7.61887 15.4567 7.49497 15.4738 7.28497C15.4899 7.07497 15.5081 6.95912 15.5267 6.93637C15.6201 6.77152 15.9887 6.76627 16.6334 6.92062C17.038 7.01757 17.851 7.33222 19.0736 7.86527C18.7775 7.87437 18.333 7.88802 17.7404 7.90727C17.1983 7.93772 16.9046 8.04797 16.8588 8.23732C16.8381 8.32622 16.8329 8.48512 16.8448 8.71472C16.8567 8.94432 16.8504 9.11127 16.8262 9.21172C16.7842 9.38917 16.6309 9.52532 16.3674 9.62332L15.6128 9.92397C15.6989 10.2379 15.7598 10.4273 15.7986 10.4892C15.8893 10.6712 16.0412 10.7881 16.2561 10.8399C16.408 10.8763 16.5788 10.7766 16.7688 10.541C16.9585 10.3058 17.193 10.2218 17.4709 10.288C17.8122 10.3692 18.1223 10.7773 18.4012 11.513C18.5556 11.9239 18.7999 12.5507 19.1334 13.3925ZM15.1872 11.2851C15.3804 10.4759 15.2512 9.70277 14.7994 8.96707C14.3472 8.23067 13.7165 7.76552 12.908 7.57197C12.0858 7.37527 11.3074 7.49987 10.5731 7.94612C9.83884 8.39097 9.36634 9.02342 9.15739 9.84207C8.95089 10.6481 9.08389 11.4188 9.55674 12.1531C10.0292 12.8881 10.6697 13.3522 11.4793 13.5458C12.3385 13.7512 13.1236 13.642 13.833 13.2164C14.5418 12.7915 14.9933 12.1472 15.1872 11.2851ZM14.9023 11.2172C14.7178 11.9883 14.3062 12.5654 13.6668 12.9459C13.0277 13.3274 12.3217 13.4264 11.5514 13.242C10.8055 13.0635 10.2294 12.6512 9.82239 12.0061C9.41534 11.3611 9.30124 10.6663 9.47974 9.91942C9.65579 9.18617 10.074 8.62162 10.7369 8.22507C11.4005 7.82992 12.0981 7.71932 12.831 7.89502C13.5639 8.07002 14.1358 8.48757 14.5456 9.14697C14.9555 9.80707 15.0748 10.4959 14.9023 11.2172Z" fill="#0D0F0F"/>
</g>
<defs>
<clipPath id="clip0_124_16">
<rect width="35" height="35" fill="white"/>
</clipPath>
</defs>
</svg>
