<svg width="35" height="35" viewBox="0 0 35 35" fill="none" xmlns="http://www.w3.org/2000/svg">
<g clip-path="url(#clip0_124_61)">
<path d="M29.8721 5.12305C33.0407 8.2909 35 12.6659 35 17.499C35 27.1646 27.1645 35.0001 17.5 35.0001C12.6675 35.0001 8.29325 33.0415 5.1261 29.874" fill="#A3C095"/>
<path d="M5.1261 29.874C1.9586 26.7076 0 22.3319 0 17.4994C0 7.83489 7.83545 0.000488281 17.5 0.000488281C22.3307 0.000488281 26.7053 1.95839 29.8721 5.12344" fill="#E49977"/>
<path d="M18.1779 13.3269C17.5766 14.7616 16.3824 15.478 14.5939 15.478C14.266 15.478 13.9107 15.5183 13.5285 15.6005C12.9549 15.7241 12.6686 15.8949 12.6686 16.1133C12.6686 16.1815 12.7162 16.2596 12.8117 16.3492C12.9069 16.4377 12.9895 16.4822 13.0578 16.4822C12.7158 16.4822 12.9482 16.4927 13.7532 16.5123C14.5589 16.5333 15.0643 16.5434 15.2694 16.5434C14.0812 17.2392 12.0949 17.5605 9.30929 17.5059C8.39439 17.493 7.60934 17.0901 6.95414 16.2981C6.31224 15.547 5.99164 14.7073 5.99164 13.7795C5.99164 12.796 6.32239 11.9598 6.98529 11.2696C7.64679 10.5812 8.46999 10.2361 9.45314 10.2361C9.67119 10.2361 9.96169 10.284 10.3232 10.3789C10.6851 10.4744 10.9277 10.5224 11.0502 10.5224C11.5556 10.5224 12.1835 10.3134 12.9346 9.89765C13.6857 9.48115 14.0409 9.2729 14 9.2729C13.8631 10.7065 13.3854 11.6697 12.566 12.1607C11.9784 12.503 11.6854 12.8373 11.6854 13.1638C11.6854 13.3689 11.8076 13.5331 12.0536 13.6559C12.2447 13.7508 12.4565 13.7987 12.6889 13.7987C13.0438 13.7987 13.3917 13.5807 13.7333 13.1439C14.0742 12.7071 14.2243 12.3109 14.1834 11.9553C14.1431 11.5454 14.1704 11.0537 14.2656 10.4811C14.2926 10.3162 14.392 10.1153 14.5624 9.87664C14.7332 9.63724 14.8872 9.49025 15.0234 9.4353C15.0234 9.55885 14.9786 9.76359 14.89 10.0495C14.8011 10.3362 14.757 10.5493 14.757 10.6844C14.757 10.9851 14.8386 11.2171 15.0027 11.3809C15.2484 11.2861 15.4665 10.9784 15.6579 10.459C15.8217 10.0632 15.9169 9.68065 15.9449 9.31245C15.3709 9.2862 14.8211 9.02615 14.2957 8.5337C13.77 8.0423 13.5075 7.5096 13.5075 6.93665C13.5075 6.84145 13.5205 6.7452 13.5485 6.65C13.6297 6.77355 13.7525 6.96465 13.9174 7.224C14.1487 7.56455 14.3269 7.73535 14.4497 7.73535C14.6135 7.73535 14.6951 7.56455 14.6951 7.224C14.6951 6.7872 14.5792 6.39135 14.3472 6.03575C14.0875 5.6119 13.7529 5.40085 13.3437 5.40085C13.1519 5.40085 12.8656 5.5034 12.4834 5.7085C12.1009 5.9129 11.7526 6.01545 11.4397 6.01545C11.3438 6.01545 10.9203 5.89155 10.1692 5.6462C11.4933 5.4278 12.1558 5.23005 12.1558 5.05225C12.1558 4.58815 11.2479 4.27385 9.43179 4.11075C9.25434 4.09745 8.92709 4.07015 8.44899 4.0285C8.50324 3.96095 8.89279 3.8857 9.61659 3.8031C10.2308 3.7359 10.6606 3.7002 10.9063 3.7002C14.1561 3.7002 16.2176 5.278 17.0919 8.43255C17.2427 8.3076 17.318 8.1004 17.318 7.8099C17.318 7.43575 17.2084 6.965 16.99 6.39765C16.9078 6.1761 16.7776 5.84325 16.6005 5.40085C17.7194 6.8271 18.2805 8.17915 18.2805 9.45525C18.2805 10.1272 18.1226 10.7383 17.8087 11.2857C17.6046 11.6571 17.2214 12.1299 16.6621 12.7064C16.1024 13.2825 15.7202 13.7284 15.5151 14.0441C16.2662 13.839 16.7583 13.6815 16.9904 13.5723C17.5084 13.3402 17.9798 12.9916 18.403 12.5279C18.4026 12.7067 18.3274 12.9724 18.1779 13.3269ZM9.24769 5.278C9.24769 5.5237 9.11084 5.6805 8.83819 5.7498L8.30584 5.83135C8.11404 5.9262 7.83439 6.30245 7.46654 6.95765C7.42524 6.75325 7.36399 6.46625 7.28174 6.09735C7.15889 6.111 6.95414 6.2209 6.66749 6.4253C6.54464 6.5205 6.34654 6.6647 6.07319 6.85545C6.15544 6.36405 6.42914 5.86635 6.89289 5.3606C7.38429 4.80095 7.86274 4.522 8.32649 4.522C8.94074 4.52095 9.24769 4.77365 9.24769 5.278ZM12.8114 7.16275C12.8114 7.3941 12.6854 7.5901 12.4323 7.74655C12.1796 7.90335 11.9304 7.98245 11.6851 7.98245C11.3568 7.98245 11.0631 7.7987 10.8041 7.42875C10.4898 6.979 10.1692 6.685 9.84129 6.54815C9.90884 6.4799 9.99144 6.4456 10.0877 6.4456C10.2102 6.4456 10.4181 6.54045 10.7117 6.7319C11.0047 6.92405 11.1926 7.0189 11.2749 7.0189C11.3431 7.0189 11.4558 6.92405 11.6126 6.7319C11.7694 6.54045 11.9434 6.4456 12.1352 6.4456C12.5863 6.4456 12.8114 6.685 12.8114 7.16275ZM31.3316 23.6663C31.3316 23.9316 31.2291 24.1692 31.024 24.3813C30.8189 24.5927 30.5837 24.6981 30.3184 24.6981C29.8959 24.6981 29.5841 24.5 29.3863 24.1027L28.4529 24.0635C28.2544 24.0635 27.8635 24.1496 27.2821 24.3215C26.6602 24.493 26.3028 24.6323 26.2101 24.7376C26.0652 24.8965 25.9458 25.2675 25.8527 25.8499C25.7729 26.3259 25.7341 26.677 25.7341 26.902C25.7341 27.259 25.7901 27.5208 25.9021 27.686C26.0144 27.8516 26.2465 27.9902 26.5965 28.1022C26.9465 28.2135 27.1621 28.2779 27.2419 28.2908C27.2947 28.2908 27.3805 28.2845 27.4998 28.2709H27.7382C27.91 28.2709 28.0885 28.2975 28.2744 28.3503C28.5386 28.4298 28.6513 28.5348 28.6121 28.6678C28.4263 28.6419 28.1025 28.6811 27.6398 28.7868L28.1949 29.065C28.1949 29.2239 27.9699 29.3027 27.5201 29.3027C27.4004 29.3027 27.238 29.2775 27.0336 29.2239C26.8278 29.17 26.692 29.1438 26.6266 29.1438H26.3686C26.3553 29.2764 26.3161 29.4738 26.2496 29.7391C26.0235 29.7262 25.76 29.5935 25.4551 29.3426C25.1506 29.0906 24.9588 28.9649 24.8801 28.9649C24.8003 28.9649 24.6872 29.0906 24.5423 29.3426C24.3964 29.5935 24.3239 29.765 24.3239 29.8588C24.1521 29.765 24.0068 29.5935 23.8868 29.3426C23.8339 29.1697 23.7744 28.9975 23.7086 28.8249C23.576 28.8386 23.3317 29.1175 22.974 29.6597H22.8746C22.8476 29.6201 22.7486 29.3426 22.5764 28.8249C22.1662 28.6937 21.7826 28.6279 21.4256 28.6279C21.2537 28.6279 20.9884 28.6671 20.6311 28.7472L20.0756 28.7077C20.1547 28.6279 20.3864 28.476 20.77 28.2509C21.2194 27.9856 21.5642 27.853 21.8022 27.853C21.8414 27.853 21.8946 27.8603 21.9611 27.8736C22.0269 27.8873 22.0804 27.8939 22.12 27.8939C22.2117 27.8939 22.3611 27.8442 22.5662 27.7445C22.7713 27.6454 22.8907 27.5558 22.9229 27.4764C22.9572 27.3962 22.9736 27.1918 22.9736 26.8607C22.9736 26.1072 22.7748 25.5437 22.3776 25.1741C22.0335 24.8433 21.4648 24.6053 20.6706 24.459C20.4592 25.2129 19.8632 25.5909 18.8846 25.5909C18.5664 25.5909 18.249 25.3988 17.9315 25.0148C17.6141 24.6309 17.4552 24.2802 17.4552 23.9624C17.4552 23.4727 17.6603 23.0695 18.0705 22.7517C17.7401 22.4084 17.5742 22.0577 17.5742 21.6996C17.5742 21.3692 17.6764 21.078 17.8818 20.826C18.0869 20.5754 18.3554 20.4295 18.6858 20.3892C18.6599 19.9664 18.7981 19.6745 19.1023 19.516C18.957 19.3711 18.8846 19.1135 18.8846 18.7421C18.8846 18.306 19.0295 17.9417 19.321 17.6505C19.6115 17.36 19.9759 17.2137 20.412 17.2137C20.889 17.2137 21.2796 17.3799 21.5838 17.71C21.9681 16.4003 22.7944 15.7454 24.0649 15.7454C24.7261 15.7454 25.3088 16.01 25.8114 16.5399C25.9969 16.7377 26.089 16.8437 26.089 16.8567C25.9308 16.8567 26.0102 16.8266 26.3273 16.7678C26.6455 16.7079 26.8761 16.6778 27.0224 16.6778C27.5383 16.6778 27.9947 16.8703 28.3927 17.2539C28.7364 17.5983 28.9747 18.0341 29.1074 18.5636C29.1994 18.5773 29.345 18.6165 29.5431 18.683C29.8343 18.8289 29.9803 19.0802 29.9803 19.4372C29.9803 19.503 29.9271 19.6294 29.8214 19.8149C30.668 20.2912 31.0919 20.9527 31.0919 21.7994C31.0919 22.0377 30.9988 22.3688 30.8143 22.792C31.1594 22.9911 31.3316 23.2823 31.3316 23.6663ZM23.1528 24.5395V24.2819C23.1528 23.9778 23.0044 23.6995 22.7066 23.4482C22.4087 23.1962 22.1081 23.0713 21.8036 23.0713C21.4326 23.0713 21.0889 23.1574 20.7714 23.3282C21.4728 23.2897 22.2663 23.6925 23.1528 24.5395ZM22.7958 22.079C22.5977 21.8529 22.4255 21.6219 22.2799 21.3843C21.7238 21.5292 21.4459 21.6954 21.4459 21.8799C21.6044 21.8669 21.8365 21.8963 22.1403 21.9695C22.4448 22.0426 22.6639 22.079 22.7958 22.079ZM24.0075 21.4627V20.5894C23.6894 20.5373 23.4969 20.5103 23.4314 20.5103V20.8082L24.0075 21.4627ZM26.5877 20.9076C26.4288 20.8414 26.131 20.7088 25.6938 20.5103V22.2173C26.3161 21.8596 26.6136 21.4235 26.5877 20.9076ZM27.6783 23.2498L27.2422 22.7146C26.978 22.8998 26.7099 23.0877 26.4379 23.2799C26.1667 23.4713 25.9322 23.6866 25.7341 23.9253C26.3287 23.6064 26.978 23.3824 27.6783 23.2498Z" fill="#0D0F0F"/>
</g>
<defs>
<clipPath id="clip0_124_61">
<rect width="35" height="35" fill="white"/>
</clipPath>
</defs>
</svg>
