<svg width="35" height="35" viewBox="0 0 35 35" fill="none" xmlns="http://www.w3.org/2000/svg">
<g clip-path="url(#clip0_124_56)">
<path d="M29.8721 5.12305C33.0407 8.2909 35 12.6659 35 17.499C35 27.1646 27.1645 35.0001 17.5 35.0001C12.6675 35.0001 8.29325 33.0415 5.1261 29.874" fill="#F8F6D8"/>
<path d="M5.1261 29.874C1.9586 26.7076 0 22.3319 0 17.4994C0 7.83489 7.83545 0.000488281 17.5 0.000488281C22.3307 0.000488281 26.7053 1.95839 29.8721 5.12344" fill="#E49977"/>
<path d="M30.8 25.5888C29.9474 24.7964 29.3811 24.367 29.1032 24.3001C28.9016 24.2518 28.7059 24.3694 28.518 24.6522C28.33 24.935 28.0661 25.0344 27.7242 24.9525C27.5856 24.9193 27.3129 24.8003 26.9073 24.5966C26.579 24.9063 26.4029 25.1114 26.3784 25.2119C26.3452 25.3512 26.4096 25.5402 26.5713 25.7792C26.7323 26.019 26.8842 26.1544 27.0266 26.1891C27.1166 26.2108 27.244 26.2209 27.4081 26.2202C27.5719 26.2199 27.6801 26.2258 27.7326 26.2381C27.8876 26.2745 27.8967 26.5779 27.7599 27.1474C27.6304 27.6906 27.3042 28.4956 26.7823 29.5596C26.7617 28.1914 26.5688 27.4634 26.2027 27.3759C26.152 27.3637 26.0386 27.3773 25.8625 27.4148C25.6858 27.4522 25.5601 27.4627 25.4845 27.4445C25.1177 27.3567 24.8692 26.943 24.7387 26.2034C24.1356 26.1527 23.7737 26.3805 23.6526 26.8856C23.5917 27.1397 23.6607 27.3696 23.8588 27.5772C24.0558 27.7844 24.1468 27.9198 24.1325 27.9832C24.0509 28.3255 23.4251 28.7297 22.2582 29.1987C21.6366 29.4514 21.2058 29.6285 20.9674 29.7314C21.1981 29.5466 21.4466 29.2918 21.7119 28.9677C22.0136 28.5978 22.1917 28.3006 22.2467 28.0721C22.2768 27.9464 22.1735 27.734 21.9373 27.4372C21.7007 27.14 21.6132 26.8653 21.6737 26.6129C21.7248 26.398 21.8638 26.1513 22.0916 25.8709C21.9723 25.6424 21.7994 25.4999 21.5719 25.4457C21.0665 25.3242 20.7742 25.4282 20.6955 25.7575L20.573 26.2692C20.4855 26.6892 20.1194 26.8222 19.4747 26.6686C18.9815 26.5503 18.1811 26.2384 17.0723 25.7327C18.4656 25.719 19.2136 25.4968 19.3161 25.0673C19.3049 25.1184 19.3151 24.9595 19.3501 24.5938C19.3928 24.1899 19.7561 23.9018 20.4379 23.731C20.4631 23.1227 20.23 22.7591 19.7365 22.6415C19.6609 22.6229 19.4897 22.7223 19.2244 22.94C18.9581 23.1567 18.7369 23.2445 18.5601 23.2018C18.2567 23.1301 17.9431 22.7073 17.6207 21.9348C17.4713 21.5516 17.2399 20.9818 16.9267 20.2251C17.1811 20.4463 17.4352 20.6682 17.6904 20.8887C18.0274 21.1568 18.3099 21.3178 18.537 21.3727C18.7141 21.4144 18.9248 21.301 19.1698 21.0318C19.4145 20.763 19.6759 20.6615 19.9538 20.7287C19.9927 20.7378 20.2268 20.8736 20.6584 21.1375C20.9863 20.8285 21.1715 20.5859 21.2142 20.4088C21.2499 20.2566 21.2002 20.0609 21.0633 19.8212C20.9268 19.5807 20.7826 19.4435 20.6311 19.4068C20.5677 19.3914 20.4655 19.3865 20.3238 19.3931C20.182 19.3998 20.0795 19.3949 20.0161 19.3798C19.789 19.3256 19.7428 19.0141 19.8789 18.445C19.9146 18.2927 20.2674 17.4615 20.9366 15.9519C20.8785 16.1374 20.8761 16.5123 20.9293 17.0726C20.9926 17.7562 21.1697 18.1321 21.4606 18.2024C21.511 18.214 21.6212 18.2007 21.7917 18.1611C21.9614 18.1216 22.0899 18.1121 22.1781 18.1338C22.4686 18.2028 22.6695 18.425 22.7811 18.7988L22.9432 19.3781C23.2085 19.4421 23.4524 19.4001 23.6747 19.2531C23.8973 19.1058 24.0408 18.8993 24.1041 18.634C24.1703 18.3557 24.1041 18.1163 23.9053 17.9147C23.7062 17.7131 23.6152 17.5745 23.6341 17.4989C23.6974 17.2336 24.2221 16.8847 25.2073 16.4524C25.9983 16.1077 26.5055 15.9148 26.7295 15.8746C26.0106 16.4783 25.6098 16.9491 25.5283 17.291C25.4859 17.4685 25.5475 17.6834 25.7141 17.9378C25.9224 18.2413 26.0333 18.4485 26.0466 18.5577C26.103 18.8797 25.9955 19.2741 25.7229 19.7442C26.0067 20.0662 26.2374 20.2475 26.4148 20.2909C26.7806 20.3784 27.0095 20.2321 27.1001 19.8534C27.1092 19.8152 27.1222 19.6913 27.1393 19.4813C27.1554 19.2713 27.1736 19.1551 27.1922 19.1331C27.2853 18.9679 27.6538 18.9626 28.2985 19.1173C28.7031 19.2139 29.5162 19.5286 30.7391 20.0616L29.4059 20.104C28.8634 20.1341 28.5698 20.2443 28.5243 20.4337C28.5033 20.5222 28.4984 20.6815 28.5103 20.9111C28.5222 21.1407 28.5162 21.3073 28.4917 21.4084C28.4497 21.5855 28.2961 21.722 28.0325 21.8197L27.2783 22.1203C27.364 22.4346 27.4253 22.6236 27.4641 22.6856C27.5548 22.8679 27.7063 22.9845 27.9212 23.0363C28.0731 23.0727 28.2439 22.9733 28.434 22.7374C28.6237 22.5022 28.8582 22.4178 29.1364 22.4847C29.4777 22.5659 29.7878 22.974 30.0664 23.7093C30.2221 24.1209 30.4664 24.7478 30.8 25.5888ZM26.8541 23.4822C27.0473 22.6726 26.9185 21.9002 26.4663 21.1641C26.0141 20.4281 25.3834 19.9626 24.5749 19.769C23.7531 19.5727 22.9743 19.6973 22.24 20.1435C21.5054 20.588 21.0332 21.2205 20.8239 22.0391C20.6174 22.8452 20.7504 23.6155 21.2233 24.3505C21.6958 25.0848 22.3363 25.5493 23.1458 25.7428C24.0047 25.9483 24.7898 25.8387 25.4996 25.4138C26.2087 24.9886 26.6602 24.3442 26.8541 23.4822ZM26.5688 23.4136C26.3847 24.1846 25.9728 24.7614 25.3333 25.1422C24.6942 25.5237 23.9883 25.6228 23.2179 25.4383C22.4721 25.2598 21.896 24.8479 21.4889 24.2025C21.0819 23.5571 20.9678 22.862 21.1463 22.1161C21.3223 21.3825 21.7406 20.818 22.4035 20.4214C23.0671 20.0259 23.7646 19.9157 24.4979 20.0914C25.2308 20.2664 25.8023 20.6839 26.2122 21.343C26.622 22.0034 26.7414 22.6933 26.5688 23.4136ZM18.1779 13.3269C17.5766 14.7616 16.3824 15.478 14.5939 15.478C14.266 15.478 13.9107 15.5183 13.5285 15.6005C12.9549 15.7241 12.6686 15.8949 12.6686 16.1133C12.6686 16.1815 12.7162 16.2596 12.8117 16.3492C12.9069 16.4377 12.9895 16.4822 13.0578 16.4822C12.7158 16.4822 12.9482 16.4927 13.7532 16.5123C14.5589 16.5333 15.0643 16.5434 15.2694 16.5434C14.0812 17.2392 12.0949 17.5605 9.30929 17.5059C8.39439 17.493 7.60934 17.0901 6.95414 16.2981C6.31224 15.547 5.99164 14.7073 5.99164 13.7795C5.99164 12.796 6.32239 11.9598 6.98529 11.2696C7.64679 10.5812 8.46999 10.2361 9.45314 10.2361C9.67119 10.2361 9.96169 10.284 10.3232 10.3789C10.6851 10.4744 10.9277 10.5224 11.0502 10.5224C11.5556 10.5224 12.1835 10.3134 12.9346 9.89765C13.6857 9.48115 14.0409 9.2729 14 9.2729C13.8631 10.7065 13.3854 11.6697 12.566 12.1607C11.9784 12.503 11.6854 12.8373 11.6854 13.1638C11.6854 13.3689 11.8076 13.5331 12.0536 13.6559C12.2447 13.7508 12.4565 13.7987 12.6889 13.7987C13.0438 13.7987 13.3917 13.5807 13.7333 13.1439C14.0742 12.7071 14.2243 12.3109 14.1834 11.9553C14.1431 11.5454 14.1704 11.0537 14.2656 10.4811C14.2926 10.3162 14.392 10.1153 14.5624 9.87664C14.7332 9.63724 14.8872 9.49025 15.0234 9.4353C15.0234 9.55885 14.9786 9.76359 14.89 10.0495C14.8011 10.3362 14.757 10.5493 14.757 10.6844C14.757 10.9851 14.8386 11.2171 15.0027 11.3809C15.2484 11.2861 15.4665 10.9784 15.6579 10.459C15.8217 10.0632 15.9169 9.68065 15.9449 9.31245C15.3709 9.2862 14.8211 9.02615 14.2957 8.5337C13.77 8.0423 13.5075 7.5096 13.5075 6.93665C13.5075 6.84145 13.5205 6.7452 13.5485 6.65C13.6297 6.77355 13.7525 6.96465 13.9174 7.224C14.1487 7.56455 14.3269 7.73535 14.4497 7.73535C14.6135 7.73535 14.6951 7.56455 14.6951 7.224C14.6951 6.7872 14.5792 6.39135 14.3472 6.03575C14.0875 5.6119 13.7529 5.40085 13.3437 5.40085C13.1519 5.40085 12.8656 5.5034 12.4834 5.7085C12.1009 5.9129 11.7526 6.01545 11.4397 6.01545C11.3438 6.01545 10.9203 5.89155 10.1692 5.6462C11.4933 5.4278 12.1558 5.23005 12.1558 5.05225C12.1558 4.58815 11.2479 4.27385 9.43179 4.11075C9.25434 4.09745 8.92709 4.07015 8.44899 4.0285C8.50324 3.96095 8.89279 3.8857 9.61659 3.8031C10.2308 3.7359 10.6606 3.7002 10.9063 3.7002C14.1561 3.7002 16.2176 5.278 17.0919 8.43255C17.2427 8.3076 17.318 8.1004 17.318 7.8099C17.318 7.43575 17.2084 6.965 16.99 6.39765C16.9078 6.1761 16.7776 5.84325 16.6005 5.40085C17.7194 6.8271 18.2805 8.17915 18.2805 9.45525C18.2805 10.1272 18.1226 10.7383 17.8087 11.2857C17.6046 11.6571 17.2214 12.1299 16.6621 12.7064C16.1024 13.2825 15.7202 13.7284 15.5151 14.0441C16.2662 13.839 16.7583 13.6815 16.9904 13.5723C17.5084 13.3402 17.9798 12.9916 18.403 12.5279C18.4026 12.7067 18.3274 12.9724 18.1779 13.3269ZM9.24769 5.278C9.24769 5.5237 9.11084 5.6805 8.83819 5.7498L8.30584 5.83135C8.11404 5.9262 7.83439 6.30245 7.46654 6.95765C7.42524 6.75325 7.36399 6.46625 7.28174 6.09735C7.15889 6.111 6.95414 6.2209 6.66749 6.4253C6.54464 6.5205 6.34654 6.6647 6.07319 6.85545C6.15544 6.36405 6.42914 5.86635 6.89289 5.3606C7.38429 4.80095 7.86274 4.522 8.32649 4.522C8.94074 4.52095 9.24769 4.77365 9.24769 5.278ZM12.8114 7.16275C12.8114 7.3941 12.6854 7.5901 12.4323 7.74655C12.1796 7.90335 11.9304 7.98245 11.6851 7.98245C11.3568 7.98245 11.0631 7.7987 10.8041 7.42875C10.4898 6.979 10.1692 6.685 9.84129 6.54815C9.90884 6.4799 9.99144 6.4456 10.0877 6.4456C10.2102 6.4456 10.4181 6.54045 10.7117 6.7319C11.0047 6.92405 11.1926 7.0189 11.2749 7.0189C11.3431 7.0189 11.4558 6.92405 11.6126 6.7319C11.7694 6.54045 11.9434 6.4456 12.1352 6.4456C12.5863 6.4456 12.8114 6.685 12.8114 7.16275Z" fill="#0D0F0F"/>
</g>
<defs>
<clipPath id="clip0_124_56">
<rect width="35" height="35" fill="white"/>
</clipPath>
</defs>
</svg>
