<svg width="35" height="35" viewBox="0 0 35 35" fill="none" xmlns="http://www.w3.org/2000/svg">
<g clip-path="url(#clip0_124_11)">
<path d="M29.8721 5.12305C33.0407 8.2909 35 12.6659 35 17.499C35 27.1646 27.1645 35.0001 17.5 35.0001C12.6675 35.0001 8.29325 33.0415 5.1261 29.874" fill="#A3C095"/>
<path d="M5.1261 29.874C1.9586 26.7076 0 22.3319 0 17.4994C0 7.83489 7.83545 0.000488281 17.5 0.000488281C22.3307 0.000488281 26.7053 1.95839 29.8721 5.12344" fill="#BAB1AB"/>
<path d="M18.64 9.83902C18.64 10.7844 18.2963 11.4291 17.6085 11.7728C17.4076 11.8732 16.7776 12.0101 15.7171 12.1809C15.0301 12.296 14.6864 12.5617 14.6864 12.9757V14.7163C14.6864 14.7894 14.7081 15.011 14.7508 15.3834L14.8155 16.0711C14.8155 16.2857 14.7651 16.6371 14.6647 17.1239C14.3931 17.181 14.0774 17.2457 13.7197 17.3182C13.6049 16.888 13.5478 16.594 13.5478 16.4362C13.5478 16.3651 13.5653 16.257 13.601 16.1138C13.6367 15.971 13.6546 15.8632 13.6546 15.7915C13.6546 15.6921 13.566 15.4121 13.3879 14.9539H13.0543C13.0106 15.025 12.9959 15.1181 13.0099 15.2322C13.0673 15.4758 13.0886 15.6833 13.075 15.8555C12.831 16.0274 12.495 16.2566 12.0649 16.5433C11.9641 16.5146 11.9284 16.5002 11.9571 16.5002V14.9746C11.9284 14.9039 11.857 14.8748 11.7422 14.8888H11.4842L11.2266 16.9087C11.0264 16.923 10.7825 16.923 10.4965 16.9087C10.3961 16.4362 10.2165 15.7348 9.95926 14.8034H9.78706C9.62956 15.305 9.54381 15.5769 9.52911 15.62C9.52911 15.677 9.54731 15.788 9.58336 15.9528C9.61871 16.1177 9.63656 16.2283 9.63656 16.2857C9.63656 16.328 9.62221 16.4362 9.59316 16.608L9.52876 17.1239C9.49971 17.1519 9.46436 17.1663 9.42166 17.1663C8.99151 17.1663 8.70486 17.0592 8.56241 16.8446C8.41856 16.6297 8.36116 16.328 8.38986 15.9416L8.56241 13.3635C8.56241 13.3212 8.57571 13.2638 8.60476 13.1913C8.63346 13.1203 8.64781 13.0695 8.64781 13.0415C8.64781 12.9267 8.52601 12.6971 8.28276 12.3531C8.23971 12.3394 8.01746 12.2887 7.61636 12.2026C7.37311 12.1455 6.89291 12.0451 6.17716 11.9023C5.18876 11.7168 4.69421 10.9212 4.69421 9.51702C4.69421 7.42507 5.55381 5.68522 7.27266 4.29572C7.34406 4.68247 7.46621 5.19732 7.63806 5.84202L8.47666 6.03627C8.56311 6.06462 8.99956 6.22282 9.78741 6.50947C9.38631 6.26622 8.86341 5.87247 8.21941 5.32752C7.97546 5.04122 7.85331 4.56137 7.85331 3.88797C7.85331 3.73047 8.12561 3.54462 8.67056 3.32832C9.15741 3.12847 9.52246 3.01437 9.76641 2.98567C10.5396 2.88557 11.1339 2.83447 11.55 2.83447C13.3403 2.83447 14.7872 3.29367 15.89 4.21067C15.5323 4.62647 14.916 5.06922 14.0424 5.54312C14.3861 5.55747 14.8876 5.42132 15.547 5.13432C16.2057 4.84872 16.485 4.70487 16.3849 4.70487C16.4994 4.70487 16.7286 4.93377 17.0727 5.39192C17.3299 5.73562 17.5378 6.04467 17.6957 6.31627C18.1542 7.13282 18.4622 8.01447 18.6204 8.95982C18.6204 9.28917 18.627 9.52542 18.6417 9.66822V9.83937L18.64 9.83902ZM10.4094 10.2268C10.4094 9.61047 10.1409 9.02667 9.60366 8.47472C9.06641 7.92312 8.48926 7.64767 7.87361 7.64767C7.32936 7.64767 6.84986 7.87867 6.43406 8.33997C6.01861 8.80162 5.81141 9.31367 5.81141 9.87612C5.81141 10.3665 6.04731 10.6846 6.52051 10.8281C6.82151 10.9149 7.24326 10.9653 7.78786 10.98H8.96946C9.92916 10.9926 10.4094 10.7413 10.4094 10.2268ZM12.7519 12.891V12.2257C12.6518 12.0391 12.5514 11.8452 12.4516 11.6447C12.3655 11.3587 12.2077 10.9576 11.9784 10.441L11.7418 12.9561C11.7418 13.157 11.6995 13.2568 11.613 13.2568C11.556 13.2568 11.5126 13.2428 11.4839 13.2141C11.3838 11.6954 11.3337 11.0357 11.3337 11.2376V10.4858C11.3047 10.4417 11.269 10.42 11.2259 10.42C10.7391 10.923 10.4958 11.7318 10.4958 12.8483C10.4958 13.4647 10.5525 13.8441 10.667 13.9883C10.7818 13.9592 10.9102 13.9092 11.0541 13.8374C11.1111 13.8084 11.276 13.7944 11.5483 13.7944C11.8195 13.7944 12.1499 13.8805 12.5363 14.0516C12.6802 14.0513 12.7519 13.6649 12.7519 12.891ZM17.6085 9.89642C17.6085 9.32032 17.3936 8.80512 16.9635 8.35012C16.5333 7.89617 16.0395 7.66937 15.4816 7.66937C14.8796 7.66937 14.3168 7.94482 13.7946 8.49642C13.2713 9.04732 13.0099 9.62447 13.0099 10.2261C13.0099 10.7277 13.2538 10.9779 13.7407 10.9779H16.2117C17.1427 10.9639 17.6085 10.6041 17.6085 9.89642ZM31.3317 23.6665C31.3317 23.9318 31.2291 24.1694 31.024 24.3815C30.8189 24.5929 30.5837 24.6983 30.3184 24.6983C29.896 24.6983 29.5841 24.5002 29.3864 24.1029L28.4529 24.0637C28.2545 24.0637 27.8635 24.1498 27.2822 24.3217C26.6602 24.4932 26.3029 24.6325 26.2098 24.7378C26.0649 24.8967 25.9455 25.2677 25.8528 25.8501C25.773 26.3261 25.7341 26.6772 25.7341 26.9022C25.7341 27.2592 25.7901 27.521 25.9021 27.6862C26.0145 27.8518 26.2465 27.9904 26.5965 28.1024C26.9465 28.2137 27.1621 28.2781 27.2419 28.291C27.2948 28.291 27.3805 28.2847 27.4999 28.2711H27.7382C27.9101 28.2711 28.0886 28.2977 28.2744 28.3505C28.5387 28.43 28.6514 28.535 28.6122 28.668C28.4263 28.6421 28.1026 28.6813 27.6399 28.787L28.195 29.0652C28.195 29.2241 27.9699 29.3029 27.5202 29.3029C27.4005 29.3029 27.2381 29.2777 27.0337 29.2241C26.8279 29.1702 26.6921 29.144 26.6266 29.144H26.3687C26.3554 29.2766 26.3162 29.474 26.2497 29.7393C26.0236 29.7264 25.76 29.5937 25.4552 29.3428C25.1507 29.0908 24.9589 28.9651 24.8801 28.9651C24.8003 28.9651 24.6873 29.0908 24.5424 29.3428C24.3964 29.5937 24.324 29.7652 24.324 29.859C24.1521 29.7652 24.0069 29.5937 23.8868 29.3428C23.834 29.1699 23.7745 28.9977 23.7087 28.8251C23.576 28.8388 23.3317 29.1177 22.974 29.6599H22.8746C22.8477 29.6203 22.7486 29.3428 22.5764 28.8251C22.1662 28.6939 21.7826 28.6281 21.4256 28.6281C21.2538 28.6281 20.9885 28.6673 20.6311 28.7474L20.0757 28.7079C20.1548 28.6281 20.3865 28.4762 20.7701 28.2511C21.2195 27.9858 21.5642 27.8532 21.8022 27.8532C21.8414 27.8532 21.8946 27.8605 21.9611 27.8738C22.0269 27.8875 22.0805 27.8941 22.12 27.8941C22.2117 27.8941 22.3612 27.8444 22.5663 27.7447C22.7714 27.6456 22.8907 27.556 22.9229 27.4766C22.9572 27.3964 22.9737 27.192 22.9737 26.8609C22.9737 26.1074 22.7749 25.5439 22.3776 25.1743C22.0336 24.8435 21.4648 24.6055 20.6707 24.4592C20.4593 25.2131 19.8632 25.5911 18.8846 25.5911C18.5665 25.5911 18.249 25.399 17.9316 25.015C17.6141 24.6307 17.4552 24.2804 17.4552 23.9626C17.4552 23.4729 17.6603 23.0697 18.0705 22.7519C17.7401 22.4086 17.5742 22.0579 17.5742 21.6998C17.5742 21.3694 17.6764 21.0782 17.8819 20.8262C18.087 20.5756 18.3554 20.4297 18.6858 20.3894C18.6599 19.9666 18.7982 19.6747 19.1023 19.5162C18.9571 19.3713 18.8846 19.1137 18.8846 18.7423C18.8846 18.3062 19.0295 17.9419 19.3211 17.6507C19.6116 17.3602 19.9759 17.2139 20.412 17.2139C20.8891 17.2139 21.2797 17.3801 21.5838 17.7102C21.9681 16.4005 22.7945 15.7456 24.065 15.7456C24.7261 15.7456 25.3089 16.0102 25.8115 16.5401C25.997 16.7379 26.089 16.8439 26.089 16.8569C25.9308 16.8569 26.0103 16.8268 26.3274 16.768C26.6455 16.7081 26.8762 16.678 27.0225 16.678C27.5384 16.678 27.9948 16.8705 28.3927 17.2541C28.7364 17.5985 28.9748 18.0343 29.1074 18.5638C29.1995 18.5775 29.3451 18.6167 29.5432 18.6832C29.8344 18.8291 29.9803 19.0804 29.9803 19.4374C29.9803 19.5032 29.9271 19.6296 29.8214 19.8151C30.6681 20.2914 31.0919 20.9529 31.0919 21.7996C31.0919 22.0379 30.9988 22.369 30.8144 22.7922C31.1595 22.9913 31.3317 23.2825 31.3317 23.6665ZM23.1529 24.5397V24.2821C23.1529 23.978 23.0045 23.6997 22.7066 23.4484C22.4088 23.1964 22.1081 23.0715 21.8036 23.0715C21.4326 23.0715 21.0889 23.1576 20.7715 23.3284C21.4729 23.2899 22.2663 23.6927 23.1529 24.5397ZM22.7959 22.0792C22.5978 21.8531 22.4256 21.6221 22.28 21.3845C21.7238 21.5294 21.4459 21.6956 21.4459 21.8801C21.6045 21.8671 21.8365 21.8965 22.1403 21.9697C22.4448 22.0428 22.6639 22.0792 22.7959 22.0792ZM24.0076 21.4629V20.5896C23.6894 20.5375 23.4969 20.5105 23.4315 20.5105V20.8084L24.0076 21.4629ZM26.5878 20.9078C26.4289 20.8416 26.131 20.709 25.6939 20.5105V22.2175C26.3162 21.8598 26.6137 21.4237 26.5878 20.9078ZM27.6784 23.25L27.2423 22.7148C26.978 22.9 26.7099 23.0879 26.438 23.2801C26.1667 23.4715 25.9322 23.6868 25.7341 23.9255C26.3288 23.6066 26.978 23.3826 27.6784 23.25Z" fill="#0D0F0F"/>
</g>
<defs>
<clipPath id="clip0_124_11">
<rect width="35" height="35" fill="white"/>
</clipPath>
</defs>
</svg>
