<svg width="35" height="35" viewBox="0 0 35 35" fill="none" xmlns="http://www.w3.org/2000/svg">
<g clip-path="url(#clip0_124_6)">
<path d="M29.8721 5.12305C33.0403 8.2909 35 12.6659 35 17.499C35 27.1646 27.1645 35.0001 17.5 35.0001C12.6675 35.0001 8.29325 33.0415 5.1261 29.874" fill="#E49977"/>
<path d="M5.1261 29.874C1.95895 26.7076 0 22.3319 0 17.4994C0 7.83489 7.83545 0.000488281 17.5 0.000488281C22.3307 0.000488281 26.7053 1.95839 29.8721 5.12344" fill="#BAB1AB"/>
<path d="M30.905 26.0538C30.3037 27.4888 29.1095 28.2049 27.321 28.2049C26.993 28.2049 26.6378 28.2452 26.2556 28.3274C25.6819 28.451 25.3953 28.6214 25.3953 28.8402C25.3953 28.9084 25.4429 28.9865 25.5388 29.0761C25.6336 29.1646 25.7166 29.2094 25.7848 29.2094C25.4429 29.2094 25.6749 29.2196 26.4803 29.2392C27.2863 29.2602 27.7917 29.2703 27.9968 29.2703C26.8089 29.9665 24.8223 30.2874 22.0367 30.2328C21.1218 30.2199 20.3367 29.817 19.6815 29.025C19.0393 28.2739 18.7187 27.4342 18.7187 26.506C18.7187 25.5225 19.0498 24.6867 19.7123 23.9965C20.3738 23.3077 21.197 22.963 22.1802 22.963C22.3982 22.963 22.6887 23.0109 23.0503 23.1058C23.4122 23.2013 23.6547 23.2493 23.7772 23.2493C24.2826 23.2493 24.9109 23.0403 25.662 22.6245C26.4131 22.2084 26.768 21.9998 26.727 21.9998C26.5902 23.4337 26.1124 24.3969 25.2931 24.8873C24.7058 25.2296 24.4125 25.5642 24.4125 25.8907C24.4125 26.0958 24.535 26.26 24.7807 26.3828C24.9718 26.4777 25.1835 26.5256 25.4159 26.5256C25.7708 26.5256 26.1187 26.3076 26.4603 25.8704C26.8012 25.434 26.9514 25.0378 26.9104 24.6825C26.8698 24.2723 26.8975 23.7809 26.9927 23.208C27.0196 23.0435 27.119 22.8422 27.2895 22.6035C27.4603 22.3641 27.6143 22.2171 27.7504 22.1618C27.7504 22.2857 27.706 22.4905 27.6174 22.7764C27.5285 23.0634 27.4844 23.2759 27.4844 23.4113C27.4844 23.7123 27.5663 23.9444 27.7305 24.1078C27.9758 24.013 28.1939 23.7053 28.3857 23.1859C28.5495 22.7904 28.6447 22.4075 28.6727 22.04C28.0987 22.0127 27.5488 21.753 27.0238 21.2606C26.4985 20.7692 26.2356 20.2368 26.2356 19.6635C26.2356 19.5687 26.2486 19.4721 26.2766 19.3769C26.3578 19.5004 26.4806 19.6915 26.6451 19.9509C26.8768 20.2921 27.0546 20.4629 27.1775 20.4629C27.3413 20.4629 27.4232 20.2921 27.4232 19.9509C27.4232 19.5137 27.307 19.1179 27.0749 18.7626C26.8149 18.3388 26.4803 18.1277 26.0715 18.1277C25.8797 18.1277 25.5934 18.2299 25.2112 18.435C24.8286 18.6394 24.4804 18.7423 24.1671 18.7423C24.0716 18.7423 23.6477 18.6188 22.897 18.3734C24.221 18.1547 24.8836 17.9569 24.8836 17.7788C24.8836 17.315 23.9757 17.0007 22.1595 16.838C21.9817 16.8243 21.6545 16.797 21.1764 16.7557C21.2306 16.6878 21.6202 16.6133 22.344 16.5303C22.9582 16.4631 23.388 16.4278 23.6337 16.4278C26.8835 16.4278 28.945 18.0049 29.8193 21.1601C29.9701 21.0348 30.0454 20.8276 30.0454 20.5371C30.0454 20.1633 29.9358 19.6929 29.7171 19.1256C29.6348 18.9033 29.5046 18.5712 29.3275 18.1284C30.4468 19.5547 31.0075 20.9067 31.0075 22.1825C31.0075 22.8552 30.8497 23.4659 30.5357 24.0137C30.3317 24.3843 29.9484 24.8572 29.3891 25.4343C28.8291 26.0101 28.4473 26.456 28.2422 26.7717C28.9933 26.5666 29.485 26.4094 29.7171 26.3002C30.2354 26.0678 30.7069 25.7192 31.13 25.2555C31.13 25.434 31.0548 25.7007 30.905 26.0538ZM21.9751 18.0052C21.9751 18.2506 21.8382 18.4084 21.5656 18.477L21.0332 18.5582C20.8418 18.6534 20.5618 19.03 20.1939 19.6849C20.1523 19.4805 20.0914 19.1938 20.0091 18.8249C19.8863 18.8379 19.6819 18.9481 19.3949 19.1525C19.272 19.2481 19.0739 19.3919 18.8002 19.5827C18.8825 19.0916 19.1562 18.5936 19.6199 18.0878C20.1113 17.5285 20.5894 17.2492 21.0535 17.2492C21.6678 17.2485 21.9751 17.5009 21.9751 18.0052ZM25.5388 19.89C25.5388 20.1217 25.4124 20.317 25.1597 20.4738C24.907 20.6302 24.6578 20.7093 24.4125 20.7093C24.0842 20.7093 23.7905 20.5259 23.5315 20.156C23.2172 19.7062 22.8966 19.4122 22.569 19.2754C22.6369 19.2071 22.7192 19.1728 22.8154 19.1728C22.9376 19.1728 23.1458 19.2677 23.4395 19.4591C23.7324 19.6513 23.9207 19.7461 24.003 19.7461C24.0712 19.7461 24.1836 19.6513 24.3404 19.4591C24.4972 19.2677 24.6715 19.1728 24.8629 19.1728C25.3137 19.1728 25.5388 19.4122 25.5388 19.89ZM18.6399 9.83902C18.6399 10.7844 18.2962 11.4291 17.6081 11.7728C17.4072 11.8732 16.7776 12.0101 15.7171 12.1809C15.0297 12.296 14.686 12.5617 14.686 12.9757V14.7163C14.686 14.7894 14.708 15.011 14.7504 15.3834L14.8151 16.0711C14.8151 16.2857 14.7647 16.6371 14.6643 17.1239C14.3923 17.181 14.077 17.2457 13.7193 17.3182C13.6041 16.888 13.5474 16.594 13.5474 16.4362C13.5474 16.3651 13.5649 16.257 13.6006 16.1138C13.6363 15.971 13.6545 15.8632 13.6545 15.7915C13.6545 15.6921 13.566 15.4121 13.3878 14.9539H13.0543C13.0102 15.025 12.9958 15.1181 13.0098 15.2322C13.0676 15.4758 13.0886 15.6833 13.0746 15.8555C12.8306 16.0274 12.4946 16.2566 12.0648 16.5433C11.9637 16.5146 11.9287 16.5002 11.957 16.5002V14.9746C11.9283 14.9039 11.8569 14.8748 11.7421 14.8888H11.4842L11.2262 16.9087C11.0257 16.923 10.7824 16.923 10.4961 16.9087C10.3957 16.4362 10.2165 15.7348 9.95923 14.8034H9.78668C9.62918 15.305 9.54308 15.5769 9.52873 15.62C9.52873 15.677 9.54693 15.788 9.58298 15.9528C9.61833 16.1177 9.63618 16.2283 9.63618 16.2857C9.63618 16.328 9.62148 16.4362 9.59243 16.608L9.52838 17.1239C9.49933 17.1519 9.46398 17.1663 9.42093 17.1663C8.99113 17.1663 8.70413 17.0592 8.56168 16.8446C8.41783 16.6297 8.36008 16.328 8.38913 15.9416L8.56168 13.3635C8.56168 13.3212 8.57533 13.2638 8.60403 13.1913C8.63273 13.1203 8.64708 13.0695 8.64708 13.0415C8.64708 12.9267 8.52528 12.6971 8.28203 12.3531C8.23898 12.3394 8.01673 12.2887 7.61563 12.2026C7.37203 12.1455 6.89218 12.0451 6.17643 11.9023C5.18803 11.7168 4.69348 10.9212 4.69348 9.51702C4.69348 7.42507 5.55308 5.68522 7.27193 4.29572C7.34333 4.68247 7.46548 5.19732 7.63733 5.84202L8.47523 6.03627C8.56168 6.06462 8.99848 6.22282 9.78598 6.50947C9.38488 6.26622 8.86198 5.87247 8.21798 5.32752C7.97403 5.04122 7.85188 4.56137 7.85188 3.88797C7.85188 3.73047 8.12418 3.54462 8.66913 3.32832C9.15598 3.12847 9.52103 3.01437 9.76498 2.98567C10.5381 2.88557 11.1328 2.83447 11.5486 2.83447C13.3388 2.83447 14.7857 3.29367 15.8889 4.21067C15.5312 4.62647 14.9149 5.06922 14.0413 5.54312C14.385 5.55747 14.8865 5.42132 15.5456 5.13432C16.2043 4.84872 16.4836 4.70487 16.3835 4.70487C16.4979 4.70487 16.7272 4.93377 17.0712 5.39192C17.3285 5.73562 17.5364 6.04467 17.6942 6.31627C18.1527 7.13282 18.4607 8.01447 18.6186 8.95982C18.6186 9.28917 18.6256 9.52542 18.6399 9.66822V9.83902ZM10.4093 10.2268C10.4093 9.61047 10.1409 9.02667 9.60398 8.47472C9.06638 7.92312 8.48958 7.64767 7.87393 7.64767C7.32968 7.64767 6.85018 7.87867 6.43403 8.33997C6.01858 8.80162 5.81103 9.31367 5.81103 9.87612C5.81103 10.3665 6.04728 10.6846 6.52048 10.8281C6.82113 10.9149 7.24323 10.9653 7.78783 10.98H8.96943C9.92913 10.9926 10.4093 10.7413 10.4093 10.2268ZM12.7515 12.891V12.2257C12.6514 12.0391 12.551 11.8452 12.4512 11.6447C12.3651 11.3587 12.2073 10.9576 11.9784 10.441L11.7418 12.9561C11.7418 13.157 11.6994 13.2568 11.613 13.2568C11.5559 13.2568 11.5125 13.2428 11.4838 13.2141C11.3834 11.6954 11.3337 11.0357 11.3337 11.2376V10.4858C11.3046 10.4417 11.2689 10.42 11.2259 10.42C10.739 10.923 10.4958 11.7318 10.4958 12.8483C10.4958 13.4647 10.5528 13.8441 10.6673 13.9883C10.7824 13.9592 10.9105 13.9092 11.0547 13.8374C11.1118 13.8084 11.2763 13.7944 11.5489 13.7944C11.8202 13.7944 12.1506 13.8805 12.537 14.0516C12.6801 14.0513 12.7515 13.6649 12.7515 12.891ZM17.6081 9.89642C17.6081 9.32032 17.3932 8.80512 16.9634 8.35012C16.5333 7.89617 16.0394 7.66937 15.4812 7.66937C14.8795 7.66937 14.3164 7.94482 13.7938 8.49642C13.2709 9.04732 13.0091 9.62447 13.0091 10.2261C13.0091 10.7277 13.2531 10.9779 13.7399 10.9779H16.2109C17.1426 10.9639 17.6081 10.6041 17.6081 9.89642Z" fill="#0D0F0F"/>
</g>
<defs>
<clipPath id="clip0_124_6">
<rect width="35" height="35" fill="white"/>
</clipPath>
</defs>
</svg>
